<svg width="24" height="24" viewBox="0 0 24 24" fill="none" xmlns="http://www.w3.org/2000/svg">
<path d="M2 22H22" stroke="#A2A3C3" stroke-width="1.5" stroke-miterlimit="10" stroke-linecap="round" stroke-linejoin="round"/>
<mask id="path-2-inside-1_3034_43250" fill="white">
<path d="M2 20.5C2 19.6716 2.67157 19 3.5 19H8.5C9.32843 19 10 19.6716 10 20.5C10 21.3284 9.32843 22 8.5 22H3.5C2.67157 22 2 21.3284 2 20.5Z"/>
</mask>
<path d="M0.5 19.75C0.5 18.5074 1.50736 17.5 2.75 17.5H9.25C10.4926 17.5 11.5 18.5074 11.5 19.75L8.5 20.5H3.5L0.5 19.75ZM10 22H2H10ZM2.75 22C1.50736 22 0.5 20.9926 0.5 19.75C0.5 18.5074 1.50736 17.5 2.75 17.5L3.5 20.5C3.5 21.3284 3.5 22 3.5 22H2.75ZM9.25 17.5C10.4926 17.5 11.5 18.5074 11.5 19.75C11.5 20.9926 10.4926 22 9.25 22H8.5C8.5 22 8.5 21.3284 8.5 20.5L9.25 17.5Z" fill="#A2A3C3" mask="url(#path-2-inside-1_3034_43250)"/>
<mask id="path-4-inside-2_3034_43250" fill="white">
<path d="M13 15.5C13 14.6716 13.6716 14 14.5 14H19.5C20.3284 14 21 14.6716 21 15.5C21 16.3284 20.3284 17 19.5 17H14.5C13.6716 17 13 16.3284 13 15.5Z"/>
</mask>
<path d="M11.5 14.75C11.5 13.5074 12.5074 12.5 13.75 12.5H20.25C21.4926 12.5 22.5 13.5074 22.5 14.75L19.5 15.5H14.5L11.5 14.75ZM21 17H13H21ZM13.75 17C12.5074 17 11.5 15.9926 11.5 14.75C11.5 13.5074 12.5074 12.5 13.75 12.5L14.5 15.5C14.5 16.3284 14.5 17 14.5 17H13.75ZM20.25 12.5C21.4926 12.5 22.5 13.5074 22.5 14.75C22.5 15.9926 21.4926 17 20.25 17H19.5C19.5 17 19.5 16.3284 19.5 15.5L20.25 12.5Z" fill="#A2A3C3" mask="url(#path-4-inside-2_3034_43250)"/>
<rect x="12.75" y="16.75" width="8.5" height="2.5" rx="0.85" stroke="#A2A3C3" stroke-width="1.5"/>
<path d="M8 8L7.5037 3.40232C7.41759 2.60462 6.7442 2 5.94186 2V2C5.12438 2 4.44353 2.62696 4.37628 3.44168L4 8" stroke="#A2A3C3" stroke-width="1.5"/>
<path d="M4 19L4 8" stroke="#A2A3C3" stroke-width="1.5" stroke-linecap="round" stroke-linejoin="round"/>
<path d="M8 19L8 8" stroke="#A2A3C3" stroke-width="1.5" stroke-linecap="round" stroke-linejoin="round"/>
<path d="M18 8L2 8" stroke="#A2A3C3" stroke-width="1.5" stroke-linecap="round" stroke-linejoin="round"/>
<path d="M17 14L17 8" stroke="#A2A3C3" stroke-width="1.5" stroke-linecap="round" stroke-linejoin="round"/>
<path d="M8 17L3.99997 18.9348" stroke="#A2A3C3" stroke-width="1.5" stroke-linecap="round" stroke-linejoin="round"/>
<path d="M17 11L14 15" stroke="#A2A3C3" stroke-width="1.5" stroke-linecap="round" stroke-linejoin="round"/>
<path d="M20 15L17 11" stroke="#A2A3C3" stroke-width="1.5" stroke-linecap="round" stroke-linejoin="round"/>
<path d="M17 8L7 2" stroke="#A2A3C3" stroke-width="1.5" stroke-linecap="round" stroke-linejoin="round"/>
<path d="M8 13L3.99997 14.9348" stroke="#A2A3C3" stroke-width="1.5" stroke-linecap="round" stroke-linejoin="round"/>
<path d="M8 9L3.99997 10.9348" stroke="#A2A3C3" stroke-width="1.5" stroke-linecap="round" stroke-linejoin="round"/>
<path d="M8 16.9355L3.99989 15.001" stroke="#A2A3C3" stroke-width="1.5" stroke-linecap="round" stroke-linejoin="round"/>
<path d="M8 12.9355L3.99989 11.001" stroke="#A2A3C3" stroke-width="1.5" stroke-linecap="round" stroke-linejoin="round"/>
</svg>
