<svg width="23" height="21" viewBox="0 0 23 21" fill="none" xmlns="http://www.w3.org/2000/svg">
<g id="Group 427320256">
<path id="Rectangle 3467732" d="M5 18H3.5C2.67157 18 2 17.3284 2 16.5V16.5C2 15.6716 2.67157 15 3.5 15H20.5C21.3284 15 22 15.6716 22 16.5V16.5C22 17.3284 21.3285 18 20.5001 18C20.0143 18 19.4778 18 19 18M8 18C8 18 13.1066 18 16 18" stroke="#A2A3C3" stroke-width="1.5"/>
<path id="Rectangle 3467735" d="M3.67028 3.73447C3.9919 2.53417 5.22565 1.82186 6.42595 2.14348L9.00047 2.83332C9.12183 2.86584 9.24025 2.90846 9.3545 2.96075L12.2767 4.29817C13.2751 4.7551 13.7978 5.86588 13.5137 6.92642L12.238 11.6874C11.9538 12.748 10.9457 13.4485 9.85259 13.3451L6.65318 13.0422C6.5281 13.0304 6.40423 13.0081 6.28287 12.9755L3.70835 12.2857C2.50806 11.9641 1.79574 10.7303 2.11736 9.53002L3.67028 3.73447Z" stroke="#A2A3C3" stroke-width="1.5"/>
<path id="Vector" d="M14 5H18C19.8803 5 20.2957 6.06242 20.5373 7.36475L21.5 15" stroke="#A2A3C3" stroke-width="1.5" stroke-linecap="round" stroke-linejoin="round"/>
<path id="Vector_2" d="M15.9999 6L15.9999 9" stroke="#A2A3C3" stroke-width="1.5" stroke-linecap="round" stroke-linejoin="round"/>
<path id="Vector_3" d="M3 12L3 15" stroke="#A2A3C3" stroke-width="1.5" stroke-linecap="round" stroke-linejoin="round"/>
<path id="Vector_4" d="M5 13L5 15" stroke="#A2A3C3" stroke-width="1.5" stroke-linecap="round" stroke-linejoin="round"/>
<path id="Vector_5" d="M14 5L14 15" stroke="#A2A3C3" stroke-width="1.5" stroke-linecap="round" stroke-linejoin="round"/>
<path id="Vector_6" d="M20 9L16 9" stroke="#A2A3C3" stroke-width="1.5" stroke-linecap="round" stroke-linejoin="round"/>
<path id="Vector_7" d="M21 12L19 12" stroke="#A2A3C3" stroke-width="1.5" stroke-linecap="round" stroke-linejoin="round"/>
<path id="Vector_8" d="M9.43213 3.10547L6.56817 12.8931" stroke="#A2A3C3" stroke-width="1.5" stroke-linecap="round" stroke-linejoin="round"/>
<rect id="Rectangle 3467733" x="8.25" y="20.25" width="3.5" height="3.5" rx="1.75" transform="rotate(-180 8.25 20.25)" stroke="#A2A3C3" stroke-width="1.5" stroke-linejoin="round"/>
<rect id="Rectangle 3467736" x="19.25" y="20.25" width="3.5" height="3.5" rx="1.75" transform="rotate(-180 19.25 20.25)" stroke="#A2A3C3" stroke-width="1.5" stroke-linejoin="round"/>
</g>
</svg>
