<svg width="30" height="30" viewBox="0 0 30 30" fill="none" xmlns="http://www.w3.org/2000/svg">
<path d="M27 15C27 21.6274 21.6274 27 15 27C8.37258 27 3 21.6274 3 15C3 8.37258 8.37258 3 15 3C21.6274 3 27 8.37258 27 15Z" stroke="#28283E" stroke-width="2" stroke-linecap="round" stroke-linejoin="round"/>
<path d="M10.1995 4.19922H11.3995C9.05953 11.2072 9.05953 18.7912 11.3995 25.7992H10.1995" stroke="#28283E" stroke-width="2" stroke-linecap="round" stroke-linejoin="round"/>
<path d="M18.6 4.19922C20.94 11.2072 20.94 18.7912 18.6 25.7992" stroke="#28283E" stroke-width="2" stroke-linecap="round" stroke-linejoin="round"/>
<path d="M4.19995 19.7996V18.5996C11.208 20.9396 18.792 20.9396 25.8 18.5996V19.7996" stroke="#28283E" stroke-width="2" stroke-linecap="round" stroke-linejoin="round"/>
<path d="M4.19995 11.3995C11.208 9.05953 18.792 9.05953 25.8 11.3995" stroke="#28283E" stroke-width="2" stroke-linecap="round" stroke-linejoin="round"/>
</svg>
