<svg width="31" height="31" viewBox="0 0 31 31" fill="none" xmlns="http://www.w3.org/2000/svg">
<path d="M16.3187 25H4.68126C2.66251 25 1 23.4015 1 21.435V5.56501C1 3.61001 2.65063 2 4.68126 2H16.3187C18.3375 2 20 3.59851 20 5.56501V21.435C20 23.4015 18.3494 25 16.3187 25Z" stroke="black" stroke-width="1.5" stroke-linecap="round" stroke-linejoin="round"/>
<path d="M18.2188 15.0001H2.78125C1.79563 15.0001 1 14.1961 1 13.2001V7.3C1 6.304 1.79563 5.5 2.78125 5.5H18.2188C19.2044 5.5 20 6.304 20 7.3V13.2001C20 14.1961 19.2044 15.0001 18.2188 15.0001Z" stroke="black" stroke-width="1.5" stroke-linecap="round" stroke-linejoin="round"/>
<path d="M3 25L3 26.3488C3 27.0823 3.56092 27.6744 4.25579 27.6744L4.74421 27.6744C5.43908 27.6744 6 27.0823 6 26.3488L6 25.0001" stroke="black" stroke-width="1.5" stroke-linecap="round" stroke-linejoin="round"/>
<path d="M15 25L15 26.3488C15 27.0823 15.5609 27.6744 16.2558 27.6744L16.7442 27.6744C17.4391 27.6744 18 27.0823 18 26.3488L18 25.0001" stroke="black" stroke-width="1.5" stroke-linecap="round" stroke-linejoin="round"/>
<path d="M4.4955 19.5H4.5045" stroke="black" stroke-width="2.5" stroke-linecap="round" stroke-linejoin="round"/>
<path d="M16.4955 19.5H16.5045" stroke="black" stroke-width="2.5" stroke-linecap="round" stroke-linejoin="round"/>
<path d="M11 6L11 15" stroke="black" stroke-width="1.5" stroke-linecap="round" stroke-linejoin="round"/>
<path d="M1.2915 28.416H29.7082" stroke="black" stroke-width="1.5" stroke-miterlimit="10" stroke-linecap="round" stroke-linejoin="round"/>
<path d="M26 28L26 17" stroke="black" stroke-width="1.5" stroke-miterlimit="10" stroke-linecap="round" stroke-linejoin="round"/>
<path d="M26 11C24.3364 11 23 12.2103 23 13.717L23 14.283C23 15.7897 24.3364 17 26 17C27.6636 17 29 15.7897 29 14.283V13.717C29 12.2103 27.6636 11 26 11Z" stroke="black" stroke-width="1.5" stroke-miterlimit="10" stroke-linecap="round" stroke-linejoin="round"/>
</svg>
