<svg width="24" height="24" viewBox="0 0 24 24" fill="none" xmlns="http://www.w3.org/2000/svg">
<path d="M13.3079 3.21352L19.6331 5.69988C21.4556 6.41163 21.4556 7.58837 19.6331 8.30012L13.3079 10.7865C12.5896 11.0712 11.4104 11.0712 10.6921 10.7865L4.36689 8.30012C2.54437 7.58837 2.54437 6.41163 4.36689 5.69988L10.6921 3.21352C11.4104 2.92883 12.5896 2.92883 13.3079 3.21352Z" stroke="#666666" stroke-width="2" stroke-linecap="round" stroke-linejoin="round"/>
<path d="M3 11C3 11.7861 3.63 12.694 4.4 13.0122L11.19 15.8386C11.71 16.0538 12.3 16.0538 12.81 15.8386L19.6 13.0122C20.37 12.694 21 11.7861 21 11" stroke="#666666" stroke-width="2" stroke-linecap="round" stroke-linejoin="round"/>
<path d="M3 16C3 16.8704 3.55 17.6565 4.4 18.0122L11.19 20.8386C11.71 21.0538 12.3 21.0538 12.81 20.8386L19.6 18.0122C20.45 17.6565 21 16.8704 21 16" stroke="#666666" stroke-width="2" stroke-linecap="round" stroke-linejoin="round"/>
</svg>
