<svg width="31" height="31" viewBox="0 0 31 31" fill="none" xmlns="http://www.w3.org/2000/svg">
<path d="M20.0341 3.65527H10.9666C7.75033 3.65527 7.03991 5.25694 6.62658 7.22027L5.16699 14.2082H25.8337L24.3741 7.22027C23.9607 5.25694 23.2503 3.65527 20.0341 3.65527Z" stroke="black" stroke-width="1.5" stroke-linecap="round" stroke-linejoin="round"/>
<path d="M28.4038 25.6005C28.5459 27.1118 27.3317 28.4163 25.7817 28.4163H23.3534C21.9584 28.4163 21.7646 27.8222 21.5192 27.0859L21.2609 26.3109C20.8992 25.2518 20.6667 24.5413 18.8067 24.5413H12.1934C10.3334 24.5413 10.0621 25.3422 9.73919 26.3109L9.48086 27.0859C9.23544 27.8222 9.04169 28.4163 7.64669 28.4163H5.21836C3.66836 28.4163 2.45419 27.1118 2.59628 25.6005L3.31961 17.7343C3.50044 15.7968 3.87503 14.208 7.25919 14.208H23.7409C27.125 14.208 27.4996 15.7968 27.6804 17.7343L28.4038 25.6005Z" stroke="black" stroke-width="1.5" stroke-linecap="round" stroke-linejoin="round"/>
<path d="M5.16667 10.333H3.875" stroke="black" stroke-width="1.5" stroke-linecap="round" stroke-linejoin="round"/>
<path d="M27.1247 10.333H25.833" stroke="black" stroke-width="1.5" stroke-linecap="round" stroke-linejoin="round"/>
<path d="M15.5 3.875V6.45833" stroke="black" stroke-width="1.5" stroke-linecap="round" stroke-linejoin="round"/>
<path d="M13.5625 6.45801H17.4375" stroke="black" stroke-width="1.5" stroke-linecap="round" stroke-linejoin="round"/>
<path d="M7.75 19.375H11.625" stroke="black" stroke-width="1.5" stroke-linecap="round" stroke-linejoin="round"/>
<path d="M19.375 19.375H23.25" stroke="black" stroke-width="1.5" stroke-linecap="round" stroke-linejoin="round"/>
</svg>
