<svg xmlns="http://www.w3.org/2000/svg" width="76" height="76" viewBox="0 0 76 76" fill="none">
  <path d="M37.8008 69.3008C55.1978 69.3008 69.3008 55.1978 69.3008 37.8008C69.3008 20.4038 55.1978 6.30078 37.8008 6.30078C20.4038 6.30078 6.30078 20.4038 6.30078 37.8008C6.30078 55.1978 20.4038 69.3008 37.8008 69.3008Z" stroke="white" stroke-width="5" stroke-linecap="round" stroke-linejoin="round"/>
  <path d="M25.1991 9.44922H28.3491C22.2066 27.8452 22.2066 47.7532 28.3491 66.1492H25.1991" stroke="white" stroke-width="5" stroke-linecap="round" stroke-linejoin="round"/>
  <path d="M47.25 9.44922C53.3925 27.8452 53.3925 47.7532 47.25 66.1492" stroke="white" stroke-width="5" stroke-linecap="round" stroke-linejoin="round"/>
  <path d="M9.44922 50.4V47.25C27.8452 53.3925 47.7532 53.3925 66.1492 47.25V50.4" stroke="white" stroke-width="5" stroke-linecap="round" stroke-linejoin="round"/>
  <path d="M9.44922 28.3491C27.8452 22.2066 47.7532 22.2066 66.1492 28.3491" stroke="white" stroke-width="5" stroke-linecap="round" stroke-linejoin="round"/>
</svg>