<svg width="31" height="31" viewBox="0 0 31 31" fill="none" xmlns="http://www.w3.org/2000/svg">
<path d="M21.829 28.4163H9.17068C6.97485 28.4163 5.1665 26.6209 5.1665 24.4122V6.58718C5.1665 4.39135 6.96193 2.58301 9.17068 2.58301H21.829C24.0248 2.58301 25.8332 4.37843 25.8332 6.58718V24.4122C25.8332 26.6209 24.0377 28.4163 21.829 28.4163Z" stroke="black" stroke-width="1.5" stroke-linecap="round" stroke-linejoin="round"/>
<path d="M23.8957 16.7913H7.104C6.03192 16.7913 5.1665 15.9259 5.1665 14.8538V12.2705C5.1665 11.1984 6.03192 10.333 7.104 10.333H23.8957C24.9678 10.333 25.8332 11.1984 25.8332 12.2705V14.8538C25.8332 15.9259 24.9678 16.7913 23.8957 16.7913Z" stroke="black" stroke-width="1.5" stroke-linecap="round" stroke-linejoin="round"/>
<path d="M10.9722 22.8626H10.9838" stroke="black" stroke-width="2.5" stroke-linecap="round" stroke-linejoin="round"/>
<path d="M20.0137 22.8626H20.0253" stroke="black" stroke-width="2.5" stroke-linecap="round" stroke-linejoin="round"/>
<path d="M12.271 6.45801H18.7293" stroke="black" stroke-width="1.5" stroke-linecap="round" stroke-linejoin="round"/>
</svg>
