<svg width="30" height="30" viewBox="0 0 30 30" fill="none" xmlns="http://www.w3.org/2000/svg">
<mask id="path-1-inside-1_611_258523" fill="white">
<path fill-rule="evenodd" clip-rule="evenodd" d="M16.1685 2.84123C15.4705 2.33875 14.5295 2.33875 13.8315 2.84123L3.83148 10.0404C3.30942 10.4162 3 11.0202 3 11.6635V25.2124C3 25.6865 3.20261 26.1412 3.56326 26.4764C3.9239 26.8117 4.41305 27 4.92308 27H25.0769C25.587 27 26.0761 26.8117 26.4367 26.4764C26.7974 26.1412 27 25.6865 27 25.2124V11.6635C27 11.0202 26.6906 10.4162 26.1685 10.0404L16.1685 2.84123Z"/>
</mask>
<path d="M3.56326 26.4764L2.20159 27.9413H2.20159L3.56326 26.4764ZM26.1685 10.0404L25 11.6635L26.1685 10.0404ZM3.83148 10.0404L2.66297 8.41724L3.83148 10.0404ZM12.663 1.2181L2.66297 8.41724L5 11.6635L15 4.46437L12.663 1.2181ZM1 11.6635V25.2124H5V11.6635H1ZM1 25.2124C1 26.2661 1.45161 27.2442 2.20159 27.9413L4.92492 25.0116C4.95361 25.0382 5 25.107 5 25.2124H1ZM2.20159 27.9413C2.94664 28.6339 3.92786 29 4.92308 29V25C4.91362 25 4.90745 24.9981 4.90577 24.9975C4.9041 24.9969 4.91187 24.9994 4.92492 25.0116L2.20159 27.9413ZM4.92308 29H25.0769V25H4.92308V29ZM25.0769 29C26.0721 29 27.0534 28.6339 27.7984 27.9413L25.0751 25.0116C25.0881 24.9994 25.0959 24.9968 25.0942 24.9975C25.0926 24.9981 25.0864 25 25.0769 25V29ZM27.7984 27.9413C28.5484 27.2442 29 26.2661 29 25.2124H25C25 25.107 25.0464 25.0382 25.0751 25.0116L27.7984 27.9413ZM29 25.2124V11.6635H25V25.2124H29ZM27.337 8.41724L17.337 1.2181L15 4.46437L25 11.6635L27.337 8.41724ZM29 11.6635C29 10.3769 28.3812 9.16892 27.337 8.41724L25 11.6635H29ZM2.66297 8.41724C1.61884 9.16892 1 10.3769 1 11.6635H5L5 11.6635L2.66297 8.41724ZM15 4.46437V4.46437L17.337 1.2181C15.9411 0.213125 14.0589 0.213123 12.663 1.2181L15 4.46437Z" fill="#28283E" mask="url(#path-1-inside-1_611_258523)"/>
<mask id="path-3-inside-2_611_258523" fill="white">
<path d="M10 16C10 15.4477 10.4477 15 11 15H19C19.5523 15 20 15.4477 20 16V26C20 26.5523 19.5523 27 19 27H11C10.4477 27 10 26.5523 10 26V16Z"/>
</mask>
<path d="M8 16C8 14.3431 9.34315 13 11 13H19C20.6569 13 22 14.3431 22 16L18 17H12L8 16ZM20 27H10H20ZM11 27C9.34315 27 8 25.6569 8 24V16C8 14.3431 9.34315 13 11 13L12 17V26C12 26.5523 12 27 12 27H11ZM19 13C20.6569 13 22 14.3431 22 16V24C22 25.6569 20.6569 27 19 27H18C18 27 18 26.5523 18 26V17L19 13Z" fill="#28283E" mask="url(#path-3-inside-2_611_258523)"/>
</svg>
