<svg width="24" height="24" viewBox="0 0 24 24" fill="none" xmlns="http://www.w3.org/2000/svg">
<path d="M11.451 3.55697C11.7843 3.33809 12.2157 3.33809 12.549 3.55697L19.549 8.15455C19.8305 8.33944 20 8.6536 20 8.99039V20.5699C20 20.6812 19.9555 20.7897 19.8735 20.871C19.7912 20.9526 19.6777 21 19.5577 21H4.44231C4.32226 21 4.20883 20.9526 4.12653 20.871C4.04451 20.7897 4 20.6812 4 20.5699V8.99039C4 8.6536 4.16953 8.33944 4.45102 8.15455L11.451 3.55697Z" stroke="#666666" stroke-width="2" stroke-linecap="round" stroke-linejoin="round"/>
<mask id="path-2-inside-1_1127_30422" fill="white">
<path d="M8 16C8 14.8954 8.89543 14 10 14H14C15.1046 14 16 14.8954 16 16V20C16 21.1046 15.1046 22 14 22H10C8.89543 22 8 21.1046 8 20V16Z"/>
</mask>
<path d="M6 16C6 13.7909 7.79086 12 10 12H14C16.2091 12 18 13.7909 18 16H14H10H6ZM16 22H8H16ZM10 22C7.79086 22 6 20.2091 6 18V16C6 13.7909 7.79086 12 10 12V16V20C10 21.1046 10 22 10 22ZM14 12C16.2091 12 18 13.7909 18 16V18C18 20.2091 16.2091 22 14 22C14 22 14 21.1046 14 20V16V12Z" fill="#666666" mask="url(#path-2-inside-1_1127_30422)"/>
<mask id="path-4-inside-2_1127_30422" fill="white">
<path d="M7 11C7 10.4477 7.44772 10 8 10H10C10.5523 10 11 10.4477 11 11C11 11.5523 10.5523 12 10 12H8C7.44772 12 7 11.5523 7 11Z"/>
</mask>
<path d="M8 12H10V8H8V12ZM10 10H8V14H10V10ZM8 10C8.55228 10 9 10.4477 9 11H5C5 12.6569 6.34315 14 8 14V10ZM9 11C9 10.4477 9.44772 10 10 10V14C11.6569 14 13 12.6569 13 11H9ZM10 12C9.44772 12 9 11.5523 9 11H13C13 9.34315 11.6569 8 10 8V12ZM8 8C6.34315 8 5 9.34315 5 11H9C9 11.5523 8.55228 12 8 12V8Z" fill="#666666" mask="url(#path-4-inside-2_1127_30422)"/>
<mask id="path-6-inside-3_1127_30422" fill="white">
<path d="M13 11C13 10.4477 13.4477 10 14 10H16C16.5523 10 17 10.4477 17 11C17 11.5523 16.5523 12 16 12H14C13.4477 12 13 11.5523 13 11Z"/>
</mask>
<path d="M14 12H16V8H14V12ZM16 10H14V14H16V10ZM14 10C14.5523 10 15 10.4477 15 11H11C11 12.6569 12.3431 14 14 14V10ZM15 11C15 10.4477 15.4477 10 16 10V14C17.6569 14 19 12.6569 19 11H15ZM16 12C15.4477 12 15 11.5523 15 11H19C19 9.34315 17.6569 8 16 8V12ZM14 8C12.3431 8 11 9.34315 11 11H15C15 11.5523 14.5523 12 14 12V8Z" fill="#666666" mask="url(#path-6-inside-3_1127_30422)"/>
<line x1="3" y1="21" x2="21" y2="21" stroke="#666666" stroke-width="2" stroke-linecap="round"/>
<path d="M19 7L18.9661 4H14" stroke="#666666" stroke-width="2" stroke-miterlimit="10" stroke-linecap="round" stroke-linejoin="round"/>
</svg>
