<svg width="250" height="250" viewBox="0 0 250 250" fill="none" xmlns="http://www.w3.org/2000/svg">
<circle cx="125" cy="125" r="105" fill="#E7ECF1"/>
<mask id="mask0_861_273776" style="mask-type:alpha" maskUnits="userSpaceOnUse" x="20" y="20" width="210" height="210">
<circle cx="125" cy="125" r="105" fill="#E7ECF1"/>
</mask>
<g mask="url(#mask0_861_273776)">
<path d="M53 138.5L81 111V230H53V138.5Z" fill="#C4CBD1"/>
<path d="M136 116L151 104L166 116V230H136V116Z" fill="#CED4DA"/>
<rect x="166" y="95" width="24" height="135" fill="#C4CBD1"/>
<rect x="177" y="78" width="2" height="26" fill="#C4CBD1"/>
<rect x="81" y="91" width="28" height="139" fill="#CED4DA"/>
<rect x="86" y="83" width="18" height="12" fill="#CED4DA"/>
<rect x="103" y="159" width="38" height="71" fill="#C4CBD1"/>
<rect x="114" y="207" width="16" height="23" fill="#D7DFE6"/>
<rect x="107" y="163" width="13" height="7" fill="#D7DFE6"/>
<rect x="107" y="174" width="13" height="7" fill="#D7DFE6"/>
<rect x="107" y="185" width="13" height="7" fill="#D7DFE6"/>
<rect x="124" y="163" width="13" height="7" fill="#D7DFE6"/>
<rect x="124" y="174" width="13" height="7" fill="#D7DFE6"/>
<rect x="124" y="185" width="13" height="7" fill="#D7DFE6"/>
</g>
<path d="M19.345 164.582L17.418 164.523" stroke="#D2D8DF" stroke-linecap="round"/>
<path d="M17.9621 160.93L16.5801 162.221" stroke="#D2D8DF" stroke-linecap="round"/>
<path d="M14.3601 159.26L14.3311 161.144" stroke="#D2D8DF" stroke-linecap="round"/>
<path d="M10.6484 160.555L11.9904 161.929" stroke="#D2D8DF" stroke-linecap="round"/>
<path d="M9 164.053L10.926 164.112" stroke="#D2D8DF" stroke-linecap="round"/>
<path d="M10.3818 167.705L11.7648 166.414" stroke="#D2D8DF" stroke-linecap="round"/>
<path d="M13.9844 169.374L14.0134 167.49" stroke="#D2D8DF" stroke-linecap="round"/>
<path d="M17.6965 168.081L16.3545 166.707" stroke="#D2D8DF" stroke-linecap="round"/>
<path d="M241.648 124.723L240.801 125.64" stroke="#D2D8DF" stroke-linecap="round"/>
<path d="M237.671 125.52L238.31 126.109" stroke="#D2D8DF" stroke-linecap="round"/>
<path d="M237.026 129.583L237.873 128.666" stroke="#D2D8DF" stroke-linecap="round"/>
<path d="M241.002 128.786L240.364 128.197" stroke="#D2D8DF" stroke-linecap="round"/>
<path d="M184.07 16.9476L182.021 16.8926" stroke="#D2D8DF" stroke-linecap="round"/>
<path d="M178.768 12L178.737 13.751" stroke="#D2D8DF" stroke-linecap="round"/>
<path d="M173.066 16.4531L175.115 16.5071" stroke="#D2D8DF" stroke-linecap="round"/>
<path d="M178.368 21.4014L178.399 19.6504" stroke="#D2D8DF" stroke-linecap="round"/>
<path fill-rule="evenodd" clip-rule="evenodd" d="M32.3371 206.006C30.8631 206.447 28.4081 208.613 27.5681 211.181C27.4271 208.795 25.9121 205.796 24.2451 205.364C26.2791 204.645 28.4821 202.002 29.0681 199.775C28.9621 202.109 31.0811 205.498 32.3371 206.006Z" fill="#EBECEF"/>
<path fill-rule="evenodd" clip-rule="evenodd" d="M66.8597 26.3254C65.7227 26.5264 63.7077 27.9264 62.8597 29.7664C62.9607 27.9774 62.0917 25.6124 60.8877 25.1464C62.4647 24.7864 64.3347 23.0084 64.9637 21.4004C64.6827 23.1304 65.9677 25.8384 66.8597 26.3254Z" fill="#EBECEF"/>
<path fill-rule="evenodd" clip-rule="evenodd" d="M217.56 39.316C216.041 39.283 214.837 38.026 214.871 36.508C214.904 34.99 216.161 33.786 217.678 33.819C219.197 33.852 220.401 35.109 220.368 36.627C220.334 38.145 219.078 39.349 217.56 39.316Z" fill="#D1D9E0"/>
<path fill-rule="evenodd" clip-rule="evenodd" d="M217.566 219.47C216.245 219.442 215.197 218.347 215.225 217.026C215.253 215.704 216.348 214.656 217.67 214.684C218.992 214.713 220.04 215.807 220.011 217.129C219.982 218.45 218.888 219.499 217.566 219.47Z" fill="#EBECEF"/>
<path fill-rule="evenodd" clip-rule="evenodd" d="M18.8224 75.8032C18.0044 75.7852 17.3554 75.1082 17.3734 74.2892C17.3904 73.4712 18.0684 72.8232 18.8864 72.8402C19.7044 72.8582 20.3534 73.5352 20.3364 74.3532C20.3184 75.1722 19.6404 75.8212 18.8224 75.8032Z" stroke="#D2D8DF" stroke-linecap="round"/>
<path fill-rule="evenodd" clip-rule="evenodd" d="M8 151.162C9.10981 150.816 10.8097 149.46 11.2034 148C11.5603 149.29 13.0565 150.816 14.4067 150.932C12.8871 151.47 11.4343 153.069 11.2034 154.325C11.0465 153.045 9.03651 151.349 8 151.162Z" fill="#EBECEE"/>
<path d="M231.728 197.998C232.19 201.222 229.953 204.209 226.731 204.671C223.509 205.132 220.522 202.894 220.06 199.672C219.599 196.449 221.836 193.462 225.057 193" stroke="#D2D8DF" stroke-width="2" stroke-linecap="round"/>
<path fill-rule="evenodd" clip-rule="evenodd" d="M205.687 223.844C205.687 226.52 203.518 228.689 200.844 228.689C198.168 228.689 196 226.52 196 223.844C196 221.169 198.168 219 200.844 219C203.518 219 205.687 221.169 205.687 223.844Z" fill="#EBECEE"/>
<path fill-rule="evenodd" clip-rule="evenodd" d="M57.0371 190.868C52.2752 190.384 48.9634 189.774 47.8245 184.524C46.6857 179.273 48.8213 175.413 47.6131 169.917C44.9163 162.7 40.3639 156.938 47.574 146.044C54.7841 135.151 51.5221 126.998 59.2735 125.851C69.1789 124.385 70.9174 135.202 67.4981 144.097C65.3397 149.712 69.0698 151.119 70.5361 156.559C73.141 166.223 66.6278 170.096 65.7839 173.02C64.9399 175.943 67.4347 182.545 65.4126 186.387C63.3905 190.228 62.6649 191.44 57.0371 190.868Z" fill="#C7D1DE"/>
<path d="M55.7246 203.5L57.2246 151.5L60.2246 137" stroke="#8C939D" stroke-linecap="round"/>
<path d="M57.2246 150L53.2246 143.5M57.2246 164L63.7246 158.5M56.2246 182.5L51.7246 175.5" stroke="#8C939D" stroke-linecap="round"/>
<path fill-rule="evenodd" clip-rule="evenodd" d="M76.6162 207.522C70.9555 206.026 54.2569 198.795 59.1399 190.331C64.0229 181.868 68.9058 179.431 64.0229 175.563C59.1399 171.695 62.6091 163.093 67.4364 159.552C72.2637 156.011 60.8321 145.464 66.0689 139.883C71.3056 134.302 88.0454 142.923 88.433 153.476C88.8206 164.028 92.7152 163.297 94.6945 168.062C96.6739 172.826 82.9625 179.978 84.9661 185.155C86.9697 190.331 98.6569 195.73 91.8115 202.704C84.9661 209.678 82.2769 209.017 76.6162 207.522Z" fill="#D2DAE5"/>
<path d="M75 217L79 166.475L75 148" stroke="#8C939D" stroke-linecap="round"/>
<path d="M76.7037 198L83 190.308M78.1852 174.538L73 167.615M77.4444 159.538L81.5185 153" stroke="#8C939D" stroke-linecap="round"/>
<path fill-rule="evenodd" clip-rule="evenodd" d="M179.95 207.5C184.681 207.02 198.828 203.78 195.413 197.883C191.997 191.987 188.17 189.989 192.427 187.907C196.683 185.825 194.433 179.96 190.728 177.254C187.022 174.547 197.089 168.707 193.187 164.645C189.286 160.583 175.01 164.718 173.973 171.512C172.937 178.306 169.802 177.498 167.858 180.41C165.915 183.322 176.639 189.131 174.648 192.308C172.656 195.485 162.732 197.971 167.853 203.073C172.975 208.175 175.219 207.979 179.95 207.5Z" fill="#D2DAE5"/>
<path d="M180.625 213.771L180.8 180.736L185.331 169.127" stroke="#8C939D" stroke-linecap="round"/>
<path d="M180.528 201.332L175.904 195.812M180.916 186.024L185.628 181.992M182.545 176.383L179.659 171.801" stroke="#8C939D" stroke-linecap="round"/>
<mask id="mask1_861_273776" style="mask-type:alpha" maskUnits="userSpaceOnUse" x="20" y="20" width="210" height="210">
<circle cx="125" cy="125" r="105" fill="#E7ECF1"/>
</mask>
<g mask="url(#mask1_861_273776)">
<path fill-rule="evenodd" clip-rule="evenodd" d="M173.103 68.038C173.129 58.2153 147.498 59.4689 137.607 60.0458C127.716 60.6228 127.325 47.1505 135.903 45.4717C144.481 43.7929 159.862 45.4018 167.92 43.8573C175.978 42.3129 166.242 32.0449 177.173 31.261C188.103 30.4771 210.571 32.4244 217.29 32.4338C227.845 32.4486 232.777 45.3461 214.29 45.2299C209.191 45.1979 207.747 56.4374 225.052 53.9839C235.912 52.4442 257.077 53.1926 261.294 58.321C263.713 61.2634 262.552 68.8813 258.051 72.9433C254.707 75.9608 244.425 76.1881 240.379 76.763C230.886 78.1115 232.408 87.3151 235.553 89.3162C242.994 94.0517 264.189 86.4356 264.291 98.6768C264.336 104.086 245.305 104.246 237.517 103.888C218.418 103.01 205.8 104.242 205.164 97.689C204.525 91.11 217.116 96.0064 216.788 87.9356C216.617 83.7181 217.833 74.8156 209.631 74.9778C220.86 74.7557 173.069 81.3044 173.103 68.038Z" fill="#EDF4FB"/>
<path fill-rule="evenodd" clip-rule="evenodd" d="M-24.8968 74.038C-24.8715 64.2153 -50.5022 65.4689 -60.3929 66.0458C-70.2836 66.6228 -70.675 53.1505 -62.0972 51.4717C-53.5193 49.7929 -38.1384 51.4018 -30.0802 49.8573C-22.0219 48.3129 -31.7576 38.0449 -20.8271 37.261C-9.89678 36.4771 12.5708 38.4244 19.2903 38.4338C29.8446 38.4486 34.777 51.3461 16.2896 51.2299C11.1913 51.1979 9.74731 62.4374 27.0522 59.9839C37.9119 58.4442 59.0774 59.1926 63.2941 64.321C65.7135 67.2634 64.5516 74.8813 60.0507 78.9433C56.7071 81.9608 46.4248 82.1881 42.3786 82.763C32.8861 84.1115 34.4079 93.3151 37.5526 95.3162C44.9939 100.052 66.1887 92.4356 66.2908 104.677C66.3359 110.086 47.3047 110.246 39.5172 109.888C20.4175 109.01 7.80048 110.242 7.16375 103.689C6.52454 97.11 19.1158 102.006 18.7883 93.9356C18.617 89.7181 19.8326 80.8156 11.6306 80.9778C22.86 80.7557 -24.9311 87.3044 -24.8968 74.038Z" fill="#EDF4FB"/>
</g>
<path fill-rule="evenodd" clip-rule="evenodd" d="M50.2987 160.01C36.1783 159.61 24.4102 170.731 24.0099 184.85C23.9987 185.252 23.9973 185.654 24.0043 186.055C24.0043 207.865 48.3608 228.043 49.3854 228.873C49.9027 229.317 50.6665 229.317 51.1838 228.873C52.2647 227.905 76.5917 205.707 76.5917 186.055C76.858 171.934 65.6255 160.27 51.5023 160.005C51.1006 159.998 50.6989 159.999 50.2987 160.01Z" fill="#7D838C"/>
<path fill-rule="evenodd" clip-rule="evenodd" d="M50.2987 198.76C43.4196 198.76 37.8428 193.183 37.8428 186.306C37.8428 179.426 43.4196 173.85 50.2987 173.85C57.1777 173.85 62.7532 179.426 62.7532 186.306C62.7532 193.183 57.1777 198.76 50.2987 198.76Z" fill="white"/>
<path d="M50 230C52.5 235.667 62.7 245 83.5 237C109.5 227 98 172 92 150C86 128 88 89.5 122 86C156 82.5 184.5 100 205.5 60" stroke="#7D838C" stroke-linecap="round" stroke-dasharray="2 2"/>
</svg>
