<svg width="23" height="22" viewBox="0 0 23 22" fill="none" xmlns="http://www.w3.org/2000/svg">
<g id="Group 427320588">
<path id="Vector" d="M1 21H21" stroke="#A2A3C3" stroke-width="1.5" stroke-miterlimit="10" stroke-linecap="round" stroke-linejoin="round"/>
<g id="Group 427320739">
<path id="Vector_2" d="M8.27823 11.5218L7.34107 10.5909C6.82692 10.3486 6.08786 10.4694 5.7022 10.8551L3.35347 13.2038C2.98046 13.5768 2.74701 14.3233 2.83502 14.8602L3.2345 17.2891C3.36315 18.0879 4.12617 18.851 4.92498 18.9796L7.35392 19.3791C7.8908 19.4671 8.63731 19.2336 9.01033 18.8606L11.3591 16.5119C11.7479 16.1231 11.8686 15.384 11.6263 14.8699L10.6923 13.9359" stroke="#A2A3C3" stroke-width="1.5" stroke-linecap="round" stroke-linejoin="round"/>
<path id="Vector 3445" d="M5.59621 16.6174L7.97209 16.9568C8.03441 16.9657 8.09728 16.9448 8.14179 16.9003L9.13174 15.9103" stroke="#A2A3C3" stroke-width="1.5" stroke-linecap="round"/>
<path id="Vector_3" d="M10.0675 11.8966L9.6564 11.4871C9.52787 11.4265 9.3431 11.4567 9.24669 11.5531L8.6595 12.1403C8.56625 12.2336 8.50789 12.4202 8.52989 12.5544L8.62976 13.1616C8.66193 13.3613 8.85268 13.5521 9.05238 13.5843L9.65962 13.6841C9.79384 13.7061 9.98046 13.6478 10.0737 13.5545L10.6609 12.9673C10.7581 12.8701 10.7883 12.6854 10.7277 12.5568L10.3174 12.1465C10.1924 12.0216 10.1917 12.0223 10.0675 11.8966Z" stroke="#A2A3C3" stroke-width="1.5" stroke-linecap="round" stroke-linejoin="round"/>
<path id="Vector_4" d="M10.1924 12.0215L16.5563 5.65752" stroke="#A2A3C3" stroke-width="1.5" stroke-linecap="round" stroke-linejoin="round"/>
<g id="Rectangle 3467773">
<mask id="path-6-inside-1_3034_43359" fill="white">
<rect x="17.2635" y="0.707031" width="6" height="4" rx="1" transform="rotate(45 17.2635 0.707031)"/>
</mask>
<rect x="17.2635" y="0.707031" width="6" height="4" rx="1" transform="rotate(45 17.2635 0.707031)" stroke="#A2A3C3" stroke-width="3" mask="url(#path-6-inside-1_3034_43359)"/>
</g>
</g>
<path id="Vector 3446" d="M1.49998 21C1.00119 20.3349 0.402887 18.7079 1.98838 17.5087C1.99593 17.503 2.00317 17.4968 2.00994 17.4902C2.18339 17.3206 2.60773 17 3 17" stroke="#A2A3C3" stroke-width="1.5" stroke-linecap="round" stroke-linejoin="round"/>
<path id="Vector 3447" d="M11 16.9998C11.3333 16.6664 12.2 16.0998 13 16.4998C13.8 16.8998 14 17.6659 14 17.9989C14 17.3322 14.4 15.8989 16 15.4989C17.1697 15.2065 17.8762 15.4307 18.2368 15.7027C18.3683 15.8019 18.6095 15.7909 18.6973 15.6514C19.1362 14.9542 19.9846 14 21 14" stroke="#A2A3C3" stroke-width="1.5" stroke-linecap="round" stroke-linejoin="round"/>
</g>
</svg>
