<svg width="20" height="22" viewBox="0 0 20 22" fill="none" xmlns="http://www.w3.org/2000/svg">
<g id="Group 427320256">
<path id="Vector" d="M8.4093 1.23253L3.18721 3.11276C1.98372 3.54282 1 4.90299 1 6.12314V13.5541C1 14.7342 1.81628 16.2844 2.81046 16.9945L7.31046 20.2049C8.78605 21.265 11.214 21.265 12.6895 20.2049L17.1895 16.9945C18.1837 16.2844 19 14.7342 19 13.5541V6.12314C19 4.89299 18.0163 3.53282 16.8128 3.10276L11.5907 1.23253C10.7012 0.92249 9.27791 0.92249 8.4093 1.23253Z" stroke="#F3722C" stroke-width="1.5" stroke-linecap="round" stroke-linejoin="round"/>
<path id="Vector_2" d="M8.76279 3.18602L4.70116 4.69021C3.76512 5.03425 3 6.12239 3 7.09851V13.0433C3 13.9874 3.63488 15.2275 4.40814 15.7956L7.90814 18.3639C9.05581 19.212 10.9442 19.212 12.0919 18.3639L15.5919 15.7956C16.3651 15.2275 17 13.9874 17 13.0433V7.09851C17 6.11439 16.2349 5.02625 15.2988 4.68221L11.2372 3.18602C10.5453 2.93799 9.43837 2.93799 8.76279 3.18602Z" stroke="#F3722C" stroke-width="1.5" stroke-linecap="round" stroke-linejoin="round"/>
<path id="Vector_3" d="M7 11.1279L8.90694 13L14 8" stroke="#F3722C" stroke-width="1.5" stroke-linecap="round" stroke-linejoin="round"/>
</g>
</svg>
