<svg width="24" height="24" viewBox="0 0 24 24" fill="none" xmlns="http://www.w3.org/2000/svg">
<path d="M6.40123 9.7H11.5987C12.4249 9.7 12.7891 9.88322 12.9737 10.0514C13.1708 10.2308 13.293 10.506 13.4051 10.9797C13.4051 10.9799 13.4052 10.98 13.4052 10.9801L14.0398 13.6846H3.96017L4.59475 10.9801C4.59479 10.98 4.59484 10.9798 4.59488 10.9796C4.70695 10.5059 4.82919 10.2308 5.02621 10.0514C5.21089 9.88322 5.57509 9.7 6.40123 9.7Z" stroke="#A2A3C3" stroke-width="1.4" stroke-linecap="round" stroke-linejoin="round"/>
<path d="M2.53845 12.2305H3.61538" stroke="#A2A3C3" stroke-width="1.4" stroke-linecap="round" stroke-linejoin="round"/>
<rect x="2.7" y="14.0086" width="12.6" height="4.52308" rx="0.7" stroke="#A2A3C3" stroke-width="1.4"/>
<path d="M7.38452 16.377H10.6153" stroke="#A2A3C3" stroke-width="1.4" stroke-linecap="round" stroke-linejoin="round"/>
<path d="M4.95907 16.2692H4.96391" stroke="#A2A3C3" stroke-width="1.4" stroke-linecap="round" stroke-linejoin="round"/>
<path d="M13.0361 16.2692H13.0409" stroke="#A2A3C3" stroke-width="1.4" stroke-linecap="round" stroke-linejoin="round"/>
<mask id="path-7-inside-1_3034_43428" fill="white">
<path d="M6.30774 19.7694C6.30774 20.6615 5.58451 21.3848 4.69235 21.3848C3.8002 21.3848 3.07697 20.6615 3.07697 19.7694C3.07697 18.8772 3.8002 18.154 4.69235 18.154C5.58451 18.154 6.30774 18.8772 6.30774 19.7694Z"/>
</mask>
<path d="M7.70774 20.4694C7.70774 21.7481 6.67111 22.7848 5.39235 22.7848L3.99235 22.7848C2.7136 22.7848 1.67697 21.7481 1.67697 20.4694L4.47697 19.7694C4.47697 19.8883 4.5734 19.9848 4.69235 19.9848L4.69235 19.9848C4.81131 19.9848 4.90774 19.8883 4.90774 19.7694L7.70774 20.4694ZM3.07697 18.154L6.30774 18.154L3.07697 18.154ZM5.39236 18.154C6.67111 18.154 7.70774 19.1906 7.70774 20.4694L7.70774 20.4694C7.70774 21.7481 6.67111 22.7848 5.39235 22.7848L4.69235 19.9848C4.81131 19.9848 4.90774 19.8883 4.90774 19.7694C4.90774 18.8772 4.81131 18.154 4.69236 18.154L5.39236 18.154ZM3.99235 22.7848C2.7136 22.7848 1.67697 21.7481 1.67697 20.4694L1.67697 20.4694C1.67697 19.1906 2.7136 18.154 3.99235 18.154L4.69235 18.154C4.5734 18.154 4.47697 18.8772 4.47697 19.7694C4.47697 19.8883 4.5734 19.9848 4.69235 19.9848L3.99235 22.7848Z" fill="#A2A3C3" mask="url(#path-7-inside-1_3034_43428)"/>
<mask id="path-9-inside-2_3034_43428" fill="white">
<path d="M14.9231 19.7694C14.9231 20.6615 14.1999 21.3848 13.3077 21.3848C12.4156 21.3848 11.6923 20.6615 11.6923 19.7694C11.6923 18.8772 12.4156 18.154 13.3077 18.154C14.1999 18.154 14.9231 18.8772 14.9231 19.7694Z"/>
</mask>
<path d="M16.3231 20.4694C16.3231 21.7481 15.2865 22.7848 14.0077 22.7848L12.6077 22.7848C11.329 22.7848 10.2923 21.7481 10.2923 20.4694L13.0923 19.7694C13.0923 19.8883 13.1888 19.9848 13.3077 19.9848L13.3077 19.9848C13.4267 19.9848 13.5231 19.8883 13.5231 19.7694L16.3231 20.4694ZM11.6923 18.154L14.9231 18.154L11.6923 18.154ZM14.0077 18.154C15.2865 18.154 16.3231 19.1906 16.3231 20.4694L16.3231 20.4694C16.3231 21.7481 15.2865 22.7848 14.0077 22.7848L13.3077 19.9848C13.4267 19.9848 13.5231 19.8883 13.5231 19.7694C13.5231 18.8772 13.4267 18.154 13.3077 18.154L14.0077 18.154ZM12.6077 22.7848C11.329 22.7848 10.2923 21.7481 10.2923 20.4694L10.2923 20.4694C10.2923 19.1906 11.329 18.154 12.6077 18.154L13.3077 18.154C13.1888 18.154 13.0923 18.8772 13.0923 19.7694C13.0923 19.8883 13.1888 19.9848 13.3077 19.9848L12.6077 22.7848Z" fill="#A2A3C3" mask="url(#path-9-inside-2_3034_43428)"/>
<path d="M12.4012 2.7H17.5987C18.4249 2.7 18.7891 2.88322 18.9737 3.0514C19.1708 3.23084 19.293 3.50596 19.4051 3.97972C19.4051 3.97986 19.4052 3.98 19.4052 3.98014L20.0398 6.68462H9.96017L10.5947 3.98014C10.5948 3.97995 10.5948 3.97976 10.5949 3.97956C10.707 3.5059 10.8292 3.23082 11.0262 3.0514C11.2109 2.88322 11.5751 2.7 12.4012 2.7Z" stroke="#A2A3C3" stroke-width="1.4" stroke-linecap="round" stroke-linejoin="round"/>
<path d="M8.53845 5.23047H9.61538" stroke="#A2A3C3" stroke-width="1.4" stroke-linecap="round" stroke-linejoin="round"/>
<path d="M20.3846 5.23047H21.4616" stroke="#A2A3C3" stroke-width="1.4" stroke-linecap="round" stroke-linejoin="round"/>
<path d="M9 9.5V8.4C9 7.6268 9.6268 7 10.4 7H19.6C20.3732 7 21 7.6268 21 8.4V10.6C21 11.3732 20.3732 12 19.6 12H13.9061" stroke="#A2A3C3" stroke-width="1.4"/>
<path d="M13.3845 9.37695H16.6153" stroke="#A2A3C3" stroke-width="1.4" stroke-linecap="round" stroke-linejoin="round"/>
<path d="M19.036 9.26923H19.0408" stroke="#A2A3C3" stroke-width="1.4" stroke-linecap="round" stroke-linejoin="round"/>
<mask id="path-17-inside-3_3034_43428" fill="white">
<path d="M20.9231 13.6151C20.9231 14.5072 20.1999 15.2305 19.3077 15.2305C18.4156 15.2305 17.6923 14.5072 17.6923 13.6151C17.6923 12.7229 18.4156 11.9997 19.3077 11.9997C20.1999 11.9997 20.9231 12.7229 20.9231 13.6151Z"/>
</mask>
<path d="M22.3231 14.3151C22.3231 15.5938 21.2865 16.6305 20.0077 16.6305L18.6077 16.6305C17.329 16.6305 16.2923 15.5938 16.2923 14.3151L19.0923 13.6151C19.0923 13.734 19.1888 13.8305 19.3077 13.8305L19.3077 13.8305C19.4267 13.8305 19.5231 13.734 19.5231 13.6151L22.3231 14.3151ZM17.6923 11.9997L20.9231 11.9997L17.6923 11.9997ZM20.0077 11.9997C21.2865 11.9997 22.3231 13.0363 22.3231 14.3151L22.3231 14.3151C22.3231 15.5938 21.2865 16.6305 20.0077 16.6305L19.3077 13.8305C19.4267 13.8305 19.5231 13.734 19.5231 13.6151C19.5231 12.7229 19.4267 11.9997 19.3077 11.9997L20.0077 11.9997ZM18.6077 16.6305C17.329 16.6305 16.2923 15.5938 16.2923 14.3151L16.2923 14.3151C16.2923 13.0363 17.329 11.9997 18.6077 11.9997L19.3077 11.9997C19.1888 11.9997 19.0923 12.7229 19.0923 13.6151C19.0923 13.734 19.1888 13.8305 19.3077 13.8305L18.6077 16.6305Z" fill="#A2A3C3" mask="url(#path-17-inside-3_3034_43428)"/>
</svg>
