<svg width="30" height="30" viewBox="0 0 30 30" fill="none" xmlns="http://www.w3.org/2000/svg">
<path d="M3.00006 14.416C8.62783 13.741 13.0001 8.89612 13.0001 3.00122" stroke="#595A8A" stroke-width="2" stroke-linecap="round" stroke-linejoin="round"/>
<path d="M13.0001 20L3.00006 20" stroke="#595A8A" stroke-width="2" stroke-linecap="round"/>
<path d="M27.0001 20H18.0001" stroke="#595A8A" stroke-width="2" stroke-linecap="round"/>
<path d="M17.0001 15L13.0001 15" stroke="#595A8A" stroke-width="2" stroke-linecap="round"/>
<path d="M17.0001 9L13.0001 9" stroke="#595A8A" stroke-width="2" stroke-linecap="round"/>
<path d="M17.0001 20L13.0001 20" stroke="#595A8A" stroke-width="2" stroke-linecap="round"/>
<path d="M8.00006 19L8.00006 13" stroke="#595A8A" stroke-width="2" stroke-linecap="round"/>
<path d="M26.0001 19L26.0001 15" stroke="#595A8A" stroke-width="2" stroke-linecap="round"/>
<path d="M4.00006 19L4.00006 15" stroke="#595A8A" stroke-width="2" stroke-linecap="round"/>
<path d="M22.0001 19L22.0001 13" stroke="#595A8A" stroke-width="2" stroke-linecap="round"/>
<path d="M13.0001 26.9996L13.0001 3" stroke="#595A8A" stroke-width="2" stroke-linecap="round"/>
<path d="M17.0001 26.9996L17.0001 3" stroke="#595A8A" stroke-width="2" stroke-linecap="round"/>
<path d="M17.0001 3.00122C17.0001 8.88112 21.3686 13.711 27.0001 14.416" stroke="#595A8A" stroke-width="2" stroke-linecap="round" stroke-linejoin="round"/>
</svg>
