<svg width="16" height="16" viewBox="0 0 16 16" fill="none" xmlns="http://www.w3.org/2000/svg">
<g id="ic/info">
<path id="Vector" d="M7.33301 10.0007H8.66634V11.334H7.33301V10.0007ZM7.33301 4.66732H8.66634V8.66732H7.33301V4.66732ZM7.99301 1.33398C4.31301 1.33398 1.33301 4.32065 1.33301 8.00065C1.33301 11.6807 4.31301 14.6673 7.99301 14.6673C11.6797 14.6673 14.6663 11.6807 14.6663 8.00065C14.6663 4.32065 11.6797 1.33398 7.99301 1.33398ZM7.99967 13.334C5.05301 13.334 2.66634 10.9473 2.66634 8.00065C2.66634 5.05398 5.05301 2.66732 7.99967 2.66732C10.9463 2.66732 13.333 5.05398 13.333 8.00065C13.333 10.9473 10.9463 13.334 7.99967 13.334Z" fill="#F14730"/>
</g>
</svg>
