<svg width="24" height="24" viewBox="0 0 24 24" fill="none" xmlns="http://www.w3.org/2000/svg">
<rect x="3" y="3" width="18" height="18" rx="3" stroke="#F3722C" stroke-width="2" stroke-linecap="round" stroke-linejoin="round" stroke-dasharray="8 8"/>
<path d="M7.5 18C8.32843 18 9 17.3284 9 16.5C9 15.6716 8.32843 15 7.5 15C6.67157 15 6 15.6716 6 16.5C6 17.3284 6.67157 18 7.5 18Z" stroke="#F3722C" stroke-width="1.5" stroke-linecap="round" stroke-linejoin="round"/>
<path d="M14 6.72561L14.9859 9.22538C14.9859 9.22538 14.9859 9.22538 14.9859 9.22538C15.1282 9.5862 15.4138 9.8718 15.7746 10.0141L18.2744 11L15.7746 11.9859C15.4138 12.1282 15.1282 12.4138 14.9859 12.7746L15.8966 13.1338L14.9859 12.7746L14 15.2744L13.0141 12.7746C12.8718 12.4138 12.5862 12.1282 12.2254 11.9859L11.8864 12.8454L12.2254 11.9859L9.72561 11L12.2254 10.0141L11.8585 9.08384L12.2254 10.0141C12.5862 9.8718 12.8718 9.58619 13.0141 9.22538L14 6.72561Z" stroke="#F3722C" stroke-width="2"/>
</svg>
