<svg xmlns="http://www.w3.org/2000/svg" width="16" height="16" viewBox="0 0 16 16">
  <g id="dashboard-1-8" transform="translate(-491 -440)">
    <circle id="dashboard-1-8-2" data-name="dashboard-1-8" cx="8" cy="8" r="8" transform="translate(491 440)" fill="none"/>
    <path id="bx-sync" d="M11.439,6.106h.008a4.028,4.028,0,0,1,3.13,3.131,4.073,4.073,0,0,1,0,1.623,4.005,4.005,0,0,1-1.1,2.034l1.138,1.138a5.637,5.637,0,0,0-1.788-9.174,5.571,5.571,0,0,0-1.058-.328c-.11-.023-.221-.035-.332-.051V2L8.219,5.219l3.219,3.219Zm-6,6.136a5.7,5.7,0,0,0,.52.958,5.571,5.571,0,0,0,.687.832,5.663,5.663,0,0,0,1.79,1.208,5.571,5.571,0,0,0,1.058.328c.134.027.272.045.409.063V18l3.219-3.219L9.907,11.561V14c-.028,0-.058,0-.086-.009A4.022,4.022,0,0,1,7.788,7.2L6.651,6.065a5.639,5.639,0,0,0-1.208,6.177Z" transform="translate(488.628 438)" fill="#aaa"/>
  </g>
</svg>
