<svg width="30" height="30" viewBox="0 0 30 30" fill="none" xmlns="http://www.w3.org/2000/svg">
<path d="M15.2205 18.9975C15.0705 18.9816 14.9145 18.9814 14.7644 18.9971C12.664 18.8805 11 17.1479 11 15C11 12.781 12.781 11 15 11C17.2153 11 18.9981 12.7959 19 14.9965C18.9827 17.1567 17.3083 18.8973 15.2205 18.9975Z" stroke="#28283E" stroke-width="2" stroke-linecap="round" stroke-linejoin="round"/>
<path d="M9 4C10.661 4 11.9981 5.34626 12 6.99641C11.9866 8.61529 10.7365 9.91505 9.18152 9.99751C9.05809 9.98547 8.93089 9.98533 8.80738 9.99709C7.23987 9.90216 6 8.6067 6 7C6 5.33523 7.33523 4 9 4Z" stroke="#28283E" stroke-width="2" stroke-linecap="round" stroke-linejoin="round"/>
<path d="M21 4C22.661 4 23.9981 5.34626 24 6.99641C23.9866 8.61529 22.7365 9.91505 21.1815 9.99751C21.0581 9.98547 20.9309 9.98533 20.8074 9.99709C19.2399 9.90216 18 8.6067 18 7C18 5.33523 19.3352 4 21 4Z" stroke="#28283E" stroke-width="2" stroke-linecap="round" stroke-linejoin="round"/>
<mask id="path-4-inside-1_611_258617" fill="white">
<path fill-rule="evenodd" clip-rule="evenodd" d="M21.8226 22.5C20.9563 19.801 18.6631 18 16.0927 18H13.9065C11.3361 18 9.04291 19.801 8.17657 22.5C8.05973 22.864 8 23.2478 8 23.6344C8 25.4932 9.35103 27 11.0176 27H18.9816C19.3282 27 19.6723 26.9334 19.9987 26.8031C21.5677 26.1766 22.3843 24.25 21.8226 22.5Z"/>
</mask>
<path d="M21.8226 22.5L19.9183 23.1112L19.9183 23.1112L21.8226 22.5ZM8.17657 22.5L6.27227 21.8888V21.8888L8.17657 22.5ZM19.9987 26.8031L20.7403 28.6605H20.7403L19.9987 26.8031ZM16.0927 20C17.6792 20 19.2808 21.125 19.9183 23.1112L23.7269 21.8888C22.6318 18.477 19.6469 16 16.0927 16V20ZM13.9065 20H16.0927V16H13.9065V20ZM10.0809 23.1112C10.7184 21.125 12.32 20 13.9065 20V16C10.3523 16 7.36739 18.477 6.27227 21.8888L10.0809 23.1112ZM10 23.6344C10 23.4528 10.0282 23.2754 10.0809 23.1112L6.27227 21.8888C6.09129 22.4526 6 23.0427 6 23.6344H10ZM11.0176 25C10.6553 25 10 24.5995 10 23.6344H6C6 26.3868 8.04675 29 11.0176 29V25ZM18.9816 25H11.0176V29H18.9816V25ZM19.257 24.9457C19.1632 24.9831 19.0706 25 18.9816 25V29C19.5858 29 20.1813 28.8837 20.7403 28.6605L19.257 24.9457ZM19.9183 23.1112C20.2035 23.9998 19.7201 24.7608 19.257 24.9457L20.7403 28.6605C23.4154 27.5924 24.5651 24.5002 23.7269 21.8888L19.9183 23.1112Z" fill="#28283E" mask="url(#path-4-inside-1_611_258617)"/>
<path d="M4.13091 16L3.18912 15.6638H3.18912L4.13091 16ZM12 20C12.5523 20 13 19.5523 13 19C13 18.4477 12.5523 18 12 18V20ZM11 14C11.5523 14 12 13.5523 12 13C12 12.4477 11.5523 12 11 12V14ZM8.37908 14H10V12H8.37908V14ZM5.07271 16.3362C5.57341 14.9335 6.89757 14 8.37908 14V12C6.04928 12 3.97303 13.4678 3.18912 15.6638L5.07271 16.3362ZM5 16.7563C5 16.613 5.02461 16.4709 5.07271 16.3362L3.18912 15.6638C3.06396 16.0144 3 16.384 3 16.7563H5ZM6.23727 18C5.55667 18 5 17.4459 5 16.7563H3C3 18.545 4.44666 20 6.23727 20V18ZM6.23727 20H10V18H6.23727V20ZM10 20H12V18H10V20ZM10 14H11V12H10V14Z" fill="#28283E"/>
<path d="M25.8691 16L26.8109 15.6638H26.8109L25.8691 16ZM18 20C17.4477 20 17 19.5523 17 19C17 18.4477 17.4477 18 18 18V20ZM19 14C18.4477 14 18 13.5523 18 13C18 12.4477 18.4477 12 19 12V14ZM21.6209 14H20V12H21.6209V14ZM24.9273 16.3362C24.4266 14.9335 23.1024 14 21.6209 14V12C23.9507 12 26.027 13.4678 26.8109 15.6638L24.9273 16.3362ZM25 16.7563C25 16.613 24.9754 16.4709 24.9273 16.3362L26.8109 15.6638C26.936 16.0144 27 16.384 27 16.7563H25ZM23.7627 18C24.4433 18 25 17.4459 25 16.7563H27C27 18.545 25.5533 20 23.7627 20V18ZM23.7627 20H20V18H23.7627V20ZM20 20H18V18H20V20ZM20 14H19V12H20V14Z" fill="#28283E"/>
</svg>
