<svg width="24" height="24" viewBox="0 0 24 24" fill="none" xmlns="http://www.w3.org/2000/svg">
<path d="M2 21H22" stroke="#A2A3C3" stroke-width="1.5" stroke-miterlimit="10" stroke-linecap="round" stroke-linejoin="round"/>
<path d="M19 20.7996L19 15" stroke="#A2A3C3" stroke-width="1.5" stroke-miterlimit="10" stroke-linecap="round" stroke-linejoin="round"/>
<rect x="17.25" y="5.75" width="3.5" height="8.5" rx="1.75" stroke="#A2A3C3" stroke-width="1.5"/>
<path d="M8.52474 4.76063C8.81382 3.58021 9.87189 2.75 11.0872 2.75C12.3168 2.75 13.3833 3.59942 13.6585 4.79782L15.2574 11.762C15.6673 13.5472 14.3111 15.25 12.4795 15.25H9.58829C7.73968 15.25 6.38017 13.5174 6.81991 11.7218L8.52474 4.76063Z" stroke="#A2A3C3" stroke-width="1.5"/>
<path d="M11 21L11 7" stroke="#A2A3C3" stroke-width="1.5" stroke-miterlimit="10" stroke-linecap="round" stroke-linejoin="round"/>
<path d="M10.9998 14.0605L12.9678 11" stroke="#A2A3C3" stroke-width="1.5" stroke-miterlimit="10" stroke-linecap="round" stroke-linejoin="round"/>
<path d="M10 9L11 10" stroke="#A2A3C3" stroke-width="1.5" stroke-miterlimit="10" stroke-linecap="round" stroke-linejoin="round"/>
<mask id="path-8-inside-1_1629_35239" fill="white">
<path fill-rule="evenodd" clip-rule="evenodd" d="M8.29236 7.39609C8.30877 6.98778 8.32771 6.51688 8.5 6C8.69381 5.41856 8.88226 4.98267 9.03104 4.63852C9.34871 3.90371 9.48555 3.5872 9.10764 3.16538C8.4668 2.45009 7.53596 2 6.5 2C5.52087 2 4.63564 2.40206 4.00041 3.05009C3.83873 3.01724 3.67138 3 3.5 3C2.11929 3 1 4.11929 1 5.5C1 6.88071 2.11929 8 3.5 8C3.67138 8 3.83873 7.98276 4.00041 7.94991C4.63564 8.59794 5.52087 9 6.5 9C6.73551 9 6.96559 8.97674 7.18807 8.93239C8.23902 8.72288 8.26114 8.1727 8.29236 7.39609Z"/>
</mask>
<path d="M8.5 6L7.07697 5.52566V5.52566L8.5 6ZM8.29236 7.39609L9.79115 7.45635V7.45634L8.29236 7.39609ZM9.03104 4.63852L7.6542 4.04329L7.6542 4.04329L9.03104 4.63852ZM9.10764 3.16538L10.2249 2.16447L10.2249 2.16446L9.10764 3.16538ZM4.00041 3.05009L3.70176 4.52006L4.50082 4.6824L5.0716 4.10012L4.00041 3.05009ZM4.00041 7.94991L5.0716 6.89988L4.50082 6.3176L3.70176 6.47994L4.00041 7.94991ZM7.18807 8.93239L6.89481 7.46133L6.89481 7.46133L7.18807 8.93239ZM7.07697 5.52566C6.82982 6.26712 6.80973 6.93386 6.79357 7.33584L9.79115 7.45634C9.80782 7.04171 9.82559 6.76664 9.92303 6.47434L7.07697 5.52566ZM7.6542 4.04329C7.50321 4.39255 7.29263 4.87869 7.07697 5.52566L9.92303 6.47434C10.095 5.95844 10.2613 5.57279 10.4079 5.23376L7.6542 4.04329ZM7.99043 4.1663C7.99436 4.17069 7.93235 4.10317 7.88481 3.96804C7.86113 3.90074 7.84609 3.8308 7.83971 3.76228C7.83346 3.69522 7.83661 3.6416 7.84074 3.60695C7.84763 3.54916 7.85773 3.54422 7.8232 3.63763C7.7886 3.73123 7.73861 3.84804 7.6542 4.04329L10.4079 5.23376C10.529 4.95357 10.7609 4.45495 10.8196 3.96221C10.8559 3.65817 10.8374 3.32084 10.7147 2.97232C10.5965 2.63624 10.4099 2.37098 10.2249 2.16447L7.99043 4.1663ZM6.5 3.5C7.09184 3.5 7.62209 3.75517 7.99043 4.1663L10.2249 2.16446C9.31151 1.145 7.98008 0.5 6.5 0.5V3.5ZM5.0716 4.10012C5.43633 3.72804 5.94018 3.5 6.5 3.5V0.5C5.10155 0.5 3.83495 1.07609 2.92922 2.00006L5.0716 4.10012ZM3.5 4.5C3.57051 4.5 3.63782 4.50707 3.70176 4.52006L4.29905 1.58012C4.03963 1.52742 3.77224 1.5 3.5 1.5V4.5ZM2.5 5.5C2.5 4.94772 2.94772 4.5 3.5 4.5V1.5C1.29086 1.5 -0.5 3.29086 -0.5 5.5H2.5ZM3.5 6.5C2.94772 6.5 2.5 6.05228 2.5 5.5H-0.5C-0.5 7.70914 1.29086 9.5 3.5 9.5V6.5ZM3.70176 6.47994C3.63782 6.49293 3.57051 6.5 3.5 6.5V9.5C3.77224 9.5 4.03963 9.47258 4.29905 9.41988L3.70176 6.47994ZM6.5 7.5C5.94018 7.5 5.43633 7.27196 5.0716 6.89988L2.92922 8.99994C3.83495 9.92391 5.10155 10.5 6.5 10.5V7.5ZM6.89481 7.46133C6.76837 7.48654 6.63651 7.5 6.5 7.5V10.5C6.83451 10.5 7.16281 10.4669 7.48132 10.4034L6.89481 7.46133ZM6.79357 7.33584C6.78953 7.4364 6.7864 7.51254 6.78201 7.58235C6.77771 7.65069 6.77316 7.69593 6.76882 7.72708C6.75949 7.79396 6.75688 7.74915 6.80268 7.66432C6.8271 7.61909 6.86034 7.57152 6.90212 7.52742C6.94355 7.48368 6.98246 7.45487 7.00944 7.43815C7.03499 7.42232 7.04397 7.42093 7.02588 7.42747C7.00727 7.4342 6.96612 7.44712 6.89481 7.46133L7.48132 10.4034C8.2532 10.2496 9.01149 9.88794 9.44255 9.08949C9.7823 8.46015 9.77993 7.73533 9.79115 7.45635L6.79357 7.33584Z" fill="#A2A3C3" mask="url(#path-8-inside-1_1629_35239)"/>
</svg>
