<svg width="24" height="24" viewBox="0 0 24 24" fill="none" xmlns="http://www.w3.org/2000/svg">
<path d="M2.24799 8.41531C2.06037 6.63022 3.35538 5.03102 5.14047 4.8434L6.13499 4.73887C7.92008 4.55125 9.51928 5.84626 9.7069 7.63135L10.034 10.7432C10.0626 11.0155 10.0567 11.2902 10.0164 11.5609L9.5423 14.75C9.52553 14.8628 9.43456 14.9499 9.32115 14.9618L4.14941 15.5054C4.036 15.5173 3.9289 15.451 3.88904 15.3441L2.76222 12.3234C2.66656 12.0669 2.60367 11.7994 2.57506 11.5272L2.24799 8.41531Z" stroke="#A2A3C3" stroke-width="1.5"/>
<path d="M9.87526 18.8039C9.99778 19.9696 9.15214 21.0139 7.98648 21.1364L6.73784 21.2676C5.57218 21.3901 4.52791 20.5445 4.40539 19.3788L4.33834 18.7409C4.30821 18.4541 4.41122 18.1713 4.61453 17.9715L9.3781 17.4708C9.6185 17.624 9.77808 17.8792 9.80821 18.1659L9.87526 18.8039Z" stroke="#A2A3C3" stroke-width="1.5"/>
<path d="M14.2931 5.63461C14.4807 3.84951 16.0799 2.55451 17.865 2.74213L18.8595 2.84666C20.6446 3.03428 21.9396 4.63348 21.752 6.41857L21.425 9.53046C21.3963 9.80267 21.3335 10.0702 21.2378 10.3266L20.111 13.3474C20.0711 13.4542 19.964 13.5206 19.8506 13.5087L14.6789 12.9651C14.5655 12.9532 14.4745 12.866 14.4577 12.7532L13.9836 9.56417C13.9433 9.29344 13.9374 9.01871 13.966 8.7465L14.2931 5.63461Z" stroke="#A2A3C3" stroke-width="1.5"/>
<path d="M19.5944 17.3815C19.4719 18.5472 18.4276 19.3928 17.2619 19.2703L16.0133 19.139C14.8476 19.0165 14.002 17.9723 14.1245 16.8066L14.1916 16.1686C14.2217 15.8819 14.3813 15.6266 14.6217 15.4735L19.3852 15.9742C19.5886 16.1739 19.6916 16.4568 19.6614 16.7435L19.5944 17.3815Z" stroke="#A2A3C3" stroke-width="1.5"/>
</svg>
