<svg width="24" height="24" viewBox="0 0 24 24" fill="none" xmlns="http://www.w3.org/2000/svg">
<path fill-rule="evenodd" clip-rule="evenodd" d="M7 3.92891C7 3.77392 7 3.69643 6.94944 3.65166C6.89888 3.60689 6.82333 3.6161 6.67221 3.63452C6.62912 3.63977 6.58648 3.64523 6.54429 3.65091C5.39959 3.80481 4.51219 4.12385 3.81802 4.81802C3.12385 5.51219 2.80481 6.39959 2.65091 7.54429C2.49999 8.6668 2.49999 10.1085 2.5 11.9613V12V12.0387C2.49999 13.8915 2.49999 15.3332 2.65091 16.4557C2.80481 17.6004 3.12385 18.4878 3.81802 19.182C4.51219 19.8762 5.39959 20.1952 6.54429 20.3491C7.6668 20.5 9.10845 20.5 10.9613 20.5H11H13H13.0387C14.8915 20.5 16.3332 20.5 17.4557 20.3491C18.6004 20.1952 19.4878 19.8762 20.182 19.182C20.8762 18.4878 21.1952 17.6004 21.3491 16.4557C21.5 15.3332 21.5 13.8915 21.5 12.0387V12V11.9613C21.5 10.1085 21.5 8.6668 21.3491 7.54429C21.1952 6.39959 20.8762 5.51219 20.182 4.81802C19.4878 4.12385 18.6004 3.80481 17.4557 3.65091C17.4135 3.64523 17.3709 3.63977 17.3278 3.63452C17.1767 3.6161 17.1011 3.60689 17.0506 3.65166C17 3.69643 17 3.77392 17 3.92891L17 4.3332C17 4.46107 17 4.525 17.0374 4.56749C17.0747 4.60997 17.1395 4.6183 17.269 4.63496C17.2869 4.63726 17.3047 4.6396 17.3225 4.64199C18.3563 4.78098 18.9975 5.04772 19.4749 5.52513C19.9523 6.00253 20.219 6.64373 20.358 7.67754C20.4989 8.72573 20.5 10.1002 20.5 12C20.5 13.8998 20.4989 15.2743 20.358 16.3225C20.219 17.3563 19.9523 17.9975 19.4749 18.4749C18.9975 18.9523 18.3563 19.219 17.3225 19.358C16.2743 19.4989 14.8998 19.5 13 19.5H11C9.10025 19.5 7.72573 19.4989 6.67754 19.358C5.64373 19.219 5.00253 18.9523 4.52513 18.4749C4.04772 17.9975 3.78098 17.3563 3.64199 16.3225C3.50106 15.2743 3.5 13.8998 3.5 12C3.5 10.1002 3.50106 8.72573 3.64199 7.67754C3.78098 6.64373 4.04772 6.00253 4.52513 5.52513C5.00253 5.04772 5.64373 4.78098 6.67754 4.64199C6.69527 4.6396 6.71309 4.63726 6.73101 4.63496C6.86051 4.6183 6.92526 4.60997 6.96263 4.56749C7 4.525 7 4.46107 7 4.3332L7 3.92891ZM10 4.20008C10 4.34186 10 4.41274 10.044 4.45669C10.088 4.50064 10.159 4.50054 10.3009 4.50034C10.5257 4.50002 10.7586 4.5 11 4.5H13C13.2414 4.5 13.4743 4.50002 13.6991 4.50034C13.841 4.50054 13.912 4.50064 13.956 4.45669C14 4.41274 14 4.34186 14 4.20008L14 3.80002C14 3.65893 14 3.58839 13.9561 3.54447C13.9123 3.50055 13.8418 3.50046 13.7009 3.50027C13.4862 3.5 13.2655 3.5 13.0387 3.5H13H11H10.9613C10.7345 3.5 10.5138 3.5 10.2991 3.50027C10.1582 3.50046 10.0877 3.50055 10.0439 3.54447C10 3.58839 10 3.65893 10 3.80002L10 4.20008Z" fill="#6A7076"/>
<path d="M8.5 2.5L8.5 6.5" stroke="#6A7076" stroke-linecap="round"/>
<path d="M15.5 2.5L15.5 6.5" stroke="#6A7076" stroke-linecap="round"/>
<circle cx="7.5" cy="10.5" r="0.5" fill="#6A7076"/>
<circle cx="10.5" cy="10.5" r="0.5" fill="#6A7076"/>
<circle cx="13.5" cy="10.5" r="0.5" fill="#6A7076"/>
<circle cx="16.5" cy="10.5" r="0.5" fill="#6A7076"/>
<circle cx="7.5" cy="13.5" r="0.5" fill="#6A7076"/>
<circle cx="10.5" cy="13.5" r="0.5" fill="#6A7076"/>
<circle cx="13.5" cy="13.5" r="0.5" fill="#6A7076"/>
<circle cx="16.5" cy="13.5" r="0.5" fill="#6A7076"/>
<circle cx="7.5" cy="16.5" r="0.5" fill="#6A7076"/>
<circle cx="10.5" cy="16.5" r="0.5" fill="#6A7076"/>
<circle cx="13.5" cy="16.5" r="0.5" fill="#6A7076"/>
<circle cx="16.5" cy="16.5" r="0.5" fill="#6A7076"/>
</svg>
