<svg width="34" height="34" viewBox="0 0 34 34" fill="none" xmlns="http://www.w3.org/2000/svg">
<circle cx="17" cy="17" r="17" fill="#A98BFF"/>
<path d="M17 27L17 11" stroke="white" stroke-width="1.5" stroke-linecap="round" stroke-linejoin="round"/>
<path d="M20 27L20 12" stroke="white" stroke-width="1.5" stroke-linecap="round" stroke-linejoin="round"/>
<path d="M27 19L27 27" stroke="white" stroke-width="1.5" stroke-linecap="round" stroke-linejoin="round"/>
<path d="M14 27L14 12" stroke="white" stroke-width="1.5" stroke-linecap="round" stroke-linejoin="round"/>
<path d="M7 19L10 16" stroke="white" stroke-width="1.5" stroke-linecap="round" stroke-linejoin="round"/>
<path d="M7 19L7 27" stroke="white" stroke-width="1.5" stroke-linecap="round" stroke-linejoin="round"/>
<path d="M7 27H27" stroke="white" stroke-width="1.5" stroke-miterlimit="10" stroke-linecap="round" stroke-linejoin="round"/>
<path d="M23 10C23 8.34315 20.3137 7 17 7C13.6863 7 11 8.34315 11 10" stroke="white" stroke-width="1.5" stroke-linecap="round"/>
<path d="M24 14C24 12.3431 20.866 11 17 11C13.134 11 10 12.3431 10 14" stroke="white" stroke-width="1.5" stroke-linecap="round"/>
<path d="M24 18C24 16.3431 20.866 15 17 15C13.134 15 10 16.3431 10 18" stroke="white" stroke-width="1.5" stroke-linecap="round"/>
<path d="M24 21C24 19.8954 20.866 19 17 19C13.134 19 10 19.8954 10 21" stroke="white" stroke-width="1.5" stroke-linecap="round"/>
<path d="M24 24C24 23.4477 20.866 23 17 23C13.134 23 10 23.4477 10 24" stroke="white" stroke-width="1.5" stroke-linecap="round"/>
<path d="M24 14L24 27" stroke="white" stroke-width="1.5" stroke-linecap="round" stroke-linejoin="round"/>
<path d="M10 14L10 27" stroke="white" stroke-width="1.5" stroke-linecap="round" stroke-linejoin="round"/>
<path d="M24 16L27 19" stroke="white" stroke-width="1.5" stroke-linecap="round" stroke-linejoin="round"/>
</svg>
