<svg width="34" height="34" viewBox="0 0 34 34" fill="none" xmlns="http://www.w3.org/2000/svg">
<circle cx="17" cy="17" r="17" fill="#CA5A11"/>
<path d="M7 27H27" stroke="white" stroke-width="1.5" stroke-miterlimit="10" stroke-linecap="round" stroke-linejoin="round"/>
<path d="M26 16L26 27" stroke="white" stroke-width="1.5" stroke-linecap="round" stroke-linejoin="round"/>
<path d="M11 16H8" stroke="white" stroke-width="1.5" stroke-linecap="round" stroke-linejoin="round"/>
<path d="M26 16H23" stroke="white" stroke-width="1.5" stroke-linecap="round" stroke-linejoin="round"/>
<path d="M11 19H8" stroke="white" stroke-width="1.5" stroke-linecap="round" stroke-linejoin="round"/>
<path d="M26 19H23" stroke="white" stroke-width="1.5" stroke-linecap="round" stroke-linejoin="round"/>
<path d="M8 16L8 27" stroke="white" stroke-width="1.5" stroke-linecap="round" stroke-linejoin="round"/>
<path d="M11 27C11 25.2644 11 17.8403 11 15.1791C11 14.5901 11.3236 14.0513 11.8425 13.7724L16.2425 11.4072C16.7155 11.1529 17.2845 11.1529 17.7575 11.4072L22.1575 13.7724C22.6764 14.0513 23 14.5901 23 15.1791C23 17.8403 23 25.2644 23 27" stroke="white" stroke-width="1.5" stroke-linecap="round" stroke-linejoin="round"/>
<path d="M14.8701 18.948H19.1301V19.638H17.4381C17.6061 20.076 18.3681 20.31 19.1901 20.37V21.06C18.2961 21.006 17.4801 20.76 16.9941 20.322C16.5081 20.76 15.6921 21.006 14.7981 21.06V20.37C15.6081 20.322 16.3761 20.076 16.5441 19.638H14.8701V18.948ZM17.4021 22.014V22.368C17.9781 22.392 18.4461 22.482 18.7641 22.656C19.0761 22.83 19.2381 23.082 19.2381 23.454C19.2381 23.826 19.0761 24.078 18.7641 24.246C18.3741 24.468 17.7621 24.546 17.0061 24.546C16.2501 24.546 15.6381 24.468 15.2481 24.246C14.9421 24.078 14.7741 23.826 14.7741 23.454C14.7741 23.082 14.9421 22.83 15.2481 22.656C15.5661 22.482 16.0281 22.398 16.5921 22.368V22.014H14.5221V21.312H19.4781V22.014H17.4021ZM15.5961 23.454C15.5961 23.562 15.6501 23.646 15.7581 23.7C15.9801 23.82 16.3941 23.85 17.0061 23.85C17.6181 23.85 18.0321 23.82 18.2541 23.7C18.3621 23.646 18.4161 23.562 18.4161 23.454C18.4161 23.346 18.3621 23.262 18.2541 23.202C18.0321 23.088 17.6181 23.052 17.0061 23.052C16.3941 23.052 15.9801 23.088 15.7581 23.202C15.6501 23.262 15.5961 23.346 15.5961 23.454Z" fill="white"/>
<circle cx="17" cy="16" r="1" stroke="white" stroke-width="1.5"/>
<path d="M17 7L17 11" stroke="white" stroke-width="1.5" stroke-miterlimit="10" stroke-linecap="round" stroke-linejoin="round"/>
<path d="M17 7H19C19.5523 7 20 7.44772 20 8V8C20 8.55228 19.5523 9 19 9H17" stroke="white" stroke-width="1.5"/>
</svg>
