<svg width="34" height="34" viewBox="0 0 34 34" fill="none" xmlns="http://www.w3.org/2000/svg">
<circle cx="17" cy="17" r="17" fill="#5850EC"/>
<path d="M7 27H27" stroke="white" stroke-width="1.5" stroke-miterlimit="10" stroke-linecap="round" stroke-linejoin="round"/>
<path d="M17 14L17 20" stroke="white" stroke-width="1.5" stroke-linecap="round" stroke-linejoin="round"/>
<path d="M20.2002 14L20.2002 20" stroke="white" stroke-width="1.5" stroke-linecap="round" stroke-linejoin="round"/>
<path d="M23.4004 14L23.4004 20" stroke="white" stroke-width="1.5" stroke-linecap="round" stroke-linejoin="round"/>
<path d="M13.7998 14L13.7998 20" stroke="white" stroke-width="1.5" stroke-linecap="round" stroke-linejoin="round"/>
<path d="M10.5996 14L10.5996 20" stroke="white" stroke-width="1.5" stroke-linecap="round" stroke-linejoin="round"/>
<path d="M7 14C7 12.9756 7 12.0616 7 11.3896C7 10.6951 7.44796 10.0807 8.10888 9.86758L16.5089 7.1584C16.8282 7.05541 17.1718 7.05541 17.4911 7.1584L25.8911 9.86758C26.552 10.0807 27 10.6951 27 11.3896C27 12.0616 27 12.9756 27 14" stroke="white" stroke-width="1.5" stroke-linecap="round" stroke-linejoin="round"/>
<mask id="path-9-inside-1_1629_36458" fill="white">
<path d="M7.40039 23.2C7.40039 21.4327 8.83308 20 10.6004 20H23.4004C25.1677 20 26.6004 21.4327 26.6004 23.2V27.2H7.40039V23.2Z"/>
</mask>
<path d="M5.90039 23.2C5.90039 20.6043 8.00465 18.5 10.6004 18.5H23.4004C25.9961 18.5 28.1004 20.6043 28.1004 23.2L25.1004 23.2C25.1004 22.2611 24.3393 21.5 23.4004 21.5H10.6004C9.66151 21.5 8.90039 22.2611 8.90039 23.2L5.90039 23.2ZM26.6004 27.2H7.40039H26.6004ZM5.90039 27.2V23.2C5.90039 20.6043 8.00465 18.5 10.6004 18.5L10.6004 21.5C9.66151 21.5 8.90039 22.2611 8.90039 23.2V27.2H5.90039ZM23.4004 18.5C25.9961 18.5 28.1004 20.6043 28.1004 23.2V27.2H25.1004V23.2C25.1004 22.2611 24.3393 21.5 23.4004 21.5V18.5Z" fill="white" mask="url(#path-9-inside-1_1629_36458)"/>
<path d="M27 14L7 14" stroke="white" stroke-width="1.5" stroke-linecap="round" stroke-linejoin="round"/>
<path d="M16.993 10.8H17.0074" stroke="white" stroke-width="1.5" stroke-linecap="round" stroke-linejoin="round"/>
</svg>
