<svg width="34" height="34" viewBox="0 0 34 34" fill="none" xmlns="http://www.w3.org/2000/svg">
<circle cx="17" cy="17" r="17" fill="#FF5D4D"/>
<path d="M12.5 12.6695V11.6995C12.5 9.44952 14.31 7.23952 16.56 7.02952C19.24 6.76952 21.5 8.87952 21.5 11.5095V12.8895" stroke="white" stroke-width="1.5" stroke-miterlimit="10" stroke-linecap="round" stroke-linejoin="round"/>
<path d="M13.9998 27H19.9998C24.0198 27 24.7398 25.39 24.9498 23.43L25.6998 17.43C25.9698 14.99 25.2698 13 20.9998 13H12.9998C8.72983 13 8.02983 14.99 8.29983 17.43L9.04983 23.43C9.25983 25.39 9.97983 27 13.9998 27Z" stroke="white" stroke-width="1.5" stroke-miterlimit="10" stroke-linecap="round" stroke-linejoin="round"/>
<path d="M8.65234 18.7314C9.2282 17.6796 10.5043 17 12.9997 17H20.9997C23.495 17 24.7711 17.6796 25.347 18.7314" stroke="white" stroke-width="1.5" stroke-miterlimit="10" stroke-linecap="round" stroke-linejoin="round"/>
<path d="M14.7598 20V23.55" stroke="white" stroke-width="1.5" stroke-linecap="round"/>
<path d="M19.3604 20V23.55" stroke="white" stroke-width="1.5" stroke-linecap="round"/>
</svg>
