<svg width="24" height="24" viewBox="0 0 24 24" fill="none" xmlns="http://www.w3.org/2000/svg">
<path d="M9.92833 2.52143L3.53683 6.37876C1.48772 7.61546 1.48772 10.3833 3.53683 11.62L9.92833 15.4773C11.075 16.1742 12.9648 16.1742 14.1115 15.4773L20.4711 11.62C22.5096 10.3833 22.5096 7.62528 20.4711 6.38858L14.1115 2.53125C12.9648 1.82456 11.075 1.82456 9.92833 2.52143Z" stroke="#F3722C" stroke-width="1.5" stroke-linecap="round" stroke-linejoin="round"/>
<path d="M22 16V9" stroke="#F3722C" stroke-width="1.5" stroke-linecap="round" stroke-linejoin="round"/>
<path d="M13.0002 9L21.7617 9.8125" stroke="#F3722C" stroke-width="1.5" stroke-linecap="round" stroke-linejoin="round"/>
<path d="M5 13V16.1052C5 18.2772 6.40219 20.2007 8.46995 20.8653L10.47 21.5082C11.4649 21.828 12.5351 21.828 13.53 21.5082L15.53 20.8653C17.5978 20.2007 19 18.2772 19 16.1052V13" stroke="#F3722C" stroke-width="1.5" stroke-linecap="round"/>
</svg>
