<svg width="24" height="24" viewBox="0 0 24 24" fill="none" xmlns="http://www.w3.org/2000/svg">
<mask id="path-1-inside-1_1592_30473" fill="white">
<path d="M17.5996 11.3272C17.4631 10.9517 17.5632 10.5311 17.8541 10.2573L20.1066 8.13784L20.1225 8.12191C20.6852 7.55923 21.0013 6.79608 21.0013 6.00034C21.0013 5.2046 20.6852 4.44145 20.1225 3.87878C19.5598 3.31611 18.7967 3 18.0009 3C17.2129 3 16.4568 3.31002 15.8958 3.86252C15.8852 3.87288 15.8739 3.88427 15.8634 3.89472L13.7441 6.14697C13.4703 6.438 13.0495 6.53805 12.6739 6.40141L5.51157 3.79534C5.37746 3.74656 5.23221 3.73706 5.09289 3.76795C4.95356 3.79884 4.82594 3.86883 4.72501 3.96972L2.47501 6.21972C2.3966 6.29818 2.33658 6.39306 2.29926 6.49752C2.26195 6.60198 2.24826 6.71342 2.2592 6.8238C2.27014 6.93419 2.30543 7.04077 2.36253 7.13587C2.41962 7.23098 2.4971 7.31223 2.58938 7.37378L7.56232 10.6888C8.08798 11.0392 8.16103 11.7832 7.71356 12.2292L7.48238 12.4596C7.29494 12.6464 7.0411 12.7513 6.77647 12.7513H5.25001C5.05136 12.7514 4.86086 12.8303 4.72032 12.9707L2.47032 15.2207C2.38257 15.3082 2.31788 15.4161 2.28204 15.5348C2.2462 15.6534 2.24032 15.7791 2.26493 15.9006C2.28955 16.022 2.34388 16.1355 2.42307 16.2309C2.50227 16.3262 2.60386 16.4004 2.71876 16.4469L5.77275 17.6687C6.02683 17.7703 6.22815 17.9716 6.32979 18.2257L7.54876 21.2732L7.55438 21.2882C7.60206 21.4036 7.67779 21.5052 7.77471 21.584C7.87164 21.6627 7.98668 21.716 8.10941 21.739C8.23214 21.762 8.35867 21.7539 8.47752 21.7157C8.59637 21.6774 8.70378 21.61 8.79001 21.5197L11.0278 19.281C11.0978 19.2116 11.1535 19.1291 11.1916 19.0382C11.2298 18.9474 11.2496 18.8498 11.25 18.7513V17.2258C11.25 16.9606 11.3554 16.7062 11.5429 16.5187L11.7712 16.2904C12.2174 15.8442 12.9603 15.9178 13.3104 16.4428L16.6266 21.4175C16.6881 21.5098 16.7694 21.5873 16.8645 21.6444C16.9596 21.7015 17.0662 21.7368 17.1765 21.7477C17.2869 21.7586 17.3984 21.745 17.5028 21.7076C17.6073 21.6703 17.7022 21.6103 17.7806 21.5319L20.0306 19.2819C20.1315 19.181 20.2015 19.0534 20.2324 18.914C20.2633 18.7747 20.2538 18.6295 20.205 18.4953L17.5996 11.3272Z"/>
</mask>
<path d="M20.1066 8.13784L21.1345 9.23025L21.1511 9.21463L21.1672 9.19852L20.1066 8.13784ZM20.1225 8.12191L21.1832 9.18258L21.1832 9.18257L20.1225 8.12191ZM21.0013 6.00034H22.5013H21.0013ZM18.0009 3V1.5V3ZM5.51157 3.79534L6.02446 2.38575L6.02428 2.38569L5.51157 3.79534ZM4.72501 3.96972L3.66459 2.90881L3.66435 2.90906L4.72501 3.96972ZM2.47501 6.21972L1.41435 5.15906L1.41392 5.15948L2.47501 6.21972ZM2.58938 7.37378L1.75705 8.62167L1.75738 8.62189L2.58938 7.37378ZM5.25001 12.7513V11.2513H5.24931L5.25001 12.7513ZM4.72032 12.9707L3.66025 11.9094L3.65966 11.91L4.72032 12.9707ZM2.47032 15.2207L3.52968 16.2826L3.53098 16.2813L2.47032 15.2207ZM2.71876 16.4469L2.15627 17.8375L2.16161 17.8396L2.71876 16.4469ZM7.54876 21.2732L8.95324 20.7464L8.94752 20.7312L8.94147 20.7161L7.54876 21.2732ZM7.55438 21.2882L6.1499 21.8149L6.15859 21.838L6.16803 21.8609L7.55438 21.2882ZM8.79001 21.5197L7.72913 20.4593L7.71698 20.4714L7.70511 20.4839L8.79001 21.5197ZM11.0278 19.281L9.97219 18.2153L9.96694 18.2205L11.0278 19.281ZM11.25 18.7513L12.75 18.7576V18.7513H11.25ZM16.6266 21.4175L15.3785 22.2495L15.3787 22.2499L16.6266 21.4175ZM17.7806 21.5319L18.8409 22.593L18.8413 22.5926L17.7806 21.5319ZM20.0306 19.2819L21.0913 20.3426L21.0915 20.3423L20.0306 19.2819ZM20.205 18.4953L18.7952 19.0078L18.7954 19.0081L20.205 18.4953ZM5.77275 17.6687L5.21559 19.0614L5.77275 17.6687ZM6.32979 18.2257L4.93707 18.7828L6.32979 18.2257ZM15.8958 3.86252L14.8433 2.79374L15.8958 3.86252ZM7.56232 10.6888L8.39432 9.44071L7.56232 10.6888ZM7.48238 12.4596L6.42351 11.3971L7.48238 12.4596ZM13.7441 6.14697L12.6517 5.11904L13.7441 6.14697ZM17.8541 10.2573L18.8821 11.3497L17.8541 10.2573ZM17.5996 11.3272L19.0094 10.8148L17.5996 11.3272ZM18.8821 11.3497L21.1345 9.23025L19.0786 7.04543L16.8262 9.16491L18.8821 11.3497ZM21.1672 9.19852L21.1832 9.18258L19.0619 7.06123L19.0459 7.07717L21.1672 9.19852ZM21.1832 9.18257C22.0271 8.33859 22.5013 7.19391 22.5013 6.00034H19.5013C19.5013 6.39826 19.3432 6.77988 19.0618 7.06124L21.1832 9.18257ZM22.5013 6.00034C22.5013 4.80678 22.0271 3.6621 21.1832 2.81812L19.0618 4.93944C19.3432 5.22081 19.5013 5.60243 19.5013 6.00034H22.5013ZM21.1832 2.81812C20.3392 1.97414 19.1945 1.5 18.0009 1.5V4.5C18.3989 4.5 18.7805 4.65807 19.0618 4.93944L21.1832 2.81812ZM18.0009 1.5C16.8189 1.5 15.6849 1.96501 14.8433 2.79374L16.9482 4.9313C17.2288 4.65503 17.6069 4.5 18.0009 4.5V1.5ZM14.771 2.86679L12.6517 5.11904L14.8365 7.1749L16.9559 4.92265L14.771 2.86679ZM13.1868 4.99182L6.02446 2.38575L4.99868 5.20493L12.161 7.811L13.1868 4.99182ZM6.02428 2.38569C5.62194 2.23935 5.18621 2.21084 4.76823 2.3035L5.41754 5.23239C5.27822 5.26328 5.13297 5.25378 4.99886 5.205L6.02428 2.38569ZM4.76823 2.3035C4.35025 2.39617 3.96739 2.60615 3.66459 2.90881L5.78542 5.03062C5.68449 5.13151 5.55687 5.20151 5.41754 5.23239L4.76823 2.3035ZM3.66435 2.90906L1.41435 5.15906L3.53567 7.28038L5.78567 5.03038L3.66435 2.90906ZM1.41392 5.15948C1.17871 5.39488 0.998643 5.67952 0.886693 5.9929L3.71183 7.00215C3.67452 7.10661 3.61449 7.20149 3.53609 7.27996L1.41392 5.15948ZM0.886693 5.9929C0.774742 6.30628 0.733698 6.64059 0.766517 6.97174L3.75189 6.67587C3.76283 6.78625 3.74915 6.89769 3.71183 7.00215L0.886693 5.9929ZM0.766517 6.97174C0.799337 7.30289 0.905202 7.62264 1.07649 7.90795L3.64857 6.3638C3.70566 6.4589 3.74095 6.56548 3.75189 6.67587L0.766517 6.97174ZM1.07649 7.90795C1.24777 8.19325 1.48021 8.43702 1.75705 8.62167L3.42171 6.12589C3.51399 6.18744 3.59147 6.2687 3.64857 6.3638L1.07649 7.90795ZM1.75738 8.62189L6.73031 11.9369L8.39432 9.44071L3.42139 6.12567L1.75738 8.62189ZM6.65469 11.1667L6.42351 11.3971L8.54125 13.522L8.77243 13.2916L6.65469 11.1667ZM6.77647 11.2513H5.25001V14.2513H6.77647V11.2513ZM5.24931 11.2513C4.65337 11.2516 4.08188 11.4882 3.66025 11.9094L5.78039 14.0319C5.63985 14.1723 5.44935 14.2512 5.2507 14.2513L5.24931 11.2513ZM3.65966 11.91L1.40966 14.16L3.53098 16.2813L5.78098 14.0313L3.65966 11.91ZM1.41096 14.1587C1.14771 14.4213 0.953651 14.745 0.846128 15.101L3.71796 15.9685C3.68212 16.0872 3.61743 16.1951 3.52968 16.2826L1.41096 14.1587ZM0.846128 15.101C0.738604 15.4569 0.72097 15.834 0.794803 16.1984L3.73507 15.6027C3.75968 15.7242 3.7538 15.8499 3.71796 15.9685L0.846128 15.101ZM0.794803 16.1984C0.868636 16.5628 1.03163 16.9033 1.26922 17.1893L3.57693 15.2724C3.65612 15.3678 3.71045 15.4812 3.73507 15.6027L0.794803 16.1984ZM1.26922 17.1893C1.50681 17.4753 1.81158 17.698 2.15627 17.8374L3.28124 15.0564C3.39614 15.1028 3.49773 15.1771 3.57693 15.2724L1.26922 17.1893ZM2.16161 17.8396L5.21559 19.0614L6.3299 16.276L3.27591 15.0542L2.16161 17.8396ZM4.93707 18.7828L6.15604 21.8302L8.94147 20.7161L7.7225 17.6686L4.93707 18.7828ZM6.14428 21.7999L6.1499 21.8149L8.95886 20.7614L8.95324 20.7464L6.14428 21.7999ZM6.16803 21.8609C6.31106 22.2071 6.53826 22.5121 6.82903 22.7483L8.7204 20.4196C8.81733 20.4983 8.89306 20.6 8.94074 20.7154L6.16803 21.8609ZM6.82903 22.7483C7.11979 22.9844 7.46492 23.1443 7.83311 23.2133L8.38571 20.2646C8.50845 20.2876 8.62349 20.3409 8.7204 20.4196L6.82903 22.7483ZM7.83311 23.2133C8.20131 23.2823 8.5809 23.2583 8.93743 23.1434L8.0176 20.2879C8.13644 20.2496 8.26296 20.2416 8.38571 20.2646L7.83311 23.2133ZM8.93743 23.1434C9.29397 23.0286 9.61621 22.8265 9.8749 22.5556L7.70511 20.4839C7.79135 20.3935 7.89876 20.3262 8.0176 20.2879L8.93743 23.1434ZM9.85089 22.5802L12.0887 20.3414L9.96694 18.2205L7.72913 20.4593L9.85089 22.5802ZM12.0834 20.3467C12.2935 20.1386 12.4605 19.8911 12.5749 19.6185L9.8084 18.458C9.84652 18.3671 9.90219 18.2846 9.97221 18.2153L12.0834 20.3467ZM12.5749 19.6185C12.6892 19.3458 12.7488 19.0533 12.75 18.7576L9.75002 18.745C9.75044 18.6464 9.77027 18.5489 9.8084 18.458L12.5749 19.6185ZM12.75 18.7513V17.2258H9.75001V18.7513H12.75ZM12.6036 17.5794L12.8319 17.3511L10.7105 15.2297L10.4822 15.458L12.6036 17.5794ZM12.0623 17.2748L15.3785 22.2495L17.8747 20.5855L14.5585 15.6108L12.0623 17.2748ZM15.3787 22.2499C15.5633 22.5267 15.8071 22.7591 16.0924 22.9304L17.6365 20.3583C17.7317 20.4154 17.8129 20.4929 17.8745 20.5852L15.3787 22.2499ZM16.0924 22.9304C16.3777 23.1017 16.6975 23.2076 17.0286 23.2404L17.3245 20.255C17.4348 20.266 17.5414 20.3012 17.6365 20.3583L16.0924 22.9304ZM17.0286 23.2404C17.3598 23.2732 17.6941 23.2322 18.0074 23.1202L16.9982 20.2951C17.1027 20.2578 17.2141 20.2441 17.3245 20.255L17.0286 23.2404ZM18.0074 23.1202C18.3208 23.0083 18.6055 22.8282 18.8409 22.593L16.7204 20.4708C16.7989 20.3924 16.8938 20.3324 16.9982 20.2951L18.0074 23.1202ZM18.8413 22.5926L21.0913 20.3426L18.97 18.2212L16.72 20.4712L18.8413 22.5926ZM21.0915 20.3423C21.3942 20.0395 21.6042 19.6567 21.6968 19.2387L18.768 18.5894C18.7988 18.45 18.8688 18.3224 18.9697 18.2215L21.0915 20.3423ZM21.6968 19.2387C21.7895 18.8207 21.761 18.385 21.6147 17.9826L18.7954 19.0081C18.7466 18.8739 18.7371 18.7287 18.768 18.5894L21.6968 19.2387ZM21.6148 17.9829L19.0094 10.8148L16.1898 11.8396L18.7952 19.0078L21.6148 17.9829ZM12.75 17.2258C12.75 17.3584 12.6973 17.4856 12.6036 17.5794L10.4822 15.458C10.0134 15.9269 9.75001 16.5628 9.75001 17.2258H12.75ZM12.8319 17.3511C12.6087 17.5742 12.2373 17.5374 12.0623 17.2748L14.5585 15.6108C13.6834 14.2981 11.8261 14.1142 10.7105 15.2297L12.8319 17.3511ZM5.21559 19.0614C5.08855 19.0105 4.98789 18.9099 4.93707 18.7828L7.7225 17.6686C7.46842 17.0334 6.9651 16.5301 6.3299 16.276L5.21559 19.0614ZM14.8433 2.79374C14.8275 2.80929 14.8106 2.82629 14.8028 2.83406L16.9241 4.95538C16.9372 4.94226 16.943 4.93647 16.9482 4.9313L14.8433 2.79374ZM6.73031 11.9369C6.46748 11.7617 6.43096 11.3897 6.65469 11.1667L8.77243 13.2916C9.8911 12.1767 9.70848 10.3167 8.39432 9.44071L6.73031 11.9369ZM6.42351 11.3971C6.51723 11.3037 6.64416 11.2513 6.77647 11.2513V14.2513C7.43805 14.2513 8.07265 13.989 8.54125 13.522L6.42351 11.3971ZM12.6517 5.11904C12.7886 4.97352 12.9991 4.9235 13.1868 4.99182L12.161 7.811C13.0999 8.15259 14.1519 7.90247 14.8365 7.1749L12.6517 5.11904ZM16.8262 9.16491C16.0989 9.84932 15.8486 10.901 16.1898 11.8396L19.0094 10.8148C19.0776 11.0025 19.0275 11.2128 18.8821 11.3497L16.8262 9.16491Z" fill="#A2A3C3" mask="url(#path-1-inside-1_1592_30473)"/>
<line x1="17.0251" y1="17.5822" x2="15.5822" y2="13.9749" stroke="#A2A3C3" stroke-width="1.5" stroke-linecap="round"/>
<line x1="10.0251" y1="8.41781" x2="6.41781" y2="6.9749" stroke="#A2A3C3" stroke-width="1.5" stroke-linecap="round"/>
</svg>
