<svg width="24" height="24" viewBox="0 0 24 24" fill="none" xmlns="http://www.w3.org/2000/svg">
<path d="M12.2124 11.2482C12.068 11.2314 11.9159 11.2312 11.7714 11.2478C9.52906 11.1343 7.75 9.2881 7.75 7C7.75 4.6429 9.64289 2.75 12 2.75C14.3543 2.75 16.2486 4.65892 16.25 6.99732C16.2322 9.29473 14.4452 11.1518 12.2124 11.2482Z" stroke="#A2A3C3" stroke-width="1.5" stroke-linecap="round" stroke-linejoin="round"/>
<path d="M8 7.5C9.5 7.33333 12.6 6.6 13 5C13.6667 5.83333 15.2 7.5 16 7.5" stroke="#A2A3C3" stroke-width="1.5"/>
<path d="M13.4049 11.75C16.3651 11.75 19.0429 13.7239 20.0613 16.7399C20.6643 18.5256 19.773 20.4461 18.1607 21.0581C17.8255 21.1853 17.4733 21.25 17.1192 21.25H6.87978C5.19198 21.25 3.75 19.786 3.75 17.8865C3.75 17.495 3.81365 17.107 3.93761 16.7399C4.956 13.7239 7.6338 11.75 10.594 11.75H13.4049Z" stroke="#A2A3C3" stroke-width="1.5"/>
</svg>
