<svg width="60" height="60" viewBox="0 0 60 60" fill="none" xmlns="http://www.w3.org/2000/svg">
<g clip-path="url(#clip0_1337_296416)">
<circle cx="30" cy="30" r="30" fill="white"/>
<mask id="mask0_1337_296416" style="mask-type:alpha" maskUnits="userSpaceOnUse" x="0" y="0" width="60" height="60">
<circle cx="30" cy="30" r="30" fill="#E7ECF1"/>
</mask>
<g mask="url(#mask0_1337_296416)">
<rect x="7.31738" y="7.31641" width="17.561" height="52.6829" fill="#8687A3"/>
<rect x="12.4395" y="49.7539" width="7.31707" height="10.2439" fill="#BDBEDB"/>
<rect x="9.5127" y="10.2422" width="5.85366" height="5.12195" fill="#BDBEDB"/>
<rect x="9.5127" y="18.293" width="5.85366" height="5.12195" fill="#BDBEDB"/>
<rect x="9.5127" y="26.3398" width="5.85366" height="5.12195" fill="#BDBEDB"/>
<rect x="16.8296" y="10.2422" width="5.85366" height="5.12195" fill="#BDBEDB"/>
<rect x="16.8296" y="18.293" width="5.85366" height="5.12195" fill="#BDBEDB"/>
<rect x="16.8296" y="26.3398" width="5.85366" height="5.12195" fill="#BDBEDB"/>
<path d="M21.7099 30.0173L21.1831 34.6416L21.7485 36.0903L24.1973 45.4224L25.8137 47.8688L27.6749 48.5519L27.6843 48.2165L26.2615 46.9462L25.8272 45.9654C25.8272 45.9654 26.8725 45.2922 26.6645 45.1438C26.4564 44.9955 25.6702 45.0097 25.6702 45.0097L25.1358 44.2116L23.9956 34.111L25.1136 31.4351L21.7099 30.0173Z" fill="#D9DAF0"/>
<path d="M36.6736 30.8064L37.4701 34.9174L36.8781 36.7449L34.7897 46.1642L34.6193 48.4634L31.575 48.2468L32.7856 47.7662L33.1819 46.7694C33.1819 46.7694 32.1115 46.1369 32.3137 45.9807C32.5158 45.8244 33.302 45.8085 33.302 45.8085L33.8054 44.9903L34.5567 34.8534L33.3269 32.3539L36.6736 30.8064Z" fill="#D9DAF0"/>
<path d="M24.3538 40.0989C24.3538 40.0989 23.8648 41.4059 23.8648 42.3247C23.3758 50.3252 24.5879 63.3693 24.5879 63.3693H26.4704L29.7572 44.8392L33.0154 63.3693H34.8674C34.8674 63.3693 36.0928 50.7699 35.3593 42.3247C35.3593 41.4154 34.3784 39.668 34.3784 39.668L24.3538 40.0989Z" fill="#4D4E68"/>
<path d="M37.9453 32.3442L34.6264 32.9535L34.4351 30.8636L35.3597 40.9628C35.3597 40.9628 32.7741 41.3938 29.3266 41.3938C25.8792 41.3938 23.8614 40.9628 23.8614 40.9628C23.8614 40.9628 23.8614 38.6182 23.8614 31.1669V33.637L21.1389 32.7751C21.1389 32.7751 21.6076 27.997 23.2936 26.3111C24.1554 25.4492 27.1793 25.4492 27.1793 25.4492H31.2297C31.2297 25.4492 34.4472 25.5542 35.0555 26.0428C36.4627 27.173 37.9453 32.3442 37.9453 32.3442Z" fill="#9FA0CB"/>
<path d="M28.0332 22.6133H30.6188V26.0608L29.326 26.7391L28.0332 26.0608V22.6133Z" fill="#C7C8E3"/>
<ellipse cx="29.3261" cy="20.7065" rx="3.01654" ry="3.8784" fill="#D9DAF0"/>
<path d="M28.5366 19.755C28.2439 20.3403 26.9512 20.7306 26.3415 20.8525C25.6098 18.6574 27.439 16.8281 29.2683 16.8281C31.0976 16.8281 31.8293 17.9257 32.1951 19.0232C32.4878 19.9013 32.3171 20.3647 32.1951 20.4867C31.6389 20.4867 30.8185 19.3856 30.4243 18.7528C30.5372 19.0977 29.9656 19.7894 29.6342 20.1208C29.9268 19.8281 29.5122 19.0232 29.2683 18.6574C29.1463 18.7793 28.8293 19.1696 28.5366 19.755Z" fill="#4D4E68"/>
<path d="M41.3409 21.9517C41.0482 20.781 42.1946 19.5127 42.8043 19.0249C44.1458 18.9029 47.0484 18.7322 47.9264 19.0249C49.024 19.3907 49.024 20.8542 49.3899 21.5859C49.7557 22.3176 49.7557 24.0096 49.024 24.5127C48.4386 24.9151 49.2679 26.6316 49.7557 27.4395L40.6094 27.0737C40.9752 26.5859 41.7801 25.3907 42.0728 24.5127C42.4386 23.4151 41.7068 23.4151 41.3409 21.9517Z" fill="#4D4E68"/>
<path d="M41.4611 39.9507C41.4611 39.9507 41.0684 41.2823 41.0684 42.2184C40.6757 50.3691 41.6491 63.6581 41.6491 63.6581H43.1609L45.8005 44.78L48.417 63.6581H49.9043C49.9043 63.6581 50.8885 50.822 50.2994 42.2184C50.2994 41.292 49.5116 39.5117 49.5116 39.5117L41.4611 39.9507Z" fill="#D9DAF0"/>
<path d="M38.5385 30.0173L38.0117 34.6416L38.5772 36.0903L41.0259 45.4224L42.6423 47.8688L44.5035 48.5519L44.513 48.2165L43.0901 46.9462L42.6558 45.9654C42.6558 45.9654 43.7011 45.2922 43.4931 45.1438C43.2851 44.9955 42.4988 45.0097 42.4988 45.0097L41.9644 44.2116L40.8242 34.111L41.9422 31.4351L38.5385 30.0173Z" fill="#D9DAF0"/>
<path d="M52.0706 30.8064L52.867 34.9174L52.2751 36.7449L50.1867 46.1642L50.0163 48.4634L46.972 48.2468L48.1826 47.7662L48.5789 46.7694C48.5789 46.7694 47.5085 46.1369 47.7106 45.9807C47.9128 45.8244 48.699 45.8085 48.699 45.8085L49.2024 44.9903L49.9536 34.8534L48.7239 32.3539L52.0706 30.8064Z" fill="#D9DAF0"/>
<path d="M41.0983 38.477C41.0983 38.477 40.6093 39.784 40.6093 40.7029C40.1203 48.7034 39.5117 49.7534 39.5117 49.7534H42.5672H45.8541H49.1123H52.3166C52.3166 49.7534 51.5867 49.1488 50.8532 40.7037C50.8532 39.7944 49.8722 38.0469 49.8722 38.0469L41.0983 38.477Z" fill="#4D4E68"/>
<path d="M53.4141 32.5619L50.1198 32.9535L49.9285 30.8636L50.8531 38.7814C50.8531 38.7814 48.8706 39.2124 45.4232 39.2124C41.9757 39.2124 40.6092 38.7814 40.6092 38.7814C40.6092 38.7814 40.6092 38.6182 40.6092 31.1669C40.6092 23.7157 40.6092 33.637 40.6092 33.637L38.0483 32.9535C38.0483 32.9535 38.517 28.1754 40.2029 26.4895C41.0648 25.6276 43.2758 25.4492 43.2758 25.4492H47.3262C47.3262 25.4492 49.9159 25.772 50.5243 26.2606C51.9315 27.3907 53.4141 32.5619 53.4141 32.5619Z" fill="#9FA0CB"/>
<path d="M44.1309 22.6133H46.7165V26.0608L45.4237 26.7391L44.1309 26.0608V22.6133Z" fill="#C7C8E3"/>
<ellipse cx="45.4233" cy="20.7065" rx="3.01654" ry="3.8784" fill="#D9DAF0"/>
<path d="M47.1946 19.3891C46.0238 19.6818 44.2677 19.5111 43.536 19.3891V19.0232L43.1702 19.3891H42.4385C42.5604 18.5354 43.3165 16.8281 45.3653 16.8281C47.4141 16.8281 48.1702 18.5354 48.2921 19.3891H47.9263L47.1946 18.6574V19.3891Z" fill="#4D4E68"/>
</g>
</g>
<defs>
<clipPath id="clip0_1337_296416">
<rect width="60" height="60" fill="white"/>
</clipPath>
</defs>
</svg>
