<svg width="50" height="67" viewBox="0 0 50 67" fill="none" xmlns="http://www.w3.org/2000/svg">
<g id="img_popul_up">
<g id="Group 427320760">
<g id="Group 427320758">
<path id="Vector" d="M18.2124 49.2482C18.068 49.2314 17.9159 49.2312 17.7714 49.2478C15.5291 49.1343 13.75 47.2881 13.75 45C13.75 42.6429 15.6429 40.75 18 40.75C20.3543 40.75 22.2486 42.6589 22.25 44.9973C22.2322 47.2947 20.4452 49.1518 18.2124 49.2482Z" fill="#F0BEBB" stroke="#F14730" stroke-width="1.5" stroke-linecap="round" stroke-linejoin="round"/>
<path id="Vector_2" d="M19.4049 49.75C22.3651 49.75 25.0429 51.7239 26.0613 54.7399C26.6643 56.5256 25.773 58.4461 24.1607 59.0581C23.8255 59.1853 23.4733 59.25 23.1192 59.25H12.8798C11.192 59.25 9.75 57.786 9.75 55.8865C9.75 55.495 9.81365 55.107 9.93761 54.7399C10.956 51.7239 13.6338 49.75 16.594 49.75H19.4049Z" fill="#F0BEBB" stroke="#F14730" stroke-width="1.5"/>
</g>
<g id="Group 427320759">
<path id="Vector_3" d="M32.2124 49.2482C32.068 49.2314 31.9159 49.2312 31.7714 49.2478C29.5291 49.1343 27.75 47.2881 27.75 45C27.75 42.6429 29.6429 40.75 32 40.75C34.3543 40.75 36.2486 42.6589 36.25 44.9973C36.2322 47.2947 34.4452 49.1518 32.2124 49.2482Z" fill="#F0BEBB" stroke="#F14730" stroke-width="1.5" stroke-linecap="round" stroke-linejoin="round"/>
<path id="Vector_4" d="M33.4049 49.75C36.3651 49.75 39.0429 51.7239 40.0613 54.7399C40.6643 56.5256 39.773 58.4461 38.1607 59.0581C37.8255 59.1853 37.4733 59.25 37.1192 59.25H26.8798C25.192 59.25 23.75 57.786 23.75 55.8865C23.75 55.495 23.8137 55.107 23.9376 54.7399C24.956 51.7239 27.6338 49.75 30.594 49.75H33.4049Z" fill="#F0BEBB" stroke="#F14730" stroke-width="1.5"/>
</g>
<g id="Group 427320755">
<path id="Vector_5" d="M11.2124 56.2482C11.068 56.2314 10.9159 56.2312 10.7714 56.2478C8.52906 56.1343 6.75 54.2881 6.75 52C6.75 49.6429 8.64289 47.75 11 47.75C13.3543 47.75 15.2486 49.6589 15.25 51.9973C15.2322 54.2947 13.4452 56.1518 11.2124 56.2482Z" fill="#F0BEBB" stroke="#F14730" stroke-width="1.5" stroke-linecap="round" stroke-linejoin="round"/>
<path id="Vector_6" d="M12.4049 56.75C15.3651 56.75 18.0429 58.7239 19.0613 61.7399C19.6643 63.5256 18.773 65.4461 17.1607 66.0581C16.8255 66.1853 16.4733 66.25 16.1192 66.25H5.87978C4.19198 66.25 2.75 64.786 2.75 62.8865C2.75 62.495 2.81365 62.107 2.93761 61.7399C3.956 58.7239 6.6338 56.75 9.59401 56.75H12.4049Z" fill="#F0BEBB" stroke="#F14730" stroke-width="1.5"/>
</g>
<g id="Group 427320757">
<path id="Vector_7" d="M39.2124 56.2482C39.068 56.2314 38.9159 56.2312 38.7714 56.2478C36.5291 56.1343 34.75 54.2881 34.75 52C34.75 49.6429 36.6429 47.75 39 47.75C41.3543 47.75 43.2486 49.6589 43.25 51.9973C43.2322 54.2947 41.4452 56.1518 39.2124 56.2482Z" fill="#F0BEBB" stroke="#F14730" stroke-width="1.5" stroke-linecap="round" stroke-linejoin="round"/>
<path id="Vector_8" d="M40.4049 56.75C43.3651 56.75 46.0429 58.7239 47.0613 61.7399C47.6643 63.5256 46.773 65.4461 45.1607 66.0581C44.8255 66.1853 44.4733 66.25 44.1192 66.25H33.8798C32.192 66.25 30.75 64.786 30.75 62.8865C30.75 62.495 30.8137 62.107 30.9376 61.7399C31.956 58.7239 34.6338 56.75 37.594 56.75H40.4049Z" fill="#F0BEBB" stroke="#F14730" stroke-width="1.5"/>
</g>
<g id="Group 427320756">
<path id="Vector_9" d="M25.2124 56.2482C25.068 56.2314 24.9159 56.2312 24.7714 56.2478C22.5291 56.1343 20.75 54.2881 20.75 52C20.75 49.6429 22.6429 47.75 25 47.75C27.3543 47.75 29.2486 49.6589 29.25 51.9973C29.2322 54.2947 27.4452 56.1518 25.2124 56.2482Z" fill="#F0BEBB" stroke="#F14730" stroke-width="1.5" stroke-linecap="round" stroke-linejoin="round"/>
<path id="Vector_10" d="M26.4049 56.75C29.3651 56.75 32.0429 58.7239 33.0613 61.7399C33.6643 63.5256 32.773 65.4461 31.1607 66.0581C30.8255 66.1853 30.4733 66.25 30.1192 66.25H19.8798C18.192 66.25 16.75 64.786 16.75 62.8865C16.75 62.495 16.8137 62.107 16.9376 61.7399C17.956 58.7239 20.6338 56.75 23.594 56.75H26.4049Z" fill="#F0BEBB" stroke="#F14730" stroke-width="1.5"/>
</g>
</g>
<g id="Group 427320742">
<rect id="Rectangle 4369" x="36" y="42" width="22" height="21" transform="rotate(-180 36 42)" fill="url(#paint0_linear_3025_39136)"/>
<path id="Polygon 8" d="M25 4.37114e-06L46.6506 21L3.34936 21L25 4.37114e-06Z" fill="#F14730"/>
</g>
</g>
<defs>
<linearGradient id="paint0_linear_3025_39136" x1="47" y1="42" x2="47" y2="63" gradientUnits="userSpaceOnUse">
<stop stop-color="#F14730" stop-opacity="0"/>
<stop offset="1" stop-color="#F14730"/>
</linearGradient>
</defs>
</svg>
