<svg width="34" height="34" viewBox="0 0 34 34" fill="none" xmlns="http://www.w3.org/2000/svg">
<circle cx="17" cy="17" r="17" fill="#CD1900"/>
<path d="M7 27H27" stroke="white" stroke-width="1.5" stroke-miterlimit="10" stroke-linecap="round" stroke-linejoin="round"/>
<path d="M26 16L26 27" stroke="white" stroke-width="1.5" stroke-linecap="round" stroke-linejoin="round"/>
<path d="M11 16H8" stroke="white" stroke-width="1.5" stroke-linecap="round" stroke-linejoin="round"/>
<path d="M26 16H23" stroke="white" stroke-width="1.5" stroke-linecap="round" stroke-linejoin="round"/>
<path d="M11 19H8" stroke="white" stroke-width="1.5" stroke-linecap="round" stroke-linejoin="round"/>
<path d="M26 19H23" stroke="white" stroke-width="1.5" stroke-linecap="round" stroke-linejoin="round"/>
<path d="M8 16L8 27" stroke="white" stroke-width="1.5" stroke-linecap="round" stroke-linejoin="round"/>
<path d="M11 27C11 25.2644 11 17.8403 11 15.1791C11 14.5901 11.3236 14.0513 11.8425 13.7724L16.2425 11.4072C16.7155 11.1529 17.2845 11.1529 17.7575 11.4072L22.1575 13.7724C22.6764 14.0513 23 14.5901 23 15.1791C23 17.8403 23 25.2644 23 27" stroke="white" stroke-width="1.5" stroke-linecap="round" stroke-linejoin="round"/>
<path d="M18.3501 19.698H14.7981V18.978H19.1721V20.922C19.1721 21.54 19.1181 22.2 19.0221 22.674H18.2061C18.2901 22.23 18.3501 21.612 18.3501 21.096V19.698ZM14.5521 23.436H16.1181V20.97H16.9401V23.436H19.4481V24.15H14.5521V23.436Z" fill="white"/>
<circle cx="17" cy="16" r="1" stroke="white" stroke-width="1.5"/>
<path d="M17 7L17 11" stroke="white" stroke-width="1.5" stroke-miterlimit="10" stroke-linecap="round" stroke-linejoin="round"/>
<path d="M17 7H19C19.5523 7 20 7.44772 20 8V8C20 8.55228 19.5523 9 19 9H17" stroke="white" stroke-width="1.5"/>
</svg>
