<svg width="34" height="34" viewBox="0 0 34 34" fill="none" xmlns="http://www.w3.org/2000/svg">
<circle cx="17" cy="17" r="17" fill="#FFA504"/>
<path d="M7 27H27" stroke="white" stroke-width="1.5" stroke-miterlimit="10" stroke-linecap="round" stroke-linejoin="round"/>
<path d="M26 16L26 27" stroke="white" stroke-width="1.5" stroke-linecap="round" stroke-linejoin="round"/>
<path d="M11 16H8" stroke="white" stroke-width="1.5" stroke-linecap="round" stroke-linejoin="round"/>
<path d="M26 16H23" stroke="white" stroke-width="1.5" stroke-linecap="round" stroke-linejoin="round"/>
<path d="M11 19H8" stroke="white" stroke-width="1.5" stroke-linecap="round" stroke-linejoin="round"/>
<path d="M26 19H23" stroke="white" stroke-width="1.5" stroke-linecap="round" stroke-linejoin="round"/>
<path d="M8 16L8 27" stroke="white" stroke-width="1.5" stroke-linecap="round" stroke-linejoin="round"/>
<path d="M11 27C11 25.2644 11 17.8403 11 15.1791C11 14.5901 11.3236 14.0513 11.8425 13.7724L16.2425 11.4072C16.7155 11.1529 17.2845 11.1529 17.7575 11.4072L22.1575 13.7724C22.6764 14.0513 23 14.5901 23 15.1791C23 17.8403 23 25.2644 23 27" stroke="white" stroke-width="1.5" stroke-linecap="round" stroke-linejoin="round"/>
<path d="M14.8281 19.398H16.5801V18.69H17.4021V19.398H19.1721V20.112H17.4141C17.5281 21.018 18.2601 21.48 19.2201 21.696V22.41C18.2721 22.248 17.4501 21.84 16.9941 21.258C16.5381 21.84 15.7161 22.248 14.7681 22.41V21.696C15.7281 21.48 16.4601 21.018 16.5681 20.112H14.8281V19.398ZM14.5521 23.436H16.5801V22.002H17.3961V23.436H19.4481V24.15H14.5521V23.436Z" fill="white"/>
<circle cx="17" cy="16" r="1" stroke="white" stroke-width="1.5"/>
<path d="M17 7L17 11" stroke="white" stroke-width="1.5" stroke-miterlimit="10" stroke-linecap="round" stroke-linejoin="round"/>
<path d="M17 7H19C19.5523 7 20 7.44772 20 8V8C20 8.55228 19.5523 9 19 9H17" stroke="white" stroke-width="1.5"/>
</svg>
