<svg width="24" height="24" viewBox="0 0 24 24" fill="none" xmlns="http://www.w3.org/2000/svg">
<path d="M4.78746 3.50613C4.83529 3.07567 5.19915 2.75 5.63226 2.75H18.3681C18.8012 2.75 19.1651 3.07567 19.2129 3.50613L20.027 10.8327C20.0368 10.9207 20.0327 11.0098 20.015 11.0966L20.7499 11.2466L20.015 11.0966L18.3266 19.368C18.2458 19.7638 17.8977 20.048 17.4938 20.048H6.50659C6.10268 20.048 5.75455 19.7638 5.67377 19.368L3.98537 11.0966L3.25053 11.2466L3.98537 11.0966C3.96766 11.0098 3.96362 10.9207 3.9734 10.8327L4.78746 3.50613Z" stroke="#A2A3C3" stroke-width="1.5"/>
<path d="M12 15L12 19" stroke="#A2A3C3" stroke-width="1.5" stroke-linecap="round" stroke-linejoin="round"/>
<path d="M4.90625 12L11.9585 14.5668" stroke="#A2A3C3" stroke-width="1.5" stroke-linecap="round" stroke-linejoin="round"/>
<path d="M19.1509 12L12.0986 14.5668" stroke="#A2A3C3" stroke-width="1.5" stroke-linecap="round" stroke-linejoin="round"/>
<path d="M10 7H14" stroke="#A2A3C3" stroke-width="1.5" stroke-linecap="round" stroke-linejoin="round"/>
<path d="M8 20L5.73726 22.2627" stroke="#A2A3C3" stroke-width="1.5" stroke-linecap="round"/>
<path d="M15.8628 20L18.1255 22.2627" stroke="#A2A3C3" stroke-width="1.5" stroke-linecap="round"/>
</svg>
