<svg width="24" height="24" viewBox="0 0 24 24" fill="none" xmlns="http://www.w3.org/2000/svg">
<path d="M5 19H3.6C2.71634 19 2 18.2837 2 17.4V15.6C2 14.7163 2.71634 14 3.6 14H20.4C21.2837 14 22 14.7163 22 15.6V17.4C22 18.2837 21.2837 19 20.4001 19C19.9414 19 19.4452 19 19 19M8 19C8 19 13.1066 19 16 19" stroke="#A2A3C3" stroke-width="1.5"/>
<mask id="path-2-inside-1_2221_303009" fill="white">
<path d="M2 3.6C2 2.71635 2.71634 2 3.6 2H14.4C15.2837 2 16 2.71634 16 3.6V12.4C16 13.2837 15.2837 14 14.4 14H3.6C2.71635 14 2 13.2837 2 12.4V3.6Z"/>
</mask>
<path d="M0.5 3.6C0.5 1.88792 1.88792 0.5 3.6 0.5H14.4C16.1121 0.5 17.5 1.88792 17.5 3.6L14.5 3.6C14.5 3.54477 14.4552 3.5 14.4 3.5H3.6C3.54477 3.5 3.5 3.54477 3.5 3.6L0.5 3.6ZM16 14H2H16ZM3.6 14C1.88792 14 0.5 12.6121 0.5 10.9V3.6C0.5 1.88792 1.88792 0.5 3.6 0.5L3.6 3.5C3.54477 3.5 3.5 3.54477 3.5 3.6V12.4C3.5 13.2837 3.54477 14 3.6 14H3.6ZM14.4 0.5C16.1121 0.5 17.5 1.88792 17.5 3.6V10.9C17.5 12.6121 16.1121 14 14.4 14C14.4552 14 14.5 13.2837 14.5 12.4V3.6C14.5 3.54477 14.4552 3.5 14.4 3.5V0.5Z" fill="#A2A3C3" mask="url(#path-2-inside-1_2221_303009)"/>
<path d="M16 6H17.6093C19.4897 6 19.905 7.06242 20.1467 8.36475L21 13" stroke="#A2A3C3" stroke-width="1.5" stroke-linecap="round" stroke-linejoin="round"/>
<path d="M6 6L6 11" stroke="#A2A3C3" stroke-width="1.5" stroke-linecap="round" stroke-linejoin="round"/>
<path d="M12 6L12 11" stroke="#A2A3C3" stroke-width="1.5" stroke-linecap="round" stroke-linejoin="round"/>
<path d="M18 8L18 11" stroke="#A2A3C3" stroke-width="1.5" stroke-linecap="round" stroke-linejoin="round"/>
<path d="M20 8L18 8" stroke="#A2A3C3" stroke-width="1.5" stroke-linecap="round" stroke-linejoin="round"/>
<path d="M20 11L18 11" stroke="#A2A3C3" stroke-width="1.5" stroke-linecap="round" stroke-linejoin="round"/>
<path d="M9 6L9 11" stroke="#A2A3C3" stroke-width="1.5" stroke-linecap="round" stroke-linejoin="round"/>
<rect x="8.25" y="21.25" width="3.5" height="3.5" rx="1.75" transform="rotate(-180 8.25 21.25)" stroke="#A2A3C3" stroke-width="1.5" stroke-linejoin="round"/>
<rect x="19.25" y="21.25" width="3.5" height="3.5" rx="1.75" transform="rotate(-180 19.25 21.25)" stroke="#A2A3C3" stroke-width="1.5" stroke-linejoin="round"/>
</svg>
