<svg width="34" height="34" viewBox="0 0 34 34" fill="none" xmlns="http://www.w3.org/2000/svg">
<circle cx="17" cy="17" r="17" fill="#595A8A"/>
<path d="M14.9283 7.52143L8.53683 11.3788C6.48772 12.6155 6.48772 15.3833 8.53683 16.62L14.9283 20.4773C16.075 21.1742 17.9648 21.1742 19.1115 20.4773L25.4711 16.62C27.5096 15.3833 27.5096 12.6253 25.4711 11.3886L19.1115 7.53125C17.9648 6.82456 16.075 6.82456 14.9283 7.52143Z" stroke="white" stroke-width="1.5" stroke-linecap="round" stroke-linejoin="round"/>
<path d="M27 21V14" stroke="white" stroke-width="1.5" stroke-linecap="round" stroke-linejoin="round"/>
<path d="M18.0002 14L26.7617 14.8125" stroke="white" stroke-width="1.5" stroke-linecap="round" stroke-linejoin="round"/>
<path d="M10 18V21.1052C10 23.2772 11.4022 25.2007 13.47 25.8653L15.47 26.5082C16.4649 26.828 17.5351 26.828 18.53 26.5082L20.53 25.8653C22.5978 25.2007 24 23.2772 24 21.1052V18" stroke="white" stroke-width="1.5" stroke-linecap="round"/>
</svg>
