<svg width="22" height="22" viewBox="0 0 22 22" fill="none" xmlns="http://www.w3.org/2000/svg">
<path d="M20.6087 21C20.5557 21.0007 20.503 20.9908 20.4539 20.9706C20.4048 20.9505 20.3603 20.9206 20.323 20.8828L14.4844 15.0346C12.9906 16.2169 11.1409 16.8593 9.23578 16.8574C7.09317 16.8949 5.02309 16.0814 3.47929 14.5953C1.93549 13.1092 1.04391 11.0716 1 8.9293C1.04391 6.78697 1.93549 4.74943 3.47929 3.26332C5.02309 1.7772 7.09317 0.963736 9.23578 1.00124C11.3784 0.963736 13.4485 1.7772 14.9923 3.26332C16.5361 4.74943 17.4276 6.78697 17.4716 8.9293C17.4702 9.97669 17.256 11.0129 16.8419 11.975C16.4279 12.9371 15.8227 13.805 15.063 14.5261L20.8916 20.36C20.9269 20.3953 20.9547 20.4374 20.9733 20.4837C20.9919 20.53 21.001 20.5796 20.9999 20.6296C20.9988 20.6795 20.9877 20.7287 20.9671 20.7742C20.9465 20.8196 20.9169 20.8605 20.8802 20.8942C20.8061 20.9622 20.7093 20.9999 20.6087 21ZM9.23578 1.75548C7.29705 1.72142 5.42392 2.45748 4.02708 3.80226C2.63025 5.14704 1.8237 6.99081 1.78429 8.9293C1.82371 10.8677 2.63 12.7114 4.02649 14.0563C5.42297 15.4013 7.29573 16.1378 9.23435 16.1046C11.1735 16.1386 13.047 15.4024 14.4441 14.0574C15.8412 12.7123 16.6479 10.8682 16.6873 8.9293C16.6475 6.99093 15.8408 5.14739 14.4441 3.80268C13.0473 2.45798 11.1744 1.7218 9.23578 1.75548Z" stroke="black" stroke-width="1.3" stroke-miterlimit="10"/>
</svg>
