<svg width="24" height="24" viewBox="0 0 24 24" fill="none" xmlns="http://www.w3.org/2000/svg">
<path d="M12.2086 11.1912C12.0667 11.1752 11.918 11.1751 11.7759 11.1908C9.64854 11.0797 7.9615 9.3271 7.9615 7.15475C7.9615 4.91478 9.75999 3.11629 12 3.11629C14.2369 3.11629 16.0369 4.92998 16.0384 7.15191C16.0213 9.33423 14.3258 11.0965 12.2086 11.1912Z" stroke="#595A8A" stroke-width="1.61538" stroke-linecap="round" stroke-linejoin="round"/>
<mask id="path-2-inside-1_888_18815" fill="white">
<path fill-rule="evenodd" clip-rule="evenodd" d="M20.6594 16.4414C19.5599 13.2926 16.6492 11.1914 13.3869 11.1914H10.612C7.34967 11.1914 4.43905 13.2926 3.33947 16.4414C3.19117 16.8661 3.11536 17.3138 3.11536 17.7649C3.11536 19.9334 4.83012 21.6914 6.9454 21.6914H17.0535C17.4935 21.6914 17.9302 21.6137 18.3444 21.4616C20.3359 20.7307 21.3724 18.4831 20.6594 16.4414Z"/>
</mask>
<path d="M20.6594 16.4414L19.1344 16.974V16.974L20.6594 16.4414ZM3.33947 16.4414L1.81439 15.9088H1.81439L3.33947 16.4414ZM18.3444 21.4616L18.901 22.9781L18.901 22.9781L18.3444 21.4616ZM13.3869 12.8068C15.9417 12.8068 18.2544 14.4539 19.1344 16.974L22.1845 15.9088C20.8654 12.1312 17.3567 9.57602 13.3869 9.57602V12.8068ZM10.612 12.8068H13.3869V9.57602H10.612V12.8068ZM4.86454 16.974C5.74455 14.4539 8.05716 12.8068 10.612 12.8068V9.57602C6.64217 9.57602 3.13354 12.1312 1.81439 15.9088L4.86454 16.974ZM4.73074 17.7649C4.73074 17.4946 4.77619 17.227 4.86454 16.974L1.81439 15.9088C1.60615 16.5052 1.49997 17.133 1.49997 17.7649H4.73074ZM6.9454 20.076C5.75994 20.076 4.73074 19.0794 4.73074 17.7649H1.49997C1.49997 20.7875 3.90031 23.3068 6.9454 23.3068V20.076ZM17.0535 20.076H6.9454V23.3068H17.0535V20.076ZM17.7879 19.9452C17.5514 20.032 17.303 20.076 17.0535 20.076V23.3068C17.6839 23.3068 18.309 23.1954 18.901 22.9781L17.7879 19.9452ZM19.1344 16.974C19.5659 18.2099 18.9244 19.528 17.7878 19.9452L18.901 22.9781C21.7474 21.9334 23.1788 18.7563 22.1845 15.9088L19.1344 16.974Z" fill="#595A8A" mask="url(#path-2-inside-1_888_18815)"/>
</svg>
