<svg width="18" height="23" viewBox="0 0 18 23" fill="none" xmlns="http://www.w3.org/2000/svg">
<path d="M9.02211 3.30859C6.02243 3.30859 3.58462 5.8844 3.58462 9.05389V11.8212C3.58462 12.4053 3.349 13.2958 3.06806 13.7938L2.02588 15.6227C1.38244 16.7526 1.8265 18.007 3.00462 18.4283C6.91055 19.8072 11.1246 19.8072 15.0305 18.4283C16.1271 18.0453 16.6074 16.676 16.0093 15.6227L14.9671 13.7938C14.6952 13.2958 14.4596 12.4053 14.4596 11.8212V9.05389C14.4596 5.89398 12.0127 3.30859 9.02211 3.30859Z" stroke="#595A8A" stroke-width="1.61538" stroke-miterlimit="10" stroke-linecap="round"/>
<path d="M9 3.30859L9 1.69321" stroke="#595A8A" stroke-width="1.61538" stroke-linecap="round"/>
<path d="M11.4223 19.4629C11.4223 20.7956 10.3319 21.886 8.99925 21.886C8.33694 21.886 7.72309 21.6114 7.28694 21.1752C6.85079 20.739 6.57617 20.1252 6.57617 19.4629" stroke="#595A8A" stroke-width="1.61538" stroke-miterlimit="10"/>
</svg>
