<svg width="31" height="31" viewBox="0 0 31 31" fill="none" xmlns="http://www.w3.org/2000/svg">
<path d="M15.9776 2.77672L27.6026 7.42669C28.0547 7.60752 28.4163 8.15001 28.4163 8.62793V12.9163C28.4163 13.6267 27.8351 14.2079 27.1247 14.2079H3.87467C3.16426 14.2079 2.58301 13.6267 2.58301 12.9163V8.62793C2.58301 8.15001 2.94468 7.60752 3.39676 7.42669L15.0218 2.77672C15.2801 2.67339 15.7193 2.67339 15.9776 2.77672Z" stroke="black" stroke-width="1.5" stroke-miterlimit="10" stroke-linecap="round" stroke-linejoin="round"/>
<path d="M28.4163 28.4167H2.58301V24.5417C2.58301 23.8312 3.16426 23.25 3.87467 23.25H27.1247C27.8351 23.25 28.4163 23.8312 28.4163 24.5417V28.4167Z" stroke="black" stroke-width="1.5" stroke-miterlimit="10" stroke-linecap="round" stroke-linejoin="round"/>
<path d="M5.16699 23.2497V14.208" stroke="black" stroke-width="1.5" stroke-miterlimit="10" stroke-linecap="round" stroke-linejoin="round"/>
<path d="M10.333 23.2497V14.208" stroke="black" stroke-width="1.5" stroke-miterlimit="10" stroke-linecap="round" stroke-linejoin="round"/>
<path d="M15.5 23.2497V14.208" stroke="black" stroke-width="1.5" stroke-miterlimit="10" stroke-linecap="round" stroke-linejoin="round"/>
<path d="M20.667 23.2497V14.208" stroke="black" stroke-width="1.5" stroke-miterlimit="10" stroke-linecap="round" stroke-linejoin="round"/>
<path d="M25.833 23.2497V14.208" stroke="black" stroke-width="1.5" stroke-miterlimit="10" stroke-linecap="round" stroke-linejoin="round"/>
<path d="M1.29199 28.417H29.7087" stroke="black" stroke-width="1.5" stroke-miterlimit="10" stroke-linecap="round" stroke-linejoin="round"/>
<path d="M15.5 10.9795C16.5701 10.9795 17.4375 10.112 17.4375 9.04199C17.4375 7.97194 16.5701 7.10449 15.5 7.10449C14.4299 7.10449 13.5625 7.97194 13.5625 9.04199C13.5625 10.112 14.4299 10.9795 15.5 10.9795Z" stroke="black" stroke-width="1.5" stroke-miterlimit="10" stroke-linecap="round" stroke-linejoin="round"/>
</svg>
