<svg width="316" height="9" viewBox="0 0 316 9" fill="none" xmlns="http://www.w3.org/2000/svg">
<path d="M3.31015 0.727273V8H2.42947V1.65057H2.38685L0.611284 2.82955V1.93466L2.42947 0.727273H3.31015ZM7.77393 8.09943C7.23889 8.09943 6.78316 7.95384 6.40674 7.66264C6.03032 7.36908 5.74268 6.94413 5.54381 6.38778C5.34495 5.82907 5.24552 5.15436 5.24552 4.36364C5.24552 3.57765 5.34495 2.90649 5.54381 2.35014C5.74504 1.79143 6.03387 1.36529 6.41029 1.07173C6.78908 0.775805 7.24362 0.627841 7.77393 0.627841C8.30423 0.627841 8.75759 0.775805 9.13401 1.07173C9.5128 1.36529 9.80162 1.79143 10.0005 2.35014C10.2017 2.90649 10.3023 3.57765 10.3023 4.36364C10.3023 5.15436 10.2029 5.82907 10.004 6.38778C9.80518 6.94413 9.51753 7.36908 9.14111 7.66264C8.76469 7.95384 8.30896 8.09943 7.77393 8.09943ZM7.77393 7.31818C8.30423 7.31818 8.71616 7.0625 9.00972 6.55114C9.30328 6.03977 9.45006 5.31061 9.45006 4.36364C9.45006 3.7339 9.38259 3.19768 9.24765 2.75497C9.11507 2.31226 8.92331 1.97491 8.67236 1.7429C8.42378 1.51089 8.1243 1.39489 7.77393 1.39489C7.24836 1.39489 6.83761 1.65412 6.54168 2.17259C6.24575 2.68868 6.09779 3.41903 6.09779 4.36364C6.09779 4.99337 6.16408 5.52841 6.29665 5.96875C6.42923 6.40909 6.61981 6.74408 6.86839 6.97372C7.11933 7.20336 7.42118 7.31818 7.77393 7.31818ZM14.0239 8.09943C13.4889 8.09943 13.0332 7.95384 12.6567 7.66264C12.2803 7.36908 11.9927 6.94413 11.7938 6.38778C11.5949 5.82907 11.4955 5.15436 11.4955 4.36364C11.4955 3.57765 11.5949 2.90649 11.7938 2.35014C11.995 1.79143 12.2839 1.36529 12.6603 1.07173C13.0391 0.775805 13.4936 0.627841 14.0239 0.627841C14.5542 0.627841 15.0076 0.775805 15.384 1.07173C15.7628 1.36529 16.0516 1.79143 16.2505 2.35014C16.4517 2.90649 16.5523 3.57765 16.5523 4.36364C16.5523 5.15436 16.4529 5.82907 16.254 6.38778C16.0552 6.94413 15.7675 7.36908 15.3911 7.66264C15.0147 7.95384 14.559 8.09943 14.0239 8.09943ZM14.0239 7.31818C14.5542 7.31818 14.9662 7.0625 15.2597 6.55114C15.5533 6.03977 15.7001 5.31061 15.7001 4.36364C15.7001 3.7339 15.6326 3.19768 15.4976 2.75497C15.3651 2.31226 15.1733 1.97491 14.9224 1.7429C14.6738 1.51089 14.3743 1.39489 14.0239 1.39489C13.4984 1.39489 13.0876 1.65412 12.7917 2.17259C12.4958 2.68868 12.3478 3.41903 12.3478 4.36364C12.3478 4.99337 12.4141 5.52841 12.5467 5.96875C12.6792 6.40909 12.8698 6.74408 13.1184 6.97372C13.3693 7.20336 13.6712 7.31818 14.0239 7.31818ZM23.8535 3.97301V4.75426H20.6717V3.97301H23.8535ZM28.4531 3.97301V4.75426H25.2713V3.97301H28.4531ZM33.0527 3.97301V4.75426H29.8709V3.97301H33.0527ZM37.6523 3.97301V4.75426H34.4705V3.97301H37.6523ZM42.2519 3.97301V4.75426H39.0701V3.97301H42.2519ZM46.8515 3.97301V4.75426H43.6697V3.97301H46.8515ZM51.4511 3.97301V4.75426H48.2693V3.97301H51.4511ZM56.0507 3.97301V4.75426H52.8689V3.97301H56.0507ZM60.6503 3.97301V4.75426H57.4685V3.97301H60.6503ZM65.25 3.97301V4.75426H62.0681V3.97301H65.25ZM69.8496 3.97301V4.75426H66.6677V3.97301H69.8496ZM74.4492 3.97301V4.75426H71.2674V3.97301H74.4492ZM79.0488 3.97301V4.75426H75.867V3.97301H79.0488ZM83.6484 3.97301V4.75426H80.4666V3.97301H83.6484ZM88.248 3.97301V4.75426H85.0662V3.97301H88.248ZM92.8476 3.97301V4.75426H89.6658V3.97301H92.8476ZM97.4472 3.97301V4.75426H94.2654V3.97301H97.4472ZM102.047 3.97301V4.75426H98.865V3.97301H102.047ZM106.646 3.97301V4.75426H103.465V3.97301H106.646ZM111.246 3.97301V4.75426H108.064V3.97301H111.246ZM115.846 3.97301V4.75426H112.664V3.97301H115.846ZM120.445 3.97301V4.75426H117.263V3.97301H120.445ZM125.045 3.97301V4.75426H121.863V3.97301H125.045ZM129.644 3.97301V4.75426H126.463V3.97301H129.644ZM134.244 3.97301V4.75426H131.062V3.97301H134.244ZM138.844 3.97301V4.75426H135.662V3.97301H138.844ZM143.443 3.97301V4.75426H140.261V3.97301H143.443ZM148.043 3.97301V4.75426H144.861V3.97301H148.043ZM152.643 3.97301V4.75426H149.461V3.97301H152.643ZM159.288 8.09943C158.753 8.09943 158.297 7.95384 157.92 7.66264C157.544 7.36908 157.256 6.94413 157.057 6.38778C156.859 5.82907 156.759 5.15436 156.759 4.36364C156.759 3.57765 156.859 2.90649 157.057 2.35014C157.259 1.79143 157.548 1.36529 157.924 1.07173C158.303 0.775805 158.757 0.627841 159.288 0.627841C159.818 0.627841 160.271 0.775805 160.648 1.07173C161.026 1.36529 161.315 1.79143 161.514 2.35014C161.715 2.90649 161.816 3.57765 161.816 4.36364C161.816 5.15436 161.717 5.82907 161.518 6.38778C161.319 6.94413 161.031 7.36908 160.655 7.66264C160.278 7.95384 159.823 8.09943 159.288 8.09943ZM159.288 7.31818C159.818 7.31818 160.23 7.0625 160.523 6.55114C160.817 6.03977 160.964 5.31061 160.964 4.36364C160.964 3.7339 160.896 3.19768 160.761 2.75497C160.629 2.31226 160.437 1.97491 160.186 1.7429C159.937 1.51089 159.638 1.39489 159.288 1.39489C158.762 1.39489 158.351 1.65412 158.055 2.17259C157.759 2.68868 157.611 3.41903 157.611 4.36364C157.611 4.99337 157.678 5.52841 157.81 5.96875C157.943 6.40909 158.133 6.74408 158.382 6.97372C158.633 7.20336 158.935 7.31818 159.288 7.31818ZM169.117 3.97301V4.75426H165.935V3.97301H169.117ZM173.717 3.97301V4.75426H170.535V3.97301H173.717ZM178.316 3.97301V4.75426H175.135V3.97301H178.316ZM182.916 3.97301V4.75426H179.734V3.97301H182.916ZM187.516 3.97301V4.75426H184.334V3.97301H187.516ZM192.115 3.97301V4.75426H188.933V3.97301H192.115ZM196.715 3.97301V4.75426H193.533V3.97301H196.715ZM201.314 3.97301V4.75426H198.133V3.97301H201.314ZM205.914 3.97301V4.75426H202.732V3.97301H205.914ZM210.514 3.97301V4.75426H207.332V3.97301H210.514ZM215.113 3.97301V4.75426H211.931V3.97301H215.113ZM219.713 3.97301V4.75426H216.531V3.97301H219.713ZM224.312 3.97301V4.75426H221.131V3.97301H224.312ZM228.912 3.97301V4.75426H225.73V3.97301H228.912ZM233.512 3.97301V4.75426H230.33V3.97301H233.512ZM238.111 3.97301V4.75426H234.929V3.97301H238.111ZM242.711 3.97301V4.75426H239.529V3.97301H242.711ZM247.311 3.97301V4.75426H244.129V3.97301H247.311ZM251.91 3.97301V4.75426H248.728V3.97301H251.91ZM256.51 3.97301V4.75426H253.328V3.97301H256.51ZM261.109 3.97301V4.75426H257.928V3.97301H261.109ZM265.709 3.97301V4.75426H262.527V3.97301H265.709ZM270.309 3.97301V4.75426H267.127V3.97301H270.309ZM274.908 3.97301V4.75426H271.726V3.97301H274.908ZM279.508 3.97301V4.75426H276.326V3.97301H279.508ZM284.107 3.97301V4.75426H280.926V3.97301H284.107ZM288.707 3.97301V4.75426H285.525V3.97301H288.707ZM293.307 3.97301V4.75426H290.125V3.97301H293.307ZM297.906 3.97301V4.75426H294.724V3.97301H297.906ZM301.923 0.727273V8H301.043V1.65057H301L299.225 2.82955V1.93466L301.043 0.727273H301.923ZM306.387 8.09943C305.852 8.09943 305.396 7.95384 305.02 7.66264C304.644 7.36908 304.356 6.94413 304.157 6.38778C303.958 5.82907 303.859 5.15436 303.859 4.36364C303.859 3.57765 303.958 2.90649 304.157 2.35014C304.358 1.79143 304.647 1.36529 305.024 1.07173C305.402 0.775805 305.857 0.627841 306.387 0.627841C306.918 0.627841 307.371 0.775805 307.747 1.07173C308.126 1.36529 308.415 1.79143 308.614 2.35014C308.815 2.90649 308.916 3.57765 308.916 4.36364C308.916 5.15436 308.816 5.82907 308.617 6.38778C308.418 6.94413 308.131 7.36908 307.754 7.66264C307.378 7.95384 306.922 8.09943 306.387 8.09943ZM306.387 7.31818C306.918 7.31818 307.329 7.0625 307.623 6.55114C307.917 6.03977 308.063 5.31061 308.063 4.36364C308.063 3.7339 307.996 3.19768 307.861 2.75497C307.728 2.31226 307.537 1.97491 307.286 1.7429C307.037 1.51089 306.738 1.39489 306.387 1.39489C305.862 1.39489 305.451 1.65412 305.155 2.17259C304.859 2.68868 304.711 3.41903 304.711 4.36364C304.711 4.99337 304.777 5.52841 304.91 5.96875C305.043 6.40909 305.233 6.74408 305.482 6.97372C305.733 7.20336 306.034 7.31818 306.387 7.31818ZM312.637 8.09943C312.102 8.09943 311.646 7.95384 311.27 7.66264C310.894 7.36908 310.606 6.94413 310.407 6.38778C310.208 5.82907 310.109 5.15436 310.109 4.36364C310.109 3.57765 310.208 2.90649 310.407 2.35014C310.608 1.79143 310.897 1.36529 311.274 1.07173C311.652 0.775805 312.107 0.627841 312.637 0.627841C313.168 0.627841 313.621 0.775805 313.997 1.07173C314.376 1.36529 314.665 1.79143 314.864 2.35014C315.065 2.90649 315.166 3.57765 315.166 4.36364C315.166 5.15436 315.066 5.82907 314.867 6.38778C314.668 6.94413 314.381 7.36908 314.004 7.66264C313.628 7.95384 313.172 8.09943 312.637 8.09943ZM312.637 7.31818C313.168 7.31818 313.579 7.0625 313.873 6.55114C314.167 6.03977 314.313 5.31061 314.313 4.36364C314.313 3.7339 314.246 3.19768 314.111 2.75497C313.978 2.31226 313.787 1.97491 313.536 1.7429C313.287 1.51089 312.988 1.39489 312.637 1.39489C312.112 1.39489 311.701 1.65412 311.405 2.17259C311.109 2.68868 310.961 3.41903 310.961 4.36364C310.961 4.99337 311.027 5.52841 311.16 5.96875C311.293 6.40909 311.483 6.74408 311.732 6.97372C311.983 7.20336 312.284 7.31818 312.637 7.31818Z" fill="#787676"/>
</svg>
