<svg width="34" height="34" viewBox="0 0 34 34" fill="none" xmlns="http://www.w3.org/2000/svg">
<circle cx="17" cy="17" r="17" fill="#00752F"/>
<path d="M7 26H27" stroke="white" stroke-width="1.5" stroke-miterlimit="10" stroke-linecap="round" stroke-linejoin="round"/>
<path d="M20 16.5L19.1733 10.7138C18.9509 9.15663 17.6172 8 16.0443 8V8C14.5266 8 13.2232 9.07859 12.9392 10.5694L10 26" stroke="white" stroke-width="1.5"/>
<path d="M26 26L24.0637 17.9681C23.7853 16.8136 22.7523 16 21.5647 16V16C20.3916 16 19.3673 16.7942 19.0751 17.9304L17 26" stroke="white" stroke-width="1.5"/>
<mask id="path-5-inside-1_3393_42130" fill="white">
<path fill-rule="evenodd" clip-rule="evenodd" d="M13.2924 12.3961C13.3088 11.9878 13.3277 11.5169 13.5 11C13.6938 10.4186 13.8823 9.98267 14.031 9.63852C14.3487 8.90371 14.4855 8.5872 14.1076 8.16538C13.4668 7.45009 12.536 7 11.5 7C10.5209 7 9.63564 7.40206 9.00041 8.05009C8.83873 8.01724 8.67138 8 8.5 8C7.11929 8 6 9.11929 6 10.5C6 11.8807 7.11929 13 8.5 13C8.67138 13 8.83873 12.9828 9.00041 12.9499C9.63564 13.5979 10.5209 14 11.5 14C11.7355 14 11.9656 13.9767 12.1881 13.9324C13.239 13.7229 13.2611 13.1727 13.2924 12.3961Z"/>
</mask>
<path d="M13.5 11L12.077 10.5257V10.5257L13.5 11ZM13.2924 12.3961L14.7912 12.4563V12.4563L13.2924 12.3961ZM14.031 9.63852L12.6542 9.04329L12.6542 9.04329L14.031 9.63852ZM14.1076 8.16538L15.2249 7.16447L15.2249 7.16446L14.1076 8.16538ZM9.00041 8.05009L8.70176 9.52006L9.50082 9.6824L10.0716 9.10012L9.00041 8.05009ZM9.00041 12.9499L10.0716 11.8999L9.50082 11.3176L8.70176 11.4799L9.00041 12.9499ZM12.1881 13.9324L11.8948 12.4613L11.8948 12.4613L12.1881 13.9324ZM12.077 10.5257C11.8298 11.2671 11.8097 11.9339 11.7936 12.3358L14.7912 12.4563C14.8078 12.0417 14.8256 11.7666 14.923 11.4743L12.077 10.5257ZM12.6542 9.04329C12.5032 9.39255 12.2926 9.87869 12.077 10.5257L14.923 11.4743C15.095 10.9584 15.2613 10.5728 15.4079 10.2338L12.6542 9.04329ZM12.9904 9.1663C12.9944 9.17069 12.9324 9.10317 12.8848 8.96804C12.8611 8.90074 12.8461 8.8308 12.8397 8.76228C12.8335 8.69522 12.8366 8.6416 12.8407 8.60695C12.8476 8.54916 12.8577 8.54422 12.8232 8.63763C12.7886 8.73123 12.7386 8.84804 12.6542 9.04329L15.4079 10.2338C15.529 9.95357 15.7609 9.45495 15.8196 8.96221C15.8559 8.65817 15.8374 8.32084 15.7147 7.97232C15.5965 7.63624 15.4099 7.37098 15.2249 7.16447L12.9904 9.1663ZM11.5 8.5C12.0918 8.5 12.6221 8.75517 12.9904 9.1663L15.2249 7.16446C14.3115 6.145 12.9801 5.5 11.5 5.5V8.5ZM10.0716 9.10012C10.4363 8.72804 10.9402 8.5 11.5 8.5V5.5C10.1016 5.5 8.83495 6.07609 7.92922 7.00006L10.0716 9.10012ZM8.5 9.5C8.57051 9.5 8.63782 9.50707 8.70176 9.52006L9.29905 6.58012C9.03963 6.52742 8.77224 6.5 8.5 6.5V9.5ZM7.5 10.5C7.5 9.94772 7.94772 9.5 8.5 9.5V6.5C6.29086 6.5 4.5 8.29086 4.5 10.5H7.5ZM8.5 11.5C7.94772 11.5 7.5 11.0523 7.5 10.5H4.5C4.5 12.7091 6.29086 14.5 8.5 14.5V11.5ZM8.70176 11.4799C8.63782 11.4929 8.57051 11.5 8.5 11.5V14.5C8.77224 14.5 9.03963 14.4726 9.29905 14.4199L8.70176 11.4799ZM11.5 12.5C10.9402 12.5 10.4363 12.272 10.0716 11.8999L7.92922 13.9999C8.83495 14.9239 10.1016 15.5 11.5 15.5V12.5ZM11.8948 12.4613C11.7684 12.4865 11.6365 12.5 11.5 12.5V15.5C11.8345 15.5 12.1628 15.4669 12.4813 15.4034L11.8948 12.4613ZM11.7936 12.3358C11.7895 12.4364 11.7864 12.5125 11.782 12.5823C11.7777 12.6507 11.7732 12.6959 11.7688 12.7271C11.7595 12.794 11.7569 12.7491 11.8027 12.6643C11.8271 12.6191 11.8603 12.5715 11.9021 12.5274C11.9436 12.4837 11.9825 12.4549 12.0094 12.4382C12.035 12.4223 12.044 12.4209 12.0259 12.4275C12.0073 12.4342 11.9661 12.4471 11.8948 12.4613L12.4813 15.4034C13.2532 15.2496 14.0115 14.8879 14.4425 14.0895C14.7823 13.4602 14.7799 12.7353 14.7912 12.4563L11.7936 12.3358Z" fill="white" mask="url(#path-5-inside-1_3393_42130)"/>
</svg>
