<svg width="34" height="34" viewBox="0 0 34 34" fill="none" xmlns="http://www.w3.org/2000/svg">
<circle cx="17" cy="17" r="17" fill="#09A1B1"/>
<path d="M7 27H27" stroke="white" stroke-width="1.5" stroke-miterlimit="10" stroke-linecap="round" stroke-linejoin="round"/>
<path d="M13 7L13 10" stroke="white" stroke-width="1.5" stroke-miterlimit="10" stroke-linecap="round" stroke-linejoin="round"/>
<path d="M16 7L16 10" stroke="white" stroke-width="1.5" stroke-miterlimit="10" stroke-linecap="round" stroke-linejoin="round"/>
<path d="M19 7L19 10" stroke="white" stroke-width="1.5" stroke-miterlimit="10" stroke-linecap="round" stroke-linejoin="round"/>
<path d="M8.75 14C8.75 13.3096 9.30964 12.75 10 12.75H22C22.6904 12.75 23.25 13.3096 23.25 14V20C23.25 23.4518 20.4518 26.25 17 26.25H15C11.5482 26.25 8.75 23.4518 8.75 20V14Z" stroke="white" stroke-width="1.5"/>
<mask id="path-7-inside-1_1629_36433" fill="white">
<path d="M23 20L23 14L24 14C25.6569 14 27 15.3431 27 17C27 18.6569 25.6569 20 24 20L23 20Z"/>
</mask>
<path d="M23 20L23 14L23 20ZM24 12.5C26.4853 12.5 28.5 14.5147 28.5 17C28.5 19.4853 26.4853 21.5 24 21.5L24 18.5C24.8284 18.5 25.5 17.8284 25.5 17C25.5 16.1716 24.8284 15.5 24 15.5L24 12.5ZM28.5 17C28.5 19.4853 26.4853 21.5 24 21.5L23 21.5L23 18.5L24 18.5C24.8284 18.5 25.5 17.8284 25.5 17L28.5 17ZM23 12.5L24 12.5C26.4853 12.5 28.5 14.5147 28.5 17L25.5 17C25.5 16.1716 24.8284 15.5 24 15.5L23 15.5L23 12.5Z" fill="white" mask="url(#path-7-inside-1_1629_36433)"/>
</svg>
