<svg width="34" height="34" viewBox="0 0 34 34" fill="none" xmlns="http://www.w3.org/2000/svg">
<rect x="1" y="1" width="32" height="32" rx="3" fill="white" stroke="#3BC4FF" stroke-width="2"/>
<rect x="8.9502" y="9.75" width="16.1" height="15.3" rx="0.85" stroke="#3CC4FF" stroke-width="1.5"/>
<path d="M17 8.19922L17 9.79922" stroke="#3CC4FF" stroke-width="1.5" stroke-linecap="round" stroke-linejoin="round"/>
<path d="M24.1502 17.8492H9.8502C9.45403 17.8492 8.9502 17.4381 8.9502 16.6792V14.1192C8.9502 13.3604 9.45403 12.9492 9.8502 12.9492H24.1502C24.5464 12.9492 25.0502 13.3604 25.0502 14.1192V16.6792C25.0502 17.4381 24.5464 17.8492 24.1502 17.8492Z" stroke="#3CC4FF" stroke-width="1.5" stroke-linecap="round" stroke-linejoin="round"/>
<path d="M13.3964 20.7192H13.4036" stroke="#3CC4FF" stroke-width="1.5" stroke-linecap="round" stroke-linejoin="round"/>
<path d="M20.5966 20.7192H20.6038" stroke="#3CC4FF" stroke-width="1.5" stroke-linecap="round" stroke-linejoin="round"/>
<path d="M10.6006 7.39844H23.4006" stroke="#3CC4FF" stroke-width="1.5" stroke-linecap="round" stroke-linejoin="round"/>
<path d="M13 25L10.7373 27.2627" stroke="#3CC4FF" stroke-width="1.5" stroke-linecap="round"/>
<path d="M20.8633 25L23.126 27.2627" stroke="#3CC4FF" stroke-width="1.5" stroke-linecap="round"/>
</svg>
