<svg width="240" height="221" viewBox="0 0 240 221" fill="none" xmlns="http://www.w3.org/2000/svg">
<path d="M203.704 206.926C203.704 160.698 166.228 123.223 120 123.223C73.7707 123.223 36.2969 160.698 36.2969 206.926" stroke="#E9EAEC" stroke-width="0.740741" stroke-dasharray="3.74 3.74"/>
<path d="M236.296 213.589C236.296 149.361 184.227 97.293 119.999 97.293C55.7686 97.293 3.70312 149.361 3.70312 213.589" stroke="#E9EAEC" stroke-width="0.740741" stroke-dasharray="3.74 3.74"/>
<path d="M0 220.257H240C240 204.311 236.017 172.419 220.083 172.419C200.166 172.419 214.108 205.308 201.66 205.308C189.212 205.308 197.676 159.961 183.734 159.961C169.793 159.961 180.747 194.345 166.805 194.345C152.863 194.345 156.846 138.035 131.452 138.035C106.058 138.035 100.581 205.308 89.1286 205.308C77.6763 205.308 80.166 172.419 69.2116 172.419C58.2573 172.419 64.2324 194.345 51.2863 194.345C38.3402 194.345 47.3029 160.958 28.8797 159.961C14.1411 159.164 3.48548 199.826 0 220.257Z" fill="url(#paint0_linear_3104_307350)"/>
<path d="M22.0555 138.237L20.3223 138.184" stroke="#FFC083" stroke-width="0.740741" stroke-linecap="round"/>
<path d="M20.8133 134.949L19.5703 136.11" stroke="#FFC083" stroke-width="0.740741" stroke-linecap="round"/>
<path d="M17.573 133.449L17.5469 135.144" stroke="#FFC083" stroke-width="0.740741" stroke-linecap="round"/>
<path d="M14.2344 134.613L15.4414 135.849" stroke="#FFC083" stroke-width="0.740741" stroke-linecap="round"/>
<path d="M12.752 137.762L14.4843 137.815" stroke="#FFC083" stroke-width="0.740741" stroke-linecap="round"/>
<path d="M13.9941 141.048L15.2381 139.887" stroke="#FFC083" stroke-width="0.740741" stroke-linecap="round"/>
<path d="M17.2344 142.55L17.2605 140.855" stroke="#FFC083" stroke-width="0.740741" stroke-linecap="round"/>
<path d="M20.5742 141.384L19.3672 140.148" stroke="#FFC083" stroke-width="0.740741" stroke-linecap="round"/>
<path d="M170.216 5.44791L168.373 5.39844" stroke="#FFC083" stroke-width="0.740741" stroke-linecap="round"/>
<path d="M165.448 1L165.42 2.57491" stroke="#FFC083" stroke-width="0.740741" stroke-linecap="round"/>
<path d="M160.318 5.00781L162.161 5.05638" stroke="#FFC083" stroke-width="0.740741" stroke-linecap="round"/>
<path d="M165.088 9.45381L165.116 7.87891" stroke="#FFC083" stroke-width="0.740741" stroke-linecap="round"/>
<path fill-rule="evenodd" clip-rule="evenodd" d="M43.5751 151.05C42.2493 151.446 40.0412 153.395 39.2857 155.704C39.1589 153.558 37.7962 150.861 36.2969 150.472C38.1263 149.826 40.1078 147.448 40.6348 145.445C40.5395 147.545 42.4454 150.593 43.5751 151.05Z" fill="#F9C034"/>
<path fill-rule="evenodd" clip-rule="evenodd" d="M55.0023 34.3203C53.9796 34.5011 52.1673 35.7603 51.4045 37.4153C51.4954 35.8062 50.7138 33.679 49.6309 33.2599C51.0493 32.9361 52.7312 31.3369 53.2969 29.8906C53.0442 31.4466 54.2 33.8823 55.0023 34.3203Z" fill="#F9C034"/>
<path fill-rule="evenodd" clip-rule="evenodd" d="M200.337 25.5698C198.971 25.5401 197.888 24.4095 197.919 23.0442C197.948 21.6788 199.079 20.5959 200.443 20.6256C201.81 20.6553 202.892 21.7859 202.863 23.1512C202.832 24.5165 201.703 25.5995 200.337 25.5698Z" fill="#FFC700"/>
<path fill-rule="evenodd" clip-rule="evenodd" d="M183.747 174.196C182.559 174.171 181.616 173.186 181.641 171.998C181.666 170.809 182.651 169.866 183.84 169.891C185.029 169.917 185.972 170.901 185.946 172.09C185.92 173.278 184.936 174.222 183.747 174.196Z" fill="#F9C034"/>
<path fill-rule="evenodd" clip-rule="evenodd" d="M11.6747 69.5911C10.939 69.5749 10.3552 68.966 10.3714 68.2294C10.3867 67.4936 10.9965 66.9108 11.7323 66.9261C12.468 66.9423 13.0517 67.5512 13.0364 68.2869C13.0203 69.0236 12.4104 69.6073 11.6747 69.5911Z" stroke="#FFC083" stroke-width="0.740741" stroke-linecap="round"/>
<path fill-rule="evenodd" clip-rule="evenodd" d="M11.8535 126.169C12.8517 125.857 14.3807 124.637 14.7347 123.324C15.0558 124.484 16.4015 125.857 17.6159 125.962C16.2492 126.445 14.9424 127.883 14.7347 129.013C14.5936 127.861 12.7858 126.336 11.8535 126.169Z" fill="#FFB500"/>
<path d="M227.586 155.125C228.001 158.024 225.989 160.71 223.091 161.126C220.193 161.541 217.507 159.528 217.091 156.63C216.676 153.731 218.688 151.044 221.586 150.629" stroke="#FFC083" stroke-width="1.48148" stroke-linecap="round"/>
<path fill-rule="evenodd" clip-rule="evenodd" d="M176.861 178.744C176.861 181.15 174.91 183.101 172.505 183.101C170.099 183.101 168.148 181.15 168.148 178.744C168.148 176.337 170.099 174.387 172.505 174.387C174.91 174.387 176.861 176.337 176.861 178.744Z" fill="#FFB500"/>
<path fill-rule="evenodd" clip-rule="evenodd" d="M157.778 117.99L157.02 121.001L82.2227 101.949L82.9794 98.9384C88.9642 100.462 93.6064 94.662 94.3572 91.6818L98.6734 74.5216C102.092 62.0333 113.393 53.3921 126.268 53.4239C127.37 49.2817 131.602 46.8244 135.718 47.9347C139.835 49.0451 142.278 53.3026 141.173 57.4448C152.464 63.7858 158.251 76.8566 155.384 89.5426L151.204 106.161C150.317 109.683 154.787 117.228 157.778 117.99Z" fill="#F0F0F6"/>
<path fill-rule="evenodd" clip-rule="evenodd" d="M105.926 108.406C106.66 116.044 113.579 121.654 121.383 120.937C125.632 120.547 129.477 118.304 131.852 114.83L105.926 108.406Z" fill="#F3722C"/>
<path fill-rule="evenodd" clip-rule="evenodd" d="M166.118 65.4808C167.991 67.5365 169.397 69.9576 170.353 72.5241C171.327 75.0916 171.803 77.8189 171.852 80.5483C171.852 81.9139 171.744 83.2776 171.551 84.6296C171.296 85.9749 171.002 87.3105 170.539 88.6044C169.643 91.1931 168.29 93.6482 166.446 95.7378C166.367 95.8279 166.224 95.8415 166.126 95.7698C166.049 95.7126 166.024 95.6196 166.053 95.5381C167.014 93.0443 167.809 90.5845 168.343 88.0887C168.442 87.4588 168.578 86.8385 168.693 86.2153C168.771 85.5862 168.876 84.9621 168.935 84.334C168.98 83.705 169.069 83.0798 169.098 82.4508C169.108 81.8208 169.141 81.1918 169.138 80.5628C169.154 78.0438 168.846 75.5287 168.309 73.032C167.758 70.5334 166.929 68.0725 165.932 65.5787C165.912 65.5274 165.941 65.4702 165.997 65.4518C166.042 65.4362 166.089 65.4498 166.118 65.4808Z" fill="#F3722C"/>
<path fill-rule="evenodd" clip-rule="evenodd" d="M176.392 66.2035C177.996 68.1318 179.204 70.419 180.046 72.8467C180.889 75.2775 181.377 77.8596 181.463 80.4575C181.558 83.0544 181.254 85.6651 180.589 88.1518C179.924 90.6376 178.889 93.0133 177.428 95.0605C177.418 95.0733 177.4 95.0762 177.389 95.0674C177.38 95.0595 177.376 95.0467 177.379 95.0359C177.984 92.5718 178.491 90.1745 178.798 87.7644C179.105 85.3553 179.206 82.9472 179.12 80.548C179.026 78.1497 178.748 75.7593 178.259 73.3866C177.772 71.0109 177.083 68.6667 176.298 66.2606C176.288 66.2301 176.303 66.1976 176.333 66.1868C176.354 66.179 176.378 66.1858 176.392 66.2035Z" fill="#F3722C"/>
<path fill-rule="evenodd" clip-rule="evenodd" d="M86.359 78.7416C85.8066 76.027 85.8005 73.1912 86.2383 70.4191C86.6618 67.6399 87.5723 64.9303 88.8367 62.3995C90.1317 59.8837 91.7869 57.5427 93.7858 55.5398C95.7704 53.5298 98.0721 51.8268 100.611 50.6376C100.657 50.6164 100.71 50.6355 100.732 50.6799C100.749 50.7163 100.74 50.7587 100.71 50.7849C98.645 52.6354 96.7433 54.5646 95.0625 56.6533C93.394 58.746 91.9179 60.97 90.7251 63.3373C89.4995 65.6895 88.5645 68.182 87.8536 70.7532C87.1539 73.3305 86.7222 75.9906 86.447 78.7375C86.4439 78.7607 86.4224 78.7789 86.3979 78.7769C86.3784 78.7749 86.3631 78.7597 86.359 78.7416Z" fill="#F3722C"/>
<path fill-rule="evenodd" clip-rule="evenodd" d="M78.1794 73.5583C77.6757 71.0314 77.6669 68.3985 78.0325 65.8206C78.41 63.2427 79.164 60.7099 80.2767 58.3511C81.3776 55.9884 82.7988 53.7778 84.5087 51.8414C86.2108 49.902 88.178 48.2067 90.3699 46.9258C88.5801 48.7351 86.9362 50.6225 85.5022 52.652C84.0731 54.6835 82.8303 56.826 81.823 59.0797C80.8256 61.3363 80.0254 63.68 79.4547 66.0988C78.8683 68.5166 78.5164 70.9974 78.2631 73.5543C78.2602 73.5773 78.2405 73.5943 78.2158 73.5923C78.1981 73.5903 78.1823 73.5763 78.1794 73.5583Z" fill="#F3722C"/>
<path fill-rule="evenodd" clip-rule="evenodd" d="M157.777 117.983C157.777 117.983 153.435 116.249 151.153 113.775C147.975 110.331 148.184 106.572 150.333 99.319C152.86 90.6816 152.791 81.5829 151.818 77.4122C148.427 62.8794 141.48 57.2969 141.48 57.2969C152.562 63.6526 158.241 76.7536 155.427 89.4691L151.324 106.126C150.605 108.587 154.841 117.218 157.777 117.983L157.033 121.001L157.777 117.983Z" fill="#E7E7ED"/>
<path d="M59.7794 69.793L59.0176 70.6177" stroke="#FFC083" stroke-width="0.740741" stroke-linecap="round"/>
<path d="M56.2031 70.5078L56.7779 71.0376" stroke="#FFC083" stroke-width="0.740741" stroke-linecap="round"/>
<path d="M55.623 74.1646L56.3849 73.3398" stroke="#FFC083" stroke-width="0.740741" stroke-linecap="round"/>
<path d="M59.1988 73.4477L58.625 72.918" stroke="#FFC083" stroke-width="0.740741" stroke-linecap="round"/>
<path fill-rule="evenodd" clip-rule="evenodd" d="M48.4824 82.3082H58.0483C58.9505 82.3082 58.9505 82.3148 59.3824 82.6341C59.815 82.9534 64.7513 86.3171 64.7513 86.3171V82.3082H64.9824C67.6253 82.3082 69.7616 80.3163 69.7616 77.8356V64.7497C69.7616 62.2689 67.6202 60.2578 64.9824 60.2578H48.4824C45.8453 60.2578 43.7031 62.2689 43.7031 64.7497V77.8356C43.7031 80.3163 45.8453 82.3082 48.4824 82.3082Z" fill="#5C697A"/>
<path fill-rule="evenodd" clip-rule="evenodd" d="M50.7259 69.2773C51.834 69.2773 52.7303 70.1729 52.7303 71.2818C52.7303 72.3907 51.834 73.2862 50.7259 73.2862C49.617 73.2862 48.7207 72.3907 48.7207 71.2818C48.7207 70.1729 49.617 69.2773 50.7259 69.2773Z" fill="white"/>
<path fill-rule="evenodd" clip-rule="evenodd" d="M56.7388 69.2773C57.8477 69.2773 58.7433 70.1729 58.7433 71.2818C58.7433 72.3907 57.8477 73.2862 56.7388 73.2862C55.6299 73.2862 54.7344 72.3907 54.7344 71.2818C54.7344 70.1729 55.6299 69.2773 56.7388 69.2773Z" fill="white"/>
<path fill-rule="evenodd" clip-rule="evenodd" d="M62.7525 69.2773C63.8614 69.2773 64.7569 70.1729 64.7569 71.2818C64.7569 72.3907 63.8614 73.2862 62.7525 73.2862C61.6436 73.2862 60.748 72.3907 60.748 71.2818C60.748 70.1729 61.6436 69.2773 62.7525 69.2773Z" fill="white"/>
<path d="M193.142 113.539L192.555 114.175" stroke="#FFC083" stroke-width="0.740741" stroke-linecap="round"/>
<path d="M190.383 114.09L190.826 114.499" stroke="#FFC083" stroke-width="0.740741" stroke-linecap="round"/>
<path d="M189.936 116.91L190.523 116.273" stroke="#FFC083" stroke-width="0.740741" stroke-linecap="round"/>
<path d="M192.695 116.358L192.252 115.949" stroke="#FFC083" stroke-width="0.740741" stroke-linecap="round"/>
<path fill-rule="evenodd" clip-rule="evenodd" d="M197.072 123.107H189.73C189.038 123.107 189.038 123.112 188.706 123.357C188.374 123.602 184.586 126.184 184.586 126.184V123.107H184.408C182.38 123.107 180.74 121.578 180.74 119.674V109.631C180.74 107.727 182.384 106.184 184.408 106.184H197.072C199.096 106.184 200.74 107.727 200.74 109.631V119.674C200.74 121.578 199.096 123.107 197.072 123.107Z" fill="#7B8799"/>
<path fill-rule="evenodd" clip-rule="evenodd" d="M186.158 113.141C187.013 113.141 187.704 113.831 187.704 114.687C187.704 115.542 187.013 116.233 186.158 116.233C185.303 116.233 184.611 115.542 184.611 114.687C184.611 113.831 185.303 113.141 186.158 113.141Z" fill="white"/>
<path fill-rule="evenodd" clip-rule="evenodd" d="M190.796 113.141C191.652 113.141 192.343 113.831 192.343 114.687C192.343 115.542 191.652 116.233 190.796 116.233C189.941 116.233 189.25 115.542 189.25 114.687C189.25 113.831 189.941 113.141 190.796 113.141Z" fill="white"/>
<path fill-rule="evenodd" clip-rule="evenodd" d="M195.435 113.141C196.29 113.141 196.981 113.831 196.981 114.687C196.981 115.542 196.29 116.233 195.435 116.233C194.58 116.233 193.889 115.542 193.889 114.687C193.889 113.831 194.58 113.141 195.435 113.141Z" fill="white"/>
<defs>
<linearGradient id="paint0_linear_3104_307350" x1="120" y1="138.035" x2="120" y2="220.257" gradientUnits="userSpaceOnUse">
<stop stop-color="#C7DDFF"/>
<stop offset="1" stop-color="white"/>
</linearGradient>
</defs>
</svg>
