<svg width="24" height="24" viewBox="0 0 24 24" fill="none" xmlns="http://www.w3.org/2000/svg">
<path d="M2 22H22" stroke="#F3722C" stroke-width="1.5" stroke-miterlimit="10" stroke-linecap="round" stroke-linejoin="round"/>
<path d="M7 22V6.48284C7 6.30466 7.21543 6.21543 7.34142 6.34142L10.1586 9.15858C10.2846 9.28457 10.5 9.19534 10.5 9.01716V6.48284C10.5 6.30466 10.7154 6.21543 10.8414 6.34142L13.6586 9.15858C13.7846 9.28457 14 9.19534 14 9.01716V6.48284C14 6.30466 14.2154 6.21543 14.3414 6.34142L17.1586 9.15858C17.2846 9.28457 17.5 9.19534 17.5 9.01716V6.48284C17.5 6.30466 17.7154 6.21543 17.8414 6.34142L20.9414 9.44142C20.9789 9.47893 21 9.5298 21 9.58284V22" stroke="#F3722C" stroke-width="1.5"/>
<path d="M20 8.5L19.4494 3.58852C19.348 2.68395 18.5831 2 17.6729 2V2C16.7554 2 15.9868 2.69462 15.8943 3.60748L15.5 7.5" stroke="#F3722C" stroke-width="1.5"/>
<mask id="path-4-inside-1_3034_43222" fill="white">
<path fill-rule="evenodd" clip-rule="evenodd" d="M16.2914 5.14394C16.3222 4.81249 16.3581 4.42579 16.5 4C16.7257 3.32282 16.9571 2.92424 17.1146 2.65281C17.3247 2.29067 17.4035 2.15487 17.1625 1.88579C16.6754 1.3421 15.9679 1 15.1805 1C14.4362 1 13.7634 1.3056 13.2806 1.79816C13.1577 1.77319 13.0305 1.76008 12.9002 1.76008C11.8508 1.76008 11 2.61083 11 3.66029C11 4.70974 11.8508 5.56049 12.9002 5.56049C13.0305 5.56049 13.1577 5.54738 13.2806 5.52242C13.7634 6.01497 14.4362 6.32057 15.1805 6.32057C15.3595 6.32057 15.5343 6.30289 15.7034 6.26918C16.2025 6.10053 16.2397 5.7 16.2914 5.14394Z"/>
</mask>
<path d="M16.5 4L17.923 4.47434V4.47434L16.5 4ZM16.2914 5.14394L17.785 5.28267L17.785 5.28267L16.2914 5.14394ZM17.1146 2.65281L18.4119 3.40571L18.4119 3.4057L17.1146 2.65281ZM17.1625 1.88579L18.2797 0.884868L18.2797 0.884868L17.1625 1.88579ZM13.2806 1.79816L12.9819 3.26813L13.781 3.43046L14.3517 2.84818L13.2806 1.79816ZM13.2806 5.52242L14.3517 4.47239L13.781 3.89011L12.9819 4.05245L13.2806 5.52242ZM15.7034 6.26918L15.9967 7.74024L16.0918 7.72128L16.1836 7.69024L15.7034 6.26918ZM15.077 3.52566C14.8743 4.1336 14.8282 4.67794 14.7978 5.00521L17.785 5.28267C17.8161 4.94704 17.8418 4.71797 17.923 4.47434L15.077 3.52566ZM15.8172 1.8999C15.6398 2.20566 15.3501 2.70633 15.077 3.52566L17.923 4.47434C18.1014 3.93931 18.2743 3.64281 18.4119 3.40571L15.8172 1.8999ZM16.0453 2.8867C16.0422 2.88326 16.0232 2.86192 15.9976 2.8243C15.9716 2.786 15.9344 2.7245 15.8999 2.64096C15.8204 2.44863 15.7933 2.23234 15.8223 2.02594C15.8348 1.93658 15.8553 1.86804 15.87 1.82588C15.8844 1.78482 15.8964 1.7605 15.897 1.75923C15.8977 1.75791 15.8933 1.76695 15.8783 1.79362C15.8631 1.82078 15.8449 1.85224 15.8172 1.89991L18.4119 3.4057C18.4558 3.33015 18.5306 3.20288 18.5922 3.07681C18.6548 2.94889 18.7535 2.72578 18.7932 2.44286C18.8968 1.70427 18.5391 1.17447 18.2797 0.884868L16.0453 2.8867ZM15.1805 2.5C15.5237 2.5 15.8307 2.64719 16.0453 2.8867L18.2797 0.884868C17.5201 0.0370201 16.412 -0.5 15.1805 -0.5V2.5ZM14.3517 2.84818C14.5641 2.63157 14.8555 2.5 15.1805 2.5V-0.5C14.0169 -0.5 12.9627 -0.0203751 12.2094 0.748129L14.3517 2.84818ZM12.9002 3.26008C12.9296 3.26008 12.9568 3.26302 12.9819 3.26813L13.5792 0.328186C13.3586 0.283362 13.1313 0.260082 12.9002 0.260082V3.26008ZM12.5 3.66029C12.5 3.43926 12.6792 3.26008 12.9002 3.26008V0.260082C11.0223 0.260082 9.5 1.78241 9.5 3.66029H12.5ZM12.9002 4.06049C12.6792 4.06049 12.5 3.88131 12.5 3.66029H9.5C9.5 5.53817 11.0223 7.06049 12.9002 7.06049V4.06049ZM12.9819 4.05245C12.9568 4.05756 12.9296 4.06049 12.9002 4.06049V7.06049C13.1313 7.06049 13.3586 7.03721 13.5792 6.99239L12.9819 4.05245ZM15.1805 4.82057C14.8555 4.82057 14.5641 4.689 14.3517 4.47239L12.2094 6.57244C12.9627 7.34095 14.0169 7.82057 15.1805 7.82057V4.82057ZM15.4102 4.79813C15.3371 4.81269 15.2605 4.82057 15.1805 4.82057V7.82057C15.4585 7.82057 15.7316 7.79309 15.9967 7.74024L15.4102 4.79813ZM14.7978 5.0052C14.7838 5.15571 14.7759 5.2355 14.766 5.29842C14.7566 5.35828 14.7544 5.33865 14.7772 5.28313C14.805 5.21536 14.8638 5.10835 14.9717 5.00706C15.0783 4.90692 15.1787 4.86316 15.2232 4.84813L16.1836 7.69024C16.8454 7.46663 17.3104 7.01313 17.5532 6.42054C17.7343 5.97867 17.7659 5.48782 17.785 5.28267L14.7978 5.0052Z" fill="#F3722C" mask="url(#path-4-inside-1_3034_43222)"/>
<path d="M3 14L7 10" stroke="#F3722C" stroke-width="1.5" stroke-linecap="round" stroke-linejoin="round"/>
<path d="M3 14L3 22" stroke="#F3722C" stroke-width="1.5" stroke-linecap="round" stroke-linejoin="round"/>
<mask id="path-8-inside-2_3034_43222" fill="white">
<rect x="9" y="12" width="4" height="4" rx="1"/>
</mask>
<rect x="9" y="12" width="4" height="4" rx="1" stroke="#F3722C" stroke-width="3" mask="url(#path-8-inside-2_3034_43222)"/>
<path d="M12 18L10 18" stroke="#F3722C" stroke-width="1.5" stroke-linecap="round" stroke-linejoin="round"/>
<path d="M18 18L16 18" stroke="#F3722C" stroke-width="1.5" stroke-linecap="round" stroke-linejoin="round"/>
<mask id="path-11-inside-3_3034_43222" fill="white">
<rect x="15" y="12" width="4" height="4" rx="1"/>
</mask>
<rect x="15" y="12" width="4" height="4" rx="1" stroke="#F3722C" stroke-width="3" mask="url(#path-11-inside-3_3034_43222)"/>
</svg>
