<svg width="20" height="20" viewBox="0 0 20 20" fill="none" xmlns="http://www.w3.org/2000/svg">
<path d="M10 20C15.5228 20 20 15.5228 20 10C20 4.47715 15.5228 0 10 0C4.47715 0 0 4.47715 0 10C0 15.5228 4.47715 20 10 20Z" fill="#444569" fill-opacity="0.2"/>
<path d="M19.5 10C19.5 15.2467 15.2467 19.5 10 19.5C4.75329 19.5 0.5 15.2467 0.5 10C0.5 4.75329 4.75329 0.5 10 0.5C15.2467 0.5 19.5 4.75329 19.5 10Z" stroke="#444569" stroke-opacity="0.08"/>
<path d="M16 12H4" stroke="white" stroke-linecap="round"/>
<path d="M4 8L7 5L10 8L13 5L16 8" stroke="white" stroke-linecap="round" stroke-linejoin="round"/>
<path d="M7 15L7 4" stroke="white" stroke-linecap="round"/>
<path d="M13 15L13 4" stroke="white" stroke-linecap="round"/>
<path d="M5 12L5 7" stroke="white" stroke-linecap="round"/>
<path d="M9 12L9 7" stroke="white" stroke-linecap="round"/>
<path d="M8 14L8 12" stroke="white" stroke-linecap="round"/>
<path d="M12 14L12 12" stroke="white" stroke-linecap="round"/>
<path d="M11 12L11 7" stroke="white" stroke-linecap="round"/>
<path d="M15 12L15 7" stroke="white" stroke-linecap="round"/>
</svg>
