<svg width="20" height="20" viewBox="0 0 20 20" fill="none" xmlns="http://www.w3.org/2000/svg">
<path d="M10 20C15.5228 20 20 15.5228 20 10C20 4.47715 15.5228 0 10 0C4.47715 0 0 4.47715 0 10C0 15.5228 4.47715 20 10 20Z" fill="white" fill-opacity="0.4"/>
<path d="M19.5 10C19.5 15.2467 15.2467 19.5 10 19.5C4.75329 19.5 0.5 15.2467 0.5 10C0.5 4.75329 4.75329 0.5 10 0.5C15.2467 0.5 19.5 4.75329 19.5 10Z" stroke="black" stroke-opacity="0.08"/>
<path d="M16 13.002H4" stroke="white" stroke-linecap="round"/>
<path d="M17 11.002H3" stroke="white" stroke-linecap="round"/>
<path d="M11.0062 11.002L9.19531 11.002" stroke="white" stroke-linecap="round"/>
<path d="M10 11.002L10 4.00195" stroke="white" stroke-linecap="round"/>
<path d="M7 11.002L7 5.00195" stroke="white" stroke-linecap="round"/>
<path d="M13 11.002L13 5.00195" stroke="white" stroke-linecap="round"/>
<mask id="path-9-inside-1_575_259926" fill="white">
<path d="M6 14C6 13.4477 6.44772 13 7 13H8C8.55228 13 9 13.4477 9 14C9 14.5523 8.55228 15 8 15H7C6.44772 15 6 14.5523 6 14Z"/>
</mask>
<path d="M6 13H9H6ZM10 14.5C10 15.3284 9.32843 16 8.5 16H6.5C5.67157 16 5 15.3284 5 14.5L7 14H8L10 14.5ZM6.5 16C5.67157 16 5 15.3284 5 14.5C5 13.6716 5.67157 13 6.5 13H7C7 13 7 13.4477 7 14L6.5 16ZM8.5 13C9.32843 13 10 13.6716 10 14.5C10 15.3284 9.32843 16 8.5 16L8 14C8 13.4477 8 13 8 13H8.5Z" fill="white" mask="url(#path-9-inside-1_575_259926)"/>
<mask id="path-11-inside-2_575_259926" fill="white">
<path d="M11 14C11 13.4477 11.4477 13 12 13H13C13.5523 13 14 13.4477 14 14C14 14.5523 13.5523 15 13 15H12C11.4477 15 11 14.5523 11 14Z"/>
</mask>
<path d="M11 13H14H11ZM15 14.5C15 15.3284 14.3284 16 13.5 16H11.5C10.6716 16 10 15.3284 10 14.5L12 14H13L15 14.5ZM11.5 16C10.6716 16 10 15.3284 10 14.5C10 13.6716 10.6716 13 11.5 13H12C12 13 12 13.4477 12 14L11.5 16ZM13.5 13C14.3284 13 15 13.6716 15 14.5C15 15.3284 14.3284 16 13.5 16L13 14C13 13.4477 13 13 13 13H13.5Z" fill="white" mask="url(#path-11-inside-2_575_259926)"/>
<path d="M16 11C16 7.13401 13.3137 4 10 4C6.68629 4 4 7.13401 4 11" stroke="white"/>
</svg>
