<svg width="20" height="20" viewBox="0 0 20 20" fill="none" xmlns="http://www.w3.org/2000/svg">
<path d="M10 20C15.5228 20 20 15.5228 20 10C20 4.47715 15.5228 0 10 0C4.47715 0 0 4.47715 0 10C0 15.5228 4.47715 20 10 20Z" fill="white" fill-opacity="0.4"/>
<path d="M19.5 10C19.5 15.2467 15.2467 19.5 10 19.5C4.75329 19.5 0.5 15.2467 0.5 10C0.5 4.75329 4.75329 0.5 10 0.5C15.2467 0.5 19.5 4.75329 19.5 10Z" stroke="black" stroke-opacity="0.08"/>
<path d="M4.9682 9.4375C7.26798 9.16587 9.05469 7.2162 9.05469 4.84398" stroke="white" stroke-linecap="round" stroke-linejoin="round"/>
<path d="M9.19407 11.4824L4.96875 11.4824" stroke="white" stroke-linecap="round"/>
<path d="M15.2312 11.4824L11.0059 11.4824" stroke="white" stroke-linecap="round"/>
<path d="M9.19531 14.5016L9.19531 4.84375" stroke="white" stroke-linecap="round"/>
<path d="M11.0062 7.25781L9.19531 7.25781" stroke="white" stroke-linecap="round"/>
<path d="M11.0062 11L9.19531 11" stroke="white" stroke-linecap="round"/>
<path d="M7.38281 11.4829L7.38281 8.46484" stroke="white" stroke-linecap="round"/>
<path d="M14.627 11.4827L14.627 9.67188" stroke="white" stroke-linecap="round"/>
<path d="M5.57227 11.4827L5.57227 9.67188" stroke="white" stroke-linecap="round"/>
<path d="M12.8164 11.4829L12.8164 8.46484" stroke="white" stroke-linecap="round"/>
<path d="M11.0059 14.5016L11.0059 4.84375" stroke="white" stroke-linecap="round"/>
<path d="M11.006 4.84398C11.006 7.21016 12.7807 9.1538 15.0684 9.4375" stroke="white" stroke-linecap="round" stroke-linejoin="round"/>
</svg>
