<svg width="20" height="20" viewBox="0 0 20 20" fill="none" xmlns="http://www.w3.org/2000/svg">
<path d="M10 20C15.5228 20 20 15.5228 20 10C20 4.47715 15.5228 0 10 0C4.47715 0 0 4.47715 0 10C0 15.5228 4.47715 20 10 20Z" fill="#444569" fill-opacity="0.2"/>
<path d="M19.5 10C19.5 15.2467 15.2467 19.5 10 19.5C4.75329 19.5 0.5 15.2467 0.5 10C0.5 4.75329 4.75329 0.5 10 0.5C15.2467 0.5 19.5 4.75329 19.5 10Z" stroke="#444569" stroke-opacity="0.08"/>
<rect x="5.5" y="5.5" width="9" height="9" rx="1.1" stroke="white"/>
<line x1="8.24233" y1="5.36894" x2="12.3039" y2="14.5997" stroke="white"/>
<line x1="10.5661" y1="10.4596" x2="5.39687" y2="12.675" stroke="white"/>
</svg>
