<svg width="16" height="16" viewBox="0 0 16 16" fill="none" xmlns="http://www.w3.org/2000/svg">
<path d="M9.33366 8H2.66699" stroke="#666666" stroke-miterlimit="10" stroke-linecap="round" stroke-linejoin="round"/>
<path d="M13.3333 8L12 8" stroke="#666666" stroke-miterlimit="10" stroke-linecap="round" stroke-linejoin="round"/>
<path d="M4.00033 4H2.66699" stroke="#666666" stroke-miterlimit="10" stroke-linecap="round" stroke-linejoin="round"/>
<path d="M13.3337 4L6.66699 4" stroke="#666666" stroke-miterlimit="10" stroke-linecap="round" stroke-linejoin="round"/>
<path d="M4.66699 12H2.66699" stroke="#666666" stroke-miterlimit="10" stroke-linecap="round" stroke-linejoin="round"/>
<path d="M13.3333 12L8 12" stroke="#666666" stroke-miterlimit="10" stroke-linecap="round" stroke-linejoin="round"/>
<path d="M10.6663 9.33317C11.4027 9.33317 11.9997 8.73622 11.9997 7.99984C11.9997 7.26346 11.4027 6.6665 10.6663 6.6665C9.92996 6.6665 9.33301 7.26346 9.33301 7.99984C9.33301 8.73622 9.92996 9.33317 10.6663 9.33317Z" stroke="#666666" stroke-linecap="round" stroke-linejoin="round"/>
<path d="M5.33333 5.33317C6.06971 5.33317 6.66667 4.73622 6.66667 3.99984C6.66667 3.26346 6.06971 2.6665 5.33333 2.6665C4.59695 2.6665 4 3.26346 4 3.99984C4 4.73622 4.59695 5.33317 5.33333 5.33317Z" stroke="#666666" stroke-linecap="round" stroke-linejoin="round"/>
<path d="M6.66634 13.3332C7.40272 13.3332 7.99967 12.7362 7.99967 11.9998C7.99967 11.2635 7.40272 10.6665 6.66634 10.6665C5.92996 10.6665 5.33301 11.2635 5.33301 11.9998C5.33301 12.7362 5.92996 13.3332 6.66634 13.3332Z" stroke="#666666" stroke-linecap="round" stroke-linejoin="round"/>
</svg>
