<svg width="582" height="523" viewBox="0 0 582 523" fill="none" xmlns="http://www.w3.org/2000/svg">
<path d="M18.3797 16.4531C10.4984 17.8315 17.062 22.0746 10.8837 29.8997C4.70528 37.7248 -5.28362 49.4095 3.38935 51.8874C12.6467 54.5328 27.4164 60.8695 24.1075 69.4671C20.7985 78.0646 24.3278 86.165 29.3972 91.2895C34.4667 96.414 31.1611 107.218 38.4353 111.845C45.7095 116.473 65.1075 115.757 63.7854 124.355C62.4632 132.952 63.1243 136.919 63.7854 144.856C64.4464 152.792 68.6339 159.46 70.6183 152.847C72.6027 146.234 76.3502 146.179 81.6364 149.485C86.9226 152.792 86.2663 154.114 93.5392 149.485C100.812 144.857 104.781 144.857 104.12 149.485C103.459 154.114 102.136 156.76 104.12 160.727C106.104 164.695 108.749 170.647 98.829 169.325C89.8818 168.127 80.3393 174.522 78.2734 180.236C78.1381 180.595 74.3608 189.274 71.7153 189.274C69.0698 189.274 63.9453 193.242 73.8637 197.871C83.7822 202.499 80.2565 206.468 84.6649 207.074C89.0732 207.68 90.8923 202.284 91.278 199.194C91.6636 196.104 101.087 197.375 98.8232 203.106C96.5597 208.838 90.4472 210.821 93.5334 215.231C96.6196 219.64 99.3202 219.859 93.5334 222.505C87.7466 225.15 95.7379 234.409 89.9511 235.29C84.1644 236.172 74.1897 236.608 71.7106 240.581C69.2316 244.555 73.7465 256.011 77.0004 263.507C80.2543 271.003 88.737 289.077 98.8232 289.518C108.909 289.958 103.507 290.013 117.616 287.368C130.125 284.915 143.051 285.654 155.199 289.518C166.662 293.044 174.157 293.485 178.125 289.518C182.093 285.55 187.826 280.7 190.47 289.518C193.114 298.335 195.32 300.98 197.964 303.625C200.609 306.271 199.282 310.238 194.879 314.206C190.475 318.174 192.012 326.441 197.964 326.441C203.916 326.441 204.798 332.117 203.917 341.375C203.035 350.632 204.798 354.215 201.712 356.861C198.626 359.506 192.453 365.236 190.47 368.763C188.487 372.29 176.748 373.227 173.662 372.346C170.575 371.464 165.285 372.786 166.388 376.974C167.491 381.162 165.119 385.076 160.711 386.398C156.303 387.72 160.661 400.623 160.711 401.387C161.123 407.605 163.905 410.558 157.57 415.054C150.736 419.904 148.366 416.211 148.808 424.588C148.828 424.974 151.355 440.381 145.887 443.324C140.155 446.411 128.087 448.56 130.292 459.141C132.497 469.722 147.928 495.734 148.808 502.347C149.688 508.96 157.184 509.841 160.711 510.724C164.238 511.606 166.442 509.406 169.087 513.809C171.732 518.211 172.614 521.303 178.125 518.217C183.636 515.131 183.634 511.163 194.879 513.809C206.123 516.454 211.575 519.54 216.646 519.761C221.716 519.981 228.328 518.443 232.738 521.078C237.147 523.713 241.831 524.385 248.443 518.212C253.768 513.098 257.727 506.733 259.961 499.696C261.279 495.288 266.685 494.187 272.25 490.878C277.815 487.569 271.424 482.943 274.069 478.976C276.715 475.008 274.014 475.889 284.154 475.889C294.294 475.889 299.474 468.345 303.441 465.915C307.409 463.485 309.282 461.341 316.336 459.136C323.39 456.932 336.175 458.255 334.852 448.119C333.529 437.982 333.535 436.326 334.852 430.594C336.169 424.862 331.379 423.1 334.852 415.053C338.325 407.006 337.498 406.677 347.197 401.386C356.896 396.095 356.454 400.945 356.454 404.472C356.454 407.999 355.573 406.677 359.981 415.053C364.389 423.429 361.358 426.191 361.358 430.594C361.358 434.998 362.901 440.954 369.955 437.207C377.008 433.46 380.757 437.428 387.37 445.803C393.983 454.179 397.455 462.225 401.422 470.602C405.39 478.979 404.728 488.677 415.315 485.15C425.901 481.623 426.556 478.097 430.965 470.602C435.373 463.108 445.073 459.584 445.514 464.43C445.955 469.275 450.363 477.656 455.654 479.861C460.945 482.065 466.235 487.355 471.525 490.878C476.815 494.402 482.877 488.674 484.641 485.147C486.405 481.62 496.544 482.061 502.716 485.147C508.889 488.233 505.802 490.437 516.383 485.147C526.964 479.857 527.401 478.093 532.255 485.147C537.109 492.201 539.749 503.223 546.803 505.865C553.857 508.507 555.621 506.748 559.148 510.715C562.675 514.683 566.863 518.045 566.863 508.786C566.863 499.528 571.054 500.41 574.578 498.206C578.101 496.001 576.342 489.608 574.578 486.522C572.814 483.435 572.815 484.704 576.783 479.853C580.75 475.003 574.579 474.122 568.407 470.595C562.234 467.068 556.504 467.068 563.117 459.133C569.73 451.197 572.817 447.23 576.784 435.326C580.75 423.422 585.159 401.379 574.579 401.379C563.998 401.379 556.504 399.616 555.622 386.39C554.741 373.163 565.377 368.81 560.967 359.552C556.558 350.293 555.347 343.074 549.615 347.592C543.884 352.111 523.439 355.087 513.299 347.592C503.159 340.098 501.285 341.916 504.371 336.626C507.457 331.336 514.511 326.266 507.126 318.055C499.74 309.844 497.425 309.898 490.372 314.197C483.32 318.497 473.179 317.172 466.566 309.679C459.952 302.186 454.883 295.131 452.673 289.509C450.464 283.888 449.919 287.581 445.509 283.171C441.1 278.762 448.429 275.236 448.705 269.945C448.98 264.654 451.791 253.027 448.705 249.5C445.618 245.973 444.737 245.532 448.705 234.952C452.672 224.371 455.318 220.844 452.672 215.994C450.027 211.143 450.689 208.499 455.649 207.176C460.608 205.852 457.743 193.068 445.508 192.627C433.274 192.187 434.596 187.777 422.252 187.777C409.909 187.777 405.499 191.304 405.059 196.153C404.618 201.002 396.683 208.056 394.478 202.766C392.273 197.477 393.16 188.659 383.46 192.626C373.759 196.594 369.568 193.508 371.887 185.573C374.207 177.637 375.304 174.331 371.887 169.316C368.471 164.302 369.133 159.893 371.887 152.839C374.642 145.785 374.863 146.666 371.887 139.613C370.233 135.843 369.748 131.664 370.495 127.616C371.242 123.569 373.187 119.838 376.079 116.909C382.691 109.855 379.165 111.618 376.079 104.123C372.993 96.6285 370.57 90.2309 376.079 79.213C381.588 68.1952 379.606 61.1378 371.887 64.6647C364.169 68.1916 349.845 70.8371 347.199 62.0204C344.554 53.2037 330.886 51.8803 329.124 49.6755C327.361 47.4707 320.748 51.8803 318.984 49.6755C317.22 47.4707 315.457 45.7079 315.016 41.7403C314.576 37.7726 306.201 37.3319 300.027 41.7403C293.853 46.1486 281.84 44.9918 286.36 51.8803C290.88 58.7689 287.131 59.6503 283.164 66.2635C279.196 72.8766 268.23 96.1326 263.104 93.5973C257.978 91.062 252.413 88.0321 255.94 79.2142C259.467 70.3963 256.491 64.6659 247.232 64.6659C237.974 64.6659 231.692 64.2252 228.166 64.6659C224.639 65.1066 216.703 62.0204 207.885 64.6659C199.068 67.3114 186.724 83.6237 180.552 79.2142C174.379 74.8046 170.851 69.5138 164.681 73.4838C158.511 77.4538 147.046 85.3866 138.229 81.8596C129.411 78.3327 129.412 73.3735 128.089 69.4598C126.765 65.546 129.406 60.6983 122.357 62.0204C115.308 63.3426 120.648 65.8776 106.981 60.5831C93.3142 55.2885 103.895 49.5653 93.5346 53.5294C83.1742 57.4934 84.1634 53.0433 81.6317 47.1368C78.9862 40.9644 73.311 36.8866 66.2571 35.1225C59.2033 33.3585 55.6759 37.217 53.0304 32.4218C51.2664 29.2242 45.584 29.0541 41.2942 27.2961C39.4907 26.5595 39.3649 24.2088 39.7493 22.8878C40.9181 18.9334 26.2611 15.0747 18.3797 16.4531Z" fill="#444569"/>
<path d="M18.3797 0.285132C10.4984 1.66356 17.062 5.90667 10.8837 13.7317C4.70528 21.5568 -5.28362 33.2416 3.38935 35.7194C12.6467 38.3649 27.4164 44.7016 24.1075 53.2991C20.7985 61.8966 24.3278 69.9971 29.3972 75.1216C34.4667 80.2461 31.1611 91.0496 38.4353 95.6771C45.7095 100.305 65.1075 99.5894 63.7854 108.187C62.4632 116.784 60.5059 114.064 61.167 122C61.8281 129.936 72.3154 129.817 73.8637 138.5C75.4121 147.183 83.1691 138.187 87.667 141C92.9532 144.307 91.556 143.129 98.829 138.5C106.102 133.871 104.781 128.689 104.12 133.317C103.459 137.946 102.136 140.592 104.12 144.559C106.104 148.527 108.749 154.479 98.829 153.157C89.8818 151.959 80.3393 158.354 78.2734 164.068C78.1381 164.427 74.3608 173.106 71.7153 173.106C69.0698 173.106 63.9453 177.074 73.8637 181.703C83.7822 186.331 80.2565 190.3 84.6649 190.906C89.0732 191.512 90.8923 186.116 91.278 183.026C91.6636 179.936 101.087 181.207 98.8232 186.938C96.5597 192.67 90.4472 194.653 93.5334 199.063C96.6196 203.472 99.3202 203.691 93.5334 206.337C87.7466 208.982 95.7379 218.241 89.9511 219.122C84.1644 220.004 74.1897 220.44 71.7106 224.413C69.2316 228.387 73.7465 239.843 77.0004 247.339C80.2543 254.835 88.737 272.909 98.8232 273.35C108.909 273.79 103.507 273.845 117.616 271.2C130.125 268.747 143.051 269.486 155.199 273.35C166.662 276.876 174.157 277.317 178.125 273.35C182.093 269.382 187.826 264.532 190.47 273.35C193.114 282.167 195.32 284.812 197.964 287.457C200.609 290.103 199.282 294.07 194.879 298.038C190.475 302.006 192.012 310.273 197.964 310.273C203.916 310.273 204.798 315.949 203.917 325.207C203.035 334.464 204.798 338.047 201.712 340.693C198.626 343.338 192.453 349.068 190.47 352.595C188.487 356.122 176.748 357.059 173.662 356.178C170.575 355.296 165.285 356.618 166.388 360.806C167.491 364.994 165.119 368.908 160.711 370.23C156.303 371.552 160.661 384.455 160.711 385.219C161.123 391.437 163.905 394.39 157.57 398.886C150.736 403.736 148.366 400.043 148.808 408.42C148.828 408.806 151.355 424.213 145.887 427.156C140.155 430.243 128.087 432.392 130.292 442.973C132.497 453.554 147.928 479.566 148.808 486.179C149.688 492.792 157.184 493.673 160.711 494.556C164.238 495.438 166.442 493.238 169.087 497.641C171.732 502.043 172.614 505.135 178.125 502.049C183.636 498.963 183.634 494.995 194.879 497.641C206.123 500.286 211.575 503.372 216.646 503.593C221.716 503.813 228.328 502.276 232.738 504.91C237.147 507.545 241.831 508.217 248.443 502.044C253.768 496.93 257.727 490.565 259.961 483.528C261.279 479.12 266.685 478.019 272.25 474.71C277.815 471.401 271.424 466.775 274.069 462.808C276.715 458.84 274.014 459.722 284.154 459.722C294.294 459.722 299.474 452.177 303.441 449.747C307.409 447.317 309.282 445.173 316.336 442.968C323.39 440.764 336.175 442.087 334.852 431.951C333.529 421.814 333.535 420.158 334.852 414.426C336.169 408.694 331.379 406.932 334.852 398.885C338.325 390.838 337.498 390.509 347.197 385.218C356.896 379.927 356.454 384.777 356.454 388.304C356.454 391.831 355.573 390.509 359.981 398.885C364.389 407.261 361.358 410.023 361.358 414.426C361.358 418.83 362.901 424.786 369.955 421.039C377.008 417.292 380.757 421.26 387.37 429.635C393.983 438.011 397.455 446.057 401.422 454.434C405.39 462.811 404.728 472.509 415.315 468.982C425.901 465.456 426.556 461.929 430.965 454.434C435.373 446.94 445.073 443.416 445.514 448.262C445.955 453.107 450.364 461.488 455.654 463.693C460.945 465.897 466.235 471.187 471.525 474.71C476.815 478.234 482.877 472.506 484.641 468.979C486.405 465.452 496.544 465.893 502.716 468.979C508.889 472.065 505.802 474.269 516.383 468.979C526.964 463.689 527.401 461.925 532.255 468.979C537.109 476.033 539.749 487.055 546.803 489.697C553.857 492.339 555.621 490.58 559.148 494.547C562.675 498.515 566.863 501.877 566.863 492.618C566.863 483.36 571.054 484.242 574.578 482.038C578.101 479.833 576.342 473.44 574.578 470.354C572.814 467.267 572.815 468.536 576.783 463.685C580.75 458.835 574.579 457.954 568.407 454.427C562.234 450.9 556.504 450.9 563.117 442.965C569.73 435.029 572.817 431.062 576.784 419.158C580.75 407.254 585.159 385.211 574.579 385.211C563.998 385.211 556.504 383.448 555.622 370.222C554.741 356.995 565.377 352.642 560.967 343.384C556.558 334.125 555.347 326.906 549.615 331.424C543.884 335.943 523.439 338.919 513.299 331.424C503.159 323.93 501.285 325.748 504.371 320.458C507.457 315.168 514.511 310.098 507.126 301.887C499.74 293.676 497.425 293.73 490.372 298.029C483.32 302.329 473.179 301.004 466.566 293.511C459.952 286.018 454.883 278.963 452.673 273.341C450.464 267.72 449.919 271.413 445.509 267.003C441.1 262.594 448.429 259.068 448.705 253.777C448.98 248.486 451.791 236.859 448.705 233.332C445.618 229.805 444.737 229.364 448.705 218.784C452.672 208.203 455.318 204.676 452.672 199.826C450.027 194.975 450.689 192.331 455.649 191.008C460.608 189.684 457.743 176.9 445.508 176.459C433.274 176.019 434.596 171.609 422.252 171.609C409.909 171.609 405.499 175.136 405.059 179.985C404.618 184.834 396.683 191.888 394.478 186.598C392.273 181.309 393.16 172.491 383.46 176.458C373.759 180.426 369.568 177.34 371.887 169.405C374.207 161.469 375.304 158.163 371.887 153.148C368.471 148.134 369.133 143.725 371.887 136.671C374.642 129.617 374.863 130.498 371.887 123.445C370.233 119.675 369.748 115.496 370.495 111.448C371.242 107.401 373.188 103.67 376.079 100.741C382.691 93.6868 379.165 95.4496 376.079 87.955C372.993 80.4605 370.57 74.0629 376.079 63.045C381.588 52.0272 379.606 44.9698 371.887 48.4967C364.169 52.0237 349.845 54.6691 347.199 45.8524C344.554 37.0358 330.886 35.7123 329.124 33.5075C327.361 31.3028 320.748 35.7123 318.984 33.5075C317.22 31.3028 315.457 29.5399 315.016 25.5723C314.576 21.6047 306.201 21.164 300.027 25.5723C293.853 29.9806 281.84 28.8238 286.36 35.7124C290.88 42.6009 287.131 43.4824 283.164 50.0955C279.196 56.7086 268.23 79.9646 263.104 77.4293C257.978 74.894 252.413 71.8641 255.94 63.0462C259.467 54.2283 256.491 48.4979 247.232 48.4979C237.974 48.4979 231.692 48.0572 228.166 48.4979C224.639 48.9386 216.703 45.8524 207.885 48.4979C199.068 51.1434 186.724 67.4558 180.552 63.0462C174.379 58.6367 170.851 53.3458 164.681 57.3158C158.511 61.2859 147.046 69.2186 138.229 65.6917C129.411 62.1648 129.412 57.2055 128.089 53.2918C126.765 49.3781 129.406 44.5303 122.357 45.8524C115.308 47.1746 120.648 49.7097 106.981 44.4151C93.3142 39.1205 103.895 33.3974 93.5346 37.3614C83.1742 41.3254 84.1634 36.8753 81.6317 30.9688C78.9862 24.7964 73.311 20.7186 66.2571 18.9545C59.2033 17.1905 55.6759 21.049 53.0304 16.2538C51.2664 13.0562 45.584 12.8862 41.2942 11.1281C39.4907 10.3916 39.3649 8.0408 39.7493 6.71986C40.9181 2.7654 26.2611 -1.0933 18.3797 0.285132Z" fill="#E5E5E5"/>
<path fill-rule="evenodd" clip-rule="evenodd" d="M111.901 120.587C112.208 124.902 111.245 128.953 104.167 133.999L103.964 134.316C104.018 133.993 104.071 133.661 104.12 133.317C104.131 133.242 104.142 133.17 104.153 133.1C103.454 134.471 101.916 136.536 98.829 138.5C97.1217 139.587 95.8922 140.483 94.9418 141.176C91.8437 143.435 91.7123 143.53 87.667 141C85.8344 139.854 83.4606 140.668 81.1863 141.448C77.8787 142.582 74.7812 143.645 73.8637 138.5C73.0865 134.142 70.0568 132.001 67.1482 129.946C64.2626 127.907 61.4962 125.953 61.167 122C60.7925 117.504 61.2582 116.428 61.9728 114.778C62.5196 113.514 63.2122 111.914 63.7854 108.187C64.6235 102.737 57.1357 101.029 49.6879 99.3304C45.3865 98.3493 41.0984 97.3713 38.4353 95.6771C34.4018 93.1112 33.6212 88.6464 32.862 84.3038C32.2519 80.8147 31.6557 77.4046 29.3972 75.1216C24.3278 69.9971 20.7985 61.8966 24.1075 53.2991C27.4164 44.7016 12.6467 38.3649 3.38935 35.7194C-4.75184 33.3935 3.55051 22.9551 9.70939 15.2116C10.1117 14.7058 10.5048 14.2115 10.8837 13.7317C13.7465 10.1059 13.8735 7.24908 13.9696 5.09C14.0807 2.58952 14.1503 1.02485 18.3797 0.285132C26.2611 -1.0933 40.9181 2.7654 39.7493 6.71986C39.3649 8.0408 39.4907 10.3916 41.2942 11.1281C42.6889 11.6996 44.2307 12.1034 45.7372 12.4978C48.8646 13.3167 51.8399 14.0958 53.0304 16.2538C54.5901 19.081 56.4564 18.9 59.1713 18.6368C61.0611 18.4536 63.3621 18.2305 66.2571 18.9545C73.311 20.7186 78.9862 24.7964 81.6317 30.9688C82.0767 32.007 82.413 33.0003 82.7212 33.9107C84.1663 38.1798 84.9953 40.6287 93.5346 37.3614C98.5778 35.4318 98.6589 35.7976 98.9903 37.2921C99.3396 38.8677 99.9671 41.6978 106.981 44.4151C116.546 48.1204 116.801 47.991 118.509 47.1263C119.241 46.7555 120.241 46.2493 122.357 45.8524C127.385 44.9094 127.483 47.1054 127.606 49.8625C127.656 50.9708 127.709 52.1697 128.089 53.2918C128.286 53.8751 128.454 54.4816 128.626 55.1031C129.608 58.6519 130.725 62.6904 138.229 65.6917C146.59 69.0359 157.33 62.077 163.68 57.9626C164.027 57.7378 164.361 57.5215 164.681 57.3158C169.552 54.1813 172.777 56.8199 176.957 60.2397C177.191 60.4308 177.427 60.6243 177.667 60.8194V61C178.5 63.1667 180.067 68.8 179.667 74L179.61 74.7492C179.164 80.581 179.088 81.5795 177.167 83.5C176.126 84.5408 172.49 85.3559 169.067 85.8903C167.563 86.8504 165.948 88.1462 164.408 89.3818C162.229 91.13 160.2 92.7578 158.848 93.1447C156.533 93.807 148.266 91.4918 140.991 88.5158C134.418 85.8265 132.432 85.8373 127.477 85.8643C126.949 85.8672 126.387 85.8703 125.782 85.8703H125.781C119.503 85.8703 116.527 85.8703 117.518 88.5158C117.756 89.1501 118.108 89.8035 118.487 90.5077L118.487 90.5079C119.688 92.7407 121.165 95.4852 120.164 99.7578C119.336 103.289 115.766 103.255 113.553 103.233C112.245 103.22 111.411 103.212 111.901 103.949C112.691 105.14 112.414 109.226 112.137 113.305C111.953 116.022 111.768 118.736 111.901 120.587Z" fill="#B3B4DB"/>
<g opacity="0.6">
<path d="M104.167 134C111.245 128.953 112.208 124.903 111.901 120.588C111.57 115.959 113.218 105.933 111.901 103.95C110.583 101.967 118.846 105.379 120.164 99.7586C121.481 94.1383 118.51 91.162 117.518 88.5165C116.527 85.8711 119.503 85.8711 125.782 85.8711C132.061 85.8711 133.717 85.5405 140.991 88.5165C148.265 91.4926 156.533 93.8078 158.848 93.1455C161.163 92.4833 165.46 88.1848 169.098 85.8711C172.736 83.5573 171.743 88.1863 174.719 93.1455C177.695 98.1048 182.982 109.017 187.283 112.654C191.583 116.291 189.598 119.928 199.848 120.589C210.098 121.25 217.703 126.541 218.695 132.163C219.686 137.784 216.051 138.776 220.678 143.735C225.306 148.695 226.3 157.953 222.993 168.203C219.687 178.453 218.033 189.365 220.678 192.01C223.324 194.656 228.941 208.213 218.695 207.22C208.448 206.227 204.145 205.566 202.493 212.84C200.84 220.114 197.203 224.414 192.904 227.058C188.604 229.702 187.943 235.986 190.589 240.615C193.469 246.028 195.901 251.668 197.862 257.478C198.855 260.785 192.241 264.174 188.604 269.134" stroke="#444569" stroke-width="2" stroke-linecap="round"/>
<path d="M191.751 228.709C189.105 223.418 170.589 208.87 167.944 206.887L164.667 200L167.944 194L164.667 189M371.047 116.12C371.047 116.12 345.919 135.959 339.635 137.281C333.352 138.604 331.699 135.959 329.384 131.329C327.069 126.7 321.778 125.708 317.481 125.708C313.184 125.708 309.545 120.744 306.238 114.466C302.932 108.188 302.933 99.5871 299.957 94.2962C296.981 89.0052 288.383 92.3119 286.731 91.3203C285.078 90.3287 273.836 87.3501 269.206 86.3609C264.576 85.3717 264.907 78.0977 264.907 78.0977C264.907 78.0977 255.323 87.0256 251.354 91.3238C247.385 95.622 244.411 93.3083 242.426 97.6065C240.44 101.905 242.755 107.526 235.48 108.518C228.204 109.509 226.881 114.139 224.237 118.437C221.592 122.736 209.688 133.977 205.721 137.284C201.753 140.59 198.114 141.913 191.75 145.219C185.386 148.526 181.251 149.516 178.277 152.824L173.667 158V162L166.667 161.5" stroke="#444569" stroke-width="2" stroke-linecap="round"/>
<path d="M369.311 145.385C363.69 151.337 340.21 177.788 337.237 178.119C334.265 178.449 317.068 195.312 311.447 194.321C305.825 193.329 298.883 194.982 298.221 191.345C297.558 187.708 293.922 187.377 287.97 187.377C282.018 187.377 277.721 185.394 275.406 182.088C273.091 178.781 265.486 181.096 264.164 183.74C262.841 186.384 260.196 192.004 257.218 189.03C254.239 186.056 249.819 182.973 247.298 179.771C244.777 176.57 244.322 183.078 239.692 183.739C235.062 184.4 221.673 183.532 219.692 181.218" stroke="#444569" stroke-width="2" stroke-linecap="round"/>
<path d="M188.743 268.063C184.777 265.548 170.421 265.197 170.421 261.229C170.421 257.262 167.334 253.735 167.334 249.326C167.334 244.918 159.84 234.336 158.517 228.608C157.193 222.88 155.871 222.436 149.259 222.436C142.647 222.436 128.979 221.995 127.215 222.436C125.451 222.876 124.569 219.79 117.957 222.436C115.483 223.456 113.411 225.258 112.058 227.567C110.704 229.876 110.145 232.564 110.463 235.221C110.904 238.748 109.581 246.239 106.496 246.239C103.411 246.239 104.731 256.82 106.496 258.142C108.26 259.464 112.226 269.16 106.496 272.69" stroke="#444569" stroke-width="2" stroke-linecap="round"/>
<path d="M90.2006 219.369C89.7599 224.439 90.6796 226.065 88.4796 229.151C86.2797 232.238 87.3775 233.78 91.5654 236.866C95.7534 239.952 106.169 244.504 109.916 242.3" stroke="#444569" stroke-width="2" stroke-linecap="round"/>
<path d="M104.062 137.682C108.835 138.84 112.395 142.698 116.693 141.707C120.992 140.715 125.291 139.062 126.778 139.062C128.266 139.062 128.596 141.212 132.73 143.03C136.865 144.848 136.863 142.865 140.994 143.03C145.124 143.195 150.167 148 150.167 148" stroke="#444569" stroke-width="2" stroke-linecap="round"/>
<path d="M126.705 138.896C126.445 135.094 129.841 133.637 130.667 130C131.493 126.363 129.699 121.372 133.667 122.364C137.634 123.355 137.028 120.876 139.01 122.364C140.992 123.851 144.797 121.207 145.789 119.057C146.782 116.907 148.931 115.916 152.736 114.098C156.541 112.28 153.562 103.517 153.562 101.037C153.562 98.5566 158.353 93.1016 158.353 93.1016" stroke="#444569" stroke-width="2" stroke-linecap="round"/>
<path d="M141.334 142.368C142.484 137.904 145.46 136.085 145.955 132.613C146.451 129.142 150.42 129.14 153.065 128.811C155.711 128.482 160.012 126.661 161.166 124.346C161.767 122.925 162.892 121.788 164.308 121.173C165.723 120.557 167.321 120.51 168.77 121.04C172.573 122.357 177.046 113.609 182.667 106.5" stroke="#444569" stroke-width="2" stroke-linecap="round"/>
<path d="M141.333 67.0781C137.965 69.7236 137.153 71.156 135.761 75.896C134.968 79.2296 134.968 82.7026 135.761 86.0361" stroke="#444569" stroke-width="2" stroke-linecap="round"/>
<path d="M177.646 61.123C179.102 66.0571 179.771 71.1899 179.629 76.3324C179.629 82.7252 177.733 84.1168 171.385 85.7012" stroke="#444569" stroke-width="2" stroke-linecap="round"/>
<path d="M201.919 339.727C210.847 337.412 211.177 338.41 215.475 335.097C219.774 331.784 224.073 330.468 230.024 329.477C235.975 328.485 240.605 331.131 241.597 339.727C242.59 348.323 245.565 349.977 247.88 351.96C250.195 353.944 250.194 364.856 250.855 368.163C251.516 371.469 257.137 370.478 259.118 375.437C261.099 380.396 255.812 395.607 254.49 395.607C253.168 395.607 249.861 395.276 247.877 399.905C245.892 404.533 242.255 415.445 241.594 415.445C240.933 415.445 242.586 424.373 247.877 426.025C253.168 427.678 243.579 428.009 243.579 433.63C243.579 439.252 239.611 446.194 243.579 449.501C247.546 452.807 241.924 461.403 238.287 461.735C235.927 461.95 229.691 462.066 227.046 468.349C224.4 474.631 237.626 476.284 238.287 487.195C238.948 498.106 241.924 503.067 241.594 505.711" stroke="#444569" stroke-width="2" stroke-linecap="round"/>
<path d="M197.207 255.89C201.505 256.551 202.662 260.04 207.292 263.014C211.922 265.989 212.912 264.668 218.534 263.014C224.155 261.361 225.146 261.697 233.744 260.699C242.341 259.702 246.307 257.393 246.969 250.78C247.63 244.167 245.651 243.506 253.914 240.199C262.178 236.892 259.204 233.669 261.188 230.031C263.171 226.394 264.825 221.656 261.188 218.79C257.551 215.924 253.914 211.433 253.914 206.804C253.914 202.175 246.309 204.159 242.01 204.159H224.153" stroke="#444569" stroke-width="2" stroke-linecap="round"/>
<path d="M363.116 366.043C366.664 366.043 371.513 367.586 373.276 366.043C375.038 364.501 378.567 355.025 380.109 351.935C381.652 348.846 384.959 347.307 381.427 342.456C377.894 337.606 375.255 337.386 377.899 332.316C380.544 327.247 381.427 321.956 381.427 314.462C381.427 306.967 383.411 306.967 376.798 304.761C370.184 302.555 364.414 304.761 363.111 297.487C361.808 290.213 362.47 282.277 356.738 282.938C351.006 283.6 346.82 286.686 344.395 287.13C341.97 287.574 334.694 287.35 334.475 282.938C334.256 278.527 325.603 275.451 325.167 269.5C324.731 263.549 327.199 255.581 331.167 252.5C335.134 249.419 337.566 249.216 336.9 245.469C336.515 243.43 338.162 238.647 336.9 237C335.637 235.353 329.536 235.402 327.667 234.5" stroke="#444569" stroke-width="2" stroke-linecap="round"/>
<path d="M380.421 306.413C383.948 302.221 393.007 297.044 395.87 294.84C398.732 292.637 402.924 289.991 403.805 287.566C404.686 285.141 409.978 285.583 413.725 285.583C417.472 285.583 421.661 283.82 423.425 281.391C425.19 278.963 431.801 278.085 434.887 278.966C437.974 279.848 440.396 280.95 443.705 278.966C447.014 276.983 454.505 275.439 454.505 275.439" stroke="#444569" stroke-width="2" stroke-linecap="round"/>
<path d="M467.512 294.621C467.291 298.148 469.055 306.304 470.378 307.185C471.7 308.066 469.276 312.694 468.834 314.68C468.392 316.665 468.394 318.206 467.517 321.293C466.64 324.379 461.345 322.174 460.022 326.582C458.699 330.991 448.228 334.629 452.416 337.494C456.604 340.358 457.487 346.973 460.022 348.295C462.557 349.617 474.901 355.349 476.443 356.01C477.986 356.671 476.223 359.757 474.24 361.962C473.158 363.079 472.434 364.494 472.159 366.025C471.884 367.556 472.071 369.134 472.696 370.558C474.013 374.305 469.389 379.154 467.515 380.037C465.641 380.92 462.997 384.229 467.515 385.327C472.034 386.425 477.325 388.854 479.089 388.854C480.853 388.854 479.75 393.703 476.443 397.671C473.137 401.64 468.728 409.355 467.515 415.306C466.302 421.257 465.863 423.021 460.021 424.344C454.179 425.668 448.669 427.43 445.803 432.279C442.937 437.128 441.611 445.726 441.611 445.726" stroke="#444569" stroke-width="2" stroke-linecap="round"/>
<path d="M24.667 50.4987C28.3337 49.832 35.867 48.8987 36.667 50.4987C37.667 52.4987 36.667 55.5 40.667 56C43.867 56.4 47.0003 56.1667 48.167 56H51.167H59.167L62.167 59H68.167L75.167 63L80.667 65L88.167 68.5L93.667 72L100.167 68.5L109.167 74L115.167 68.5H126.167L130.667 61.5" stroke="#444569" stroke-width="2" stroke-linecap="round"/>
<path d="M33.167 81L39.167 77.5H44.167L47.667 81L57.167 79L62.667 77.5L66.167 83L71.667 85.5H78.167L88.167 93H99.167L96.667 102L102.167 106L106.667 102L112.167 103.5" stroke="#444569" stroke-width="2" stroke-linecap="round"/>
<path d="M99.167 93.5L103.167 85L96.167 79.5L94.167 72" stroke="#444569" stroke-width="2" stroke-linecap="round"/>
<path d="M64.167 112L67.167 109H73.667L79.667 110.5L81.667 109L87.667 110.5L90.167 109L96.667 110.5L102.167 109V106" stroke="#444569" stroke-width="2" stroke-linecap="round"/>
<path d="M97.667 153.999C99.667 153.666 103.667 154.299 103.667 159.499C103.667 165.999 103.667 166.5 107.667 167.5C110.867 168.3 114 169.833 115.167 170.5L118.167 176.5L124.667 181V186.5C122.5 190.167 118.167 198.2 118.167 201C118.167 203.8 122.5 206.5 124.667 207.5L126.167 212V222" stroke="#444569" stroke-width="2" stroke-linecap="round"/>
<path d="M125.167 182C128 181.5 133.967 180.1 135.167 178.5M135.167 178.5C136.667 176.5 135.167 174 135.167 169C135.167 165 137.167 161.333 138.167 160V153L143.167 150H148.167L152.667 147H161.167L165.667 150V160L167.167 162.5L169.167 167V173.5L171.167 178.5L169.167 187L161.167 189.5L151.167 187L143.167 182L135.167 178.5Z" stroke="#444569" stroke-width="2" stroke-linecap="round"/>
<path d="M173.667 162.5L175.667 169.5L180.167 171.5V175L181.667 180L187.167 183.5L191.167 192L198.667 201L203.667 210" stroke="#444569" stroke-width="2" stroke-linecap="round"/>
<path d="M287.667 275.5L294.167 282V288L297.167 293.5V299.5L301.667 303H312.667L322.167 309.5C323.334 312.5 325.867 319.3 326.667 322.5C327.667 326.5 333.667 335 339.167 335.5C344.667 336 347.667 338 348.167 342.5C348.567 346.1 353 350 355.167 351.5L359.667 353L364.167 362.5V366L359.667 371L356.667 380L355.167 383.5" stroke="#444569" stroke-width="2" stroke-linecap="round"/>
<path d="M228.167 261.5L232.167 266L234.667 277L241.167 279.5H251.167L257.667 277L260.667 279.5L270.167 277H277.667L287.667 275.5V271.5H292.667L297.167 264L292.667 257.5L287.667 254.5H280.667L277.667 250L280.667 245.5L276.167 235L277.667 231.5L276.167 228.5L270.167 224.5L262.167 227" stroke="#444569" stroke-width="2" stroke-linecap="round"/>
<path d="M313.667 195L315.167 205.5L313.667 212L309.667 215.5H320.167L324.667 229L327.667 234.5L322.667 238L315.167 234.5L309.667 240.5H303.667L300.667 243H291.167L284.667 238L281.667 234.5L277.167 233" stroke="#444569" stroke-width="2" stroke-linecap="round"/>
</g>
</svg>
