<svg width="24" height="24" viewBox="0 0 24 24" fill="none" xmlns="http://www.w3.org/2000/svg">
<path d="M4.75 7C4.75 5.75736 5.75736 4.75 7 4.75H17C18.2426 4.75 19.25 5.75736 19.25 7V17.4C19.25 17.8694 18.8694 18.25 18.4 18.25H5.6C5.13056 18.25 4.75 17.8694 4.75 17.4V7Z" stroke="#A2A3C3" stroke-width="1.5"/>
<mask id="path-2-inside-1_2221_303010" fill="white">
<path d="M6 3.95652C6 2.87596 6.87596 2 7.95652 2H16.0435C17.124 2 18 2.87596 18 3.95652C18 4.53282 17.5328 5 16.9565 5H7.04348C6.46718 5 6 4.53282 6 3.95652Z"/>
</mask>
<path d="M4.5 3.09239C4.5 1.66065 5.66065 0.5 7.09239 0.5H16.9076C18.3393 0.5 19.5 1.66065 19.5 3.09239L16.5 3.95652C16.5 3.70439 16.2956 3.5 16.0435 3.5H7.95652C7.70439 3.5 7.5 3.70439 7.5 3.95652L4.5 3.09239ZM18 5H6H18ZM6.40761 5C5.35407 5 4.5 4.14593 4.5 3.09239V3.09239C4.5 1.66065 5.66065 0.5 7.09239 0.5L7.95652 3.5C7.70439 3.5 7.5 3.70439 7.5 3.95652V3.95652C7.5 4.53282 7.5 5 7.5 5H6.40761ZM16.9076 0.5C18.3393 0.5 19.5 1.66065 19.5 3.09239V3.09239C19.5 4.14593 18.6459 5 17.5924 5H16.5C16.5 5 16.5 4.53282 16.5 3.95652V3.95652C16.5 3.70439 16.2956 3.5 16.0435 3.5L16.9076 0.5Z" fill="#A2A3C3" mask="url(#path-2-inside-1_2221_303010)"/>
<rect x="9.25" y="21.25" width="2.5" height="2.5" rx="1.25" transform="rotate(-180 9.25 21.25)" stroke="#A2A3C3" stroke-width="1.5" stroke-linejoin="round"/>
<rect x="17.25" y="21.25" width="2.5" height="2.5" rx="1.25" transform="rotate(-180 17.25 21.25)" stroke="#A2A3C3" stroke-width="1.5" stroke-linejoin="round"/>
<rect x="4.75" y="7.75" width="14.5" height="4.5" rx="0.85" stroke="#A2A3C3" stroke-width="1.5"/>
<path d="M7.4955 15.5H7.5045" stroke="#A2A3C3" stroke-width="1.5" stroke-linecap="round" stroke-linejoin="round"/>
<path d="M16.4955 15.5H16.5045" stroke="#A2A3C3" stroke-width="1.5" stroke-linecap="round" stroke-linejoin="round"/>
<path d="M2 6.39844L2 8.39844" stroke="#A2A3C3" stroke-width="1.5" stroke-linecap="round" stroke-linejoin="round"/>
<path d="M4 7L2 7" stroke="#A2A3C3" stroke-width="1.5" stroke-linecap="round" stroke-linejoin="round"/>
<path d="M22 7L20 7" stroke="#A2A3C3" stroke-width="1.5" stroke-linecap="round" stroke-linejoin="round"/>
<path d="M22 6.39844L22 8.39844" stroke="#A2A3C3" stroke-width="1.5" stroke-linecap="round" stroke-linejoin="round"/>
</svg>
