<svg width="8" height="8" viewBox="0 0 8 8" fill="none" xmlns="http://www.w3.org/2000/svg">
<path d="M6.41236 7.72771L4.00004 5.31573L1.58764 7.72771C1.50323 7.81368 1.40138 7.88219 1.28827 7.92901C1.17516 7.97584 1.05321 8 0.929985 8C0.806758 8 0.684809 7.97584 0.571701 7.92901C0.458592 7.88219 0.356744 7.81368 0.272327 7.72771C0.0974249 7.54961 0 7.31433 0 7.06984C0 6.82536 0.0974249 6.59008 0.272327 6.41198L2.68465 4L0.272327 1.58802C0.0974249 1.40992 0 1.17464 0 0.930154C0 0.685668 0.0974249 0.450387 0.272327 0.272287C0.356744 0.18632 0.458592 0.117815 0.571701 0.0709865C0.684809 0.0241584 0.806758 0 0.929985 0C1.05321 0 1.17516 0.0241584 1.28827 0.0709865C1.40138 0.117815 1.50323 0.18632 1.58764 0.272287L4.00004 2.68426L6.41236 0.272287C6.49677 0.18632 6.5987 0.117815 6.71181 0.0709865C6.82492 0.0241584 6.94687 0 7.07009 0C7.19332 0 7.31519 0.0241584 7.4283 0.0709865C7.54141 0.117815 7.64333 0.18632 7.72775 0.272287C7.90265 0.450387 8 0.685668 8 0.930154C8 1.17464 7.90265 1.40992 7.72775 1.58802L5.31543 4L7.72775 6.41198C7.90265 6.59008 8 6.82536 8 7.06984C8 7.31433 7.90265 7.54961 7.72775 7.72771C7.64333 7.81368 7.54141 7.88219 7.4283 7.92901C7.31519 7.97584 7.19332 8 7.07009 8C6.94687 8 6.82492 7.97584 6.71181 7.92901C6.5987 7.88219 6.49677 7.81368 6.41236 7.72771Z" fill="white"/>
</svg>
