<svg xmlns="http://www.w3.org/2000/svg" width="78" height="79" viewBox="0 0 78 79" fill="none">
  <path d="M58.4998 23.569C58.3048 23.5361 58.0773 23.5361 57.8823 23.569C53.3973 23.4044 49.8223 19.6848 49.8223 15.0765C49.8223 10.3694 53.5598 6.58398 58.2073 6.58398C62.8548 6.58398 66.5923 10.4023 66.5923 15.0765C66.5598 19.6848 62.9848 23.4044 58.4998 23.569Z" stroke="white" stroke-width="5" stroke-linecap="round" stroke-linejoin="round"/>
  <path d="M55.1522 47.5329C59.6047 48.2899 64.5122 47.4999 67.9572 45.1628C72.5397 42.0687 72.5397 36.9995 67.9572 33.9054C64.4797 31.5683 59.5072 30.7782 55.0547 31.5682" stroke="white" stroke-width="5" stroke-linecap="round" stroke-linejoin="round"/>
  <path d="M19.4031 23.569C19.5981 23.5361 19.8255 23.5361 20.0205 23.569C24.5055 23.4044 28.0805 19.6848 28.0805 15.0765C28.0805 10.3694 24.3431 6.58398 19.6956 6.58398C15.0481 6.58398 11.3105 10.4023 11.3105 15.0765C11.343 19.6848 14.9181 23.4044 19.4031 23.569Z" stroke="white" stroke-width="5" stroke-linecap="round" stroke-linejoin="round"/>
  <path d="M22.7497 47.5329C18.2972 48.2899 13.3897 47.4999 9.94469 45.1628C5.36219 42.0687 5.36219 36.9995 9.94469 33.9054C13.4222 31.5683 18.3947 30.7782 22.8472 31.5682" stroke="white" stroke-width="5" stroke-linecap="round" stroke-linejoin="round"/>
  <path d="M38.9998 48.1569C38.8048 48.124 38.5773 48.124 38.3823 48.1569C33.8973 47.9923 30.3223 44.2727 30.3223 39.6644C30.3223 34.9573 34.0598 31.1719 38.7073 31.1719C43.3548 31.1719 47.0923 34.9902 47.0923 39.6644C47.0598 44.2727 43.4848 48.0252 38.9998 48.1569Z" stroke="white" stroke-width="5" stroke-linecap="round" stroke-linejoin="round"/>
  <path d="M29.5423 58.5251C24.9598 61.6192 24.9598 66.6884 29.5423 69.7826C34.7423 73.3047 43.2573 73.3047 48.4573 69.7826C53.0398 66.6884 53.0398 61.6192 48.4573 58.5251C43.2898 55.0359 34.7423 55.0359 29.5423 58.5251Z" stroke="white" stroke-width="5" stroke-linecap="round" stroke-linejoin="round"/>
</svg>