<svg width="319" height="9" viewBox="0 0 319 9" fill="none" xmlns="http://www.w3.org/2000/svg">
<path d="M29 0.333984H0V9.00065H29V0.333984Z" fill="#B82602"/>
<path d="M145 0.333984H116V9.00065H145V0.333984Z" fill="#FCAD55"/>
<path d="M261 0.333984H232V9.00065H261V0.333984Z" fill="#58A7D9"/>
<path d="M87 0.333984H58V9.00065H87V0.333984Z" fill="#E27826"/>
<path d="M203 0.333984H174V9.00065H203V0.333984Z" fill="#9AD0F1"/>
<path d="M319 0.333984H290V9.00065H319V0.333984Z" fill="#147EBF"/>
<path d="M58 0.333984H29V9.00065H58V0.333984Z" fill="#D4580F"/>
<path d="M174 0.333984H145V9.00065H174V0.333984Z" fill="#D4D4D4"/>
<path d="M290 0.333984H261V9.00065H290V0.333984Z" fill="#4797C9"/>
<path d="M116 0.333984H87V9.00065H116V0.333984Z" fill="#F19248"/>
<path d="M232 0.333984H203V9.00065H232V0.333984Z" fill="#7CC4F0"/>
</svg>
