<svg width="24" height="24" viewBox="0 0 24 24" fill="none" xmlns="http://www.w3.org/2000/svg">
<circle cx="12" cy="12" r="9" fill="#848484"/>
<path d="M14.4124 15.7277L12 13.3157L9.58764 15.7277C9.50323 15.8137 9.40138 15.8822 9.28827 15.929C9.17516 15.9758 9.05321 16 8.92998 16C8.80676 16 8.68481 15.9758 8.5717 15.929C8.45859 15.8822 8.35674 15.8137 8.27233 15.7277C8.09742 15.5496 8 15.3143 8 15.0698C8 14.8254 8.09742 14.5901 8.27233 14.412L10.6846 12L8.27233 9.58802C8.09742 9.40992 8 9.17464 8 8.93015C8 8.68567 8.09742 8.45039 8.27233 8.27229C8.35674 8.18632 8.45859 8.11781 8.5717 8.07099C8.68481 8.02416 8.80676 8 8.92998 8C9.05321 8 9.17516 8.02416 9.28827 8.07099C9.40138 8.11781 9.50323 8.18632 9.58764 8.27229L12 10.6843L14.4124 8.27229C14.4968 8.18632 14.5987 8.11781 14.7118 8.07099C14.8249 8.02416 14.9469 8 15.0701 8C15.1933 8 15.3152 8.02416 15.4283 8.07099C15.5414 8.11781 15.6433 8.18632 15.7278 8.27229C15.9027 8.45039 16 8.68567 16 8.93015C16 9.17464 15.9027 9.40992 15.7278 9.58802L13.3154 12L15.7278 14.412C15.9027 14.5901 16 14.8254 16 15.0698C16 15.3143 15.9027 15.5496 15.7278 15.7277C15.6433 15.8137 15.5414 15.8822 15.4283 15.929C15.3152 15.9758 15.1933 16 15.0701 16C14.9469 16 14.8249 15.9758 14.7118 15.929C14.5987 15.8822 14.4968 15.8137 14.4124 15.7277Z" fill="white"/>
</svg>
