<svg width="20" height="20" viewBox="0 0 20 20" fill="none" xmlns="http://www.w3.org/2000/svg">
<path d="M18.6479 19C18.6001 19.0007 18.5527 18.9917 18.5085 18.9736C18.4643 18.9555 18.4242 18.9286 18.3907 18.8945L13.136 13.6312C11.7916 14.6952 10.1268 15.2734 8.4122 15.2716C6.48385 15.3054 4.62078 14.5733 3.23136 13.2358C1.84194 11.8983 1.03952 10.0645 1 8.13637C1.03952 6.20827 1.84194 4.37449 3.23136 3.03698C4.62078 1.69948 6.48385 0.967363 8.4122 1.00112C10.3406 0.967363 12.2036 1.69948 13.593 3.03698C14.9825 4.37449 15.7849 6.20827 15.8244 8.13637C15.8232 9.07902 15.6304 10.0116 15.2577 10.8775C14.8851 11.7434 14.3404 12.5245 13.6567 13.1735L18.9024 18.424C18.9342 18.4558 18.9592 18.4936 18.976 18.5353C18.9927 18.577 19.0009 18.6217 18.9999 18.6666C18.999 18.7115 18.9889 18.7558 18.9704 18.7967C18.9519 18.8377 18.9253 18.8744 18.8921 18.9048C18.8255 18.966 18.7383 18.9999 18.6479 19ZM8.4122 1.67993C6.66734 1.64928 4.98152 2.31173 3.72437 3.52203C2.46722 4.73234 1.74133 6.39173 1.70586 8.13637C1.74134 9.88091 2.467 11.5402 3.72384 12.7507C4.98067 13.9612 6.66616 14.6241 8.41092 14.5941C10.1561 14.6248 11.8423 13.9622 13.0997 12.7516C14.357 11.5411 15.0831 9.88136 15.1185 8.13637C15.0827 6.39184 14.3567 4.73265 13.0997 3.52242C11.8426 2.31218 10.157 1.64962 8.4122 1.67993Z" stroke="white" stroke-width="1.3" stroke-miterlimit="10"/>
</svg>
