<svg width="66" height="27" viewBox="0 0 66 27" fill="none" xmlns="http://www.w3.org/2000/svg">
<path d="M34.0475 26.9077H27.6567V0.0664062H34.0475C42.7255 0.0664062 50.0805 5.64993 50.0805 13.487C50.0805 21.3242 42.7255 26.9077 34.0475 26.9077ZM44.8894 13.487C44.8894 6.659 37.3438 5.11176 34.0475 5.11176V21.8623C37.3438 21.8623 44.8894 20.3151 44.8894 13.487Z" fill="#1A1A1A"/>
<path fill-rule="evenodd" clip-rule="evenodd" d="M46.8173 5.24631L52.4012 5.24629L52.4013 26.975H54.8356C57.0392 26.975 58.8257 25.1885 58.8257 22.9848L58.8256 5.24629H63.7259C64.8277 5.24629 65.7209 4.35307 65.7209 3.25123V2.06147C65.7209 0.959626 64.8277 0.0664062 63.7259 0.0664062H34.4146L34.4223 0.0698846C39.4118 0.162563 43.9309 2.10192 46.8173 5.24631Z" fill="#1A1A1A"/>
<path d="M12.3469 12.1963C11.0098 14.9314 10.3148 17.9357 10.3148 20.9801V26.975H16.5402V18.6686C16.5402 17.1458 16.8941 15.6439 17.5739 14.2812L22.6082 4.19085C23.5541 2.29507 22.1754 0.0664062 20.0567 0.0664062C18.9675 0.0664062 17.9734 0.686949 17.495 1.66552L12.3469 12.1963Z" fill="#999999"/>
<path d="M20.1659 0.0664062C23.3746 0.0664062 25.9757 2.66754 25.9757 5.8762V26.9077H19.585V0.647387C19.585 0.326521 19.8451 0.0664062 20.1659 0.0664062Z" fill="#1A1A1A"/>
<path d="M12.5987 12.0714C14.0017 14.86 14.7324 17.9383 14.7324 21.06V26.9077H8.34165V21.147C8.34165 17.9697 7.58467 14.8382 6.13339 12.0117L0.628914 1.29127C0.341617 0.731732 0.747904 0.0664062 1.37689 0.0664062C4.55412 0.0664062 7.46 1.85736 8.88795 4.69563L12.5987 12.0714Z" fill="#1A1A1A"/>
</svg>
