<svg width="30" height="30" viewBox="0 0 30 30" fill="none" xmlns="http://www.w3.org/2000/svg">
<path d="M11.2205 15.9975C11.0705 15.9816 10.9145 15.9814 10.7644 15.9971C8.66396 15.8805 7 14.1479 7 12C7 9.78097 8.78096 8 11 8C13.2153 8 14.9981 9.7959 15 11.9965C14.9827 14.1567 13.3083 15.8973 11.2205 15.9975Z" stroke="#595A8A" stroke-width="2" stroke-linecap="round" stroke-linejoin="round"/>
<mask id="path-2-inside-1_557_6015" fill="white">
<path fill-rule="evenodd" clip-rule="evenodd" d="M19.7719 21.5C18.6581 18.2012 15.7096 16 12.4049 16H9.59401C6.2893 16 3.34088 18.2012 2.22702 21.5C2.0768 21.9449 2 22.4139 2 22.8865C2 25.1583 3.73704 27 5.87978 27H16.1192C16.5649 27 17.0072 26.9186 17.4269 26.7593C19.4442 25.9936 20.4941 23.6389 19.7719 21.5Z"/>
</mask>
<path d="M19.7719 21.5L17.877 22.1398L17.877 22.1398L19.7719 21.5ZM2.22702 21.5L0.332127 20.8602H0.332127L2.22702 21.5ZM17.4269 26.7593L18.1366 28.6291L18.1366 28.6291L17.4269 26.7593ZM12.4049 18C14.791 18 17.0177 19.595 17.877 22.1398L21.6668 20.8602C20.2984 16.8075 16.6283 14 12.4049 14V18ZM9.59401 18H12.4049V14H9.59401V18ZM4.12192 22.1398C4.98121 19.595 7.20796 18 9.59401 18V14C5.37064 14 1.70055 16.8075 0.332127 20.8602L4.12192 22.1398ZM4 22.8865C4 22.6301 4.04174 22.3773 4.12192 22.1398L0.332127 20.8602C0.111851 21.5125 0 22.1978 0 22.8865H4ZM5.87978 25C4.95023 25 4 24.1656 4 22.8865H0C0 26.151 2.52385 29 5.87978 29V25ZM16.1192 25H5.87978V29H16.1192V25ZM16.7171 24.8895C16.5226 24.9633 16.3206 25 16.1192 25V29C16.8091 29 17.4919 28.8739 18.1366 28.6291L16.7171 24.8895ZM17.877 22.1398C18.2812 23.3368 17.6543 24.5337 16.7171 24.8895L18.1366 28.6291C21.2341 27.4534 22.7071 23.941 21.6668 20.8602L17.877 22.1398Z" fill="#595A8A" mask="url(#path-2-inside-1_557_6015)"/>
<path d="M23 4C24.661 4 25.9981 5.34626 26 6.99641C25.9866 8.61529 24.7365 9.91505 23.1815 9.99751C23.0581 9.98547 22.9309 9.98533 22.8074 9.99709C21.2399 9.90216 20 8.6067 20 7C20 5.33523 21.3352 4 23 4Z" stroke="#595A8A" stroke-width="2" stroke-linecap="round" stroke-linejoin="round"/>
<line x1="23" y1="4" x2="23" y2="3" stroke="#595A8A" stroke-width="2" stroke-linecap="round"/>
<line x1="23" y1="11" x2="23" y2="10" stroke="#595A8A" stroke-width="2" stroke-linecap="round"/>
<line x1="26" y1="7" x2="27" y2="7" stroke="#595A8A" stroke-width="2" stroke-linecap="round"/>
<line x1="19" y1="7" x2="20" y2="7" stroke="#595A8A" stroke-width="2" stroke-linecap="round"/>
<line x1="25.4142" y1="9" x2="26.1213" y2="9.70711" stroke="#595A8A" stroke-width="2" stroke-linecap="round"/>
<line x1="20.1715" y1="4" x2="20.8786" y2="4.70711" stroke="#595A8A" stroke-width="2" stroke-linecap="round"/>
<line x1="25.2422" y1="4.70688" x2="25.9493" y2="3.99977" stroke="#595A8A" stroke-width="2" stroke-linecap="round"/>
<line x1="20" y1="9.94907" x2="20.7071" y2="9.24196" stroke="#595A8A" stroke-width="2" stroke-linecap="round"/>
</svg>
