<svg width="24" height="24" viewBox="0 0 24 24" fill="none" xmlns="http://www.w3.org/2000/svg">
<path d="M7 5C7 6.104 6.104 7 5 7C4.864 7 4.728 6.984 4.6 6.96C3.688 6.776 3 5.968 3 5C3 3.896 3.896 3 5 3C5.968 3 6.776 3.688 6.96 4.6C6.984 4.728 7 4.864 7 5Z" stroke="#666666" stroke-width="1.5" stroke-linecap="round" stroke-linejoin="round"/>
<path d="M7 5H17" stroke="#666666" stroke-width="2" stroke-dasharray="1 1"/>
<path d="M7 19H17" stroke="#666666" stroke-width="2" stroke-dasharray="1 1"/>
<path d="M19 7L19 17" stroke="#666666" stroke-width="2" stroke-dasharray="1 1"/>
<path d="M5 7L5 17" stroke="#666666" stroke-width="2" stroke-dasharray="1 1"/>
<path d="M21 5C21 5.968 20.312 6.776 19.4 6.96C19.272 6.984 19.136 7 19 7C17.896 7 17 6.104 17 5C17 4.864 17.016 4.728 17.04 4.6C17.224 3.688 18.032 3 19 3C20.104 3 21 3.896 21 5Z" stroke="#666666" stroke-width="1.5" stroke-linecap="round" stroke-linejoin="round"/>
<path d="M7 19C7 19.136 6.984 19.272 6.96 19.4C6.776 20.312 5.968 21 5 21C3.896 21 3 20.104 3 19C3 18.032 3.688 17.224 4.6 17.04C4.728 17.016 4.864 17 5 17C6.104 17 7 17.896 7 19Z" stroke="#666666" stroke-width="1.5" stroke-linecap="round" stroke-linejoin="round"/>
<path d="M21 19C21 20.104 20.104 21 19 21C18.032 21 17.224 20.312 17.04 19.4C17.016 19.272 17 19.136 17 19C17 17.896 17.896 17 19 17C19.136 17 19.272 17.016 19.4 17.04C20.312 17.224 21 18.032 21 19Z" stroke="#666666" stroke-width="1.5" stroke-linecap="round" stroke-linejoin="round"/>
</svg>
