<svg width="31" height="31" viewBox="0 0 31 31" fill="none" xmlns="http://www.w3.org/2000/svg">
<path d="M1.29199 28.417H29.7087" stroke="black" stroke-width="1.5" stroke-miterlimit="10" stroke-linecap="round" stroke-linejoin="round"/>
<path d="M25.5488 28.4298V22.6689" stroke="black" stroke-width="1.5" stroke-miterlimit="10" stroke-linecap="round" stroke-linejoin="round"/>
<path d="M25.5751 14.0664C23.9992 14.0664 22.7334 15.3323 22.7334 16.9081V19.8401C22.7334 21.416 23.9992 22.6818 25.5751 22.6818C27.1509 22.6818 28.4168 21.416 28.4168 19.8401V16.9081C28.4168 15.3323 27.1509 14.0664 25.5751 14.0664Z" stroke="black" stroke-width="1.5" stroke-miterlimit="10" stroke-linecap="round" stroke-linejoin="round"/>
<path d="M2.71289 28.4164V7.78855C2.71289 5.1923 4.00462 3.8877 6.57504 3.8877H14.6221C17.1925 3.8877 18.4712 5.1923 18.4712 7.78855V28.4164" stroke="black" stroke-width="1.5" stroke-miterlimit="10" stroke-linecap="round" stroke-linejoin="round"/>
<path d="M7.49121 10.6562H13.885" stroke="black" stroke-width="1.5" stroke-miterlimit="10" stroke-linecap="round" stroke-linejoin="round"/>
<path d="M7.49121 15.5H13.885" stroke="black" stroke-width="1.5" stroke-miterlimit="10" stroke-linecap="round" stroke-linejoin="round"/>
<path d="M10.6562 28.417V23.5732" stroke="black" stroke-width="1.5" stroke-miterlimit="10" stroke-linecap="round" stroke-linejoin="round"/>
</svg>
