<svg width="32" height="32" viewBox="0 0 32 32" fill="none" xmlns="http://www.w3.org/2000/svg">
<path d="M19.3999 2.66699H12.5999C10.1999 2.66699 9.66661 3.86701 9.35994 5.34701L8.2666 10.5736H23.7333L22.6399 5.34701C22.3333 3.86701 21.7999 2.66699 19.3999 2.66699Z" stroke="black" stroke-width="1.5" stroke-linecap="round" stroke-linejoin="round"/>
<path d="M25.6537 19.0939C25.7604 20.2272 24.8537 21.2006 23.6937 21.2006H21.8804C20.8404 21.2006 20.6937 20.7606 20.5071 20.2006L20.3071 19.6272C20.0404 18.8405 19.8671 18.3072 18.4671 18.3072H13.5204C12.1337 18.3072 11.9204 18.9072 11.6804 19.6272L11.4804 20.2006C11.2937 20.7473 11.1471 21.2006 10.1071 21.2006H8.29373C7.13373 21.2006 6.22706 20.2272 6.33373 19.0939L6.8804 13.2006C7.01374 11.7473 7.29372 10.5605 9.82706 10.5605H22.1604C24.6937 10.5605 24.9737 11.7473 25.1071 13.2006L25.6537 19.0939Z" stroke="black" stroke-width="1.5" stroke-linecap="round" stroke-linejoin="round"/>
<path d="M8.26727 7.66699H7.29395" stroke="black" stroke-width="1.5" stroke-linecap="round" stroke-linejoin="round"/>
<path d="M24.7067 7.66699H23.7334" stroke="black" stroke-width="1.5" stroke-linecap="round" stroke-linejoin="round"/>
<path d="M10.2002 14.4404H13.0935" stroke="black" stroke-width="1.5" stroke-linecap="round" stroke-linejoin="round"/>
<path d="M18.9072 14.4404H21.8006" stroke="black" stroke-width="1.5" stroke-linecap="round" stroke-linejoin="round"/>
<path d="M16 22.667V24.0003" stroke="black" stroke-width="1.5" stroke-linecap="round" stroke-linejoin="round"/>
<path d="M16 28V29.3333" stroke="black" stroke-width="1.5" stroke-linecap="round" stroke-linejoin="round"/>
<path d="M4.00033 24L2.66699 29.3333" stroke="black" stroke-width="1.5" stroke-linecap="round" stroke-linejoin="round"/>
<path d="M28 24L29.3333 29.3333" stroke="black" stroke-width="1.5" stroke-linecap="round" stroke-linejoin="round"/>
</svg>
