<svg width="24" height="24" viewBox="0 0 24 24" fill="none" xmlns="http://www.w3.org/2000/svg">
<path d="M3 3V17C3 19.2091 4.79086 21 7 21H21" stroke="#F3722C" stroke-width="2" stroke-linecap="round"/>
<path d="M5.5 15L5.81623 14.0513L5.3799 13.9059L4.9855 14.1425L5.5 15ZM8.5 16L8.18377 16.9487L8.5 17.0541L8.81623 16.9487L8.5 16ZM11.5 15L11.8714 14.0715L11.5313 13.9355L11.1838 14.0513L11.5 15ZM14 16L13.6286 16.9285L13.9687 17.0645L14.3162 16.9487L14 16ZM17 15L17.4472 14.1056L17.0767 13.9203L16.6838 14.0513L17 15ZM19 16L18.5528 16.8944L19 17.118L19.4472 16.8944L19 16ZM21.4472 15.8944C21.9412 15.6474 22.1414 15.0468 21.8944 14.5528C21.6474 14.0588 21.0468 13.8586 20.5528 14.1056L21.4472 15.8944ZM3.5145 17.3575L6.0145 15.8575L4.9855 14.1425L2.4855 15.6425L3.5145 17.3575ZM5.18377 15.9487L8.18377 16.9487L8.81623 15.0513L5.81623 14.0513L5.18377 15.9487ZM8.81623 16.9487L11.8162 15.9487L11.1838 14.0513L8.18377 15.0513L8.81623 16.9487ZM11.1286 15.9285L13.6286 16.9285L14.3714 15.0715L11.8714 14.0715L11.1286 15.9285ZM14.3162 16.9487L17.3162 15.9487L16.6838 14.0513L13.6838 15.0513L14.3162 16.9487ZM16.5528 15.8944L18.5528 16.8944L19.4472 15.1056L17.4472 14.1056L16.5528 15.8944ZM19.4472 16.8944L21.4472 15.8944L20.5528 14.1056L18.5528 15.1056L19.4472 16.8944Z" fill="#F3722C"/>
<line x1="4" y1="11" x2="21" y2="11" stroke="#F3722C" stroke-width="2" stroke-linecap="round"/>
<path d="M9 10L9 5" stroke="#F3722C" stroke-width="2" stroke-linecap="round" stroke-linejoin="round"/>
<path d="M17 10L17 5" stroke="#F3722C" stroke-width="2" stroke-linecap="round" stroke-linejoin="round"/>
<path d="M7 5L9 3L11 5" stroke="#F3722C" stroke-width="2" stroke-linecap="round" stroke-linejoin="round"/>
<path d="M15 5L17 3L19 5" stroke="#F3722C" stroke-width="2" stroke-linecap="round" stroke-linejoin="round"/>
</svg>
